<svg width="40" height="40" viewBox="0 0 40 40" fill="none" xmlns="http://www.w3.org/2000/svg">
<circle cx="20" cy="20" r="20" fill="white"/>
<path d="M19.2939 14.6665C18.6015 14.6665 18.1211 15.1785 18.1211 15.8896C18.1211 16.6007 18.6015 17.1127 19.2939 17.1127C19.9862 17.1127 20.4667 16.6007 20.4667 15.8896C20.4667 15.1785 19.9862 14.6665 19.2939 14.6665ZM18.2059 18.0798V25.7314H20.3819V18.0798H18.2059Z" fill="#0D053C"/>
<path d="M25.9456 16.8852C26.2565 16.8852 26.6097 16.9989 26.8923 17.2123L27.6695 15.6194C27.1325 15.2638 26.3836 15.0789 25.6771 15.0789C24.1511 15.0789 22.8794 15.9892 22.8794 17.6958V18.4212H21.8621V19.9429H22.8794V25.7314H25.0413V19.9429H26.8358V18.4212H25.0413V17.7812C25.0413 17.1696 25.4369 16.8852 25.9456 16.8852Z" fill="#0D053C"/>
<path d="M19.2939 14.6665C18.6015 14.6665 18.1211 15.1785 18.1211 15.8896C18.1211 16.6007 18.6015 17.1127 19.2939 17.1127C19.9862 17.1127 20.4667 16.6007 20.4667 15.8896C20.4667 15.1785 19.9862 14.6665 19.2939 14.6665ZM18.2059 18.0798V25.7314H20.3819V18.0798H18.2059Z" fill="white"/>
<path d="M25.9456 16.8852C26.2565 16.8852 26.6097 16.9989 26.8923 17.2123L27.6695 15.6194C27.1325 15.2638 26.3836 15.0789 25.6771 15.0789C24.1511 15.0789 22.8794 15.9892 22.8794 17.6958V18.4212H21.8621V19.9429H22.8794V25.7314H25.0413V19.9429H26.8358V18.4212H25.0413V17.7812C25.0413 17.1696 25.4369 16.8852 25.9456 16.8852Z" fill="white"/>
<ellipse cx="7.63355" cy="16.3335" rx="4.96753" ry="5" fill="#0D053C"/>
<ellipse cx="35.5629" cy="16.2205" rx="1.1039" ry="1.11111" fill="#DE1FD6"/>
<path fill-rule="evenodd" clip-rule="evenodd" d="M10.3945 20.4927C11.7257 19.5957 12.6021 18.0683 12.6021 16.3349C12.6021 16.1469 12.5918 15.9614 12.5717 15.7788H10.3945V20.4927Z" fill="white"/>
<ellipse cx="22.0974" cy="25.7473" rx="2.0974" ry="2.11111" fill="#7B26DA"/>
<path d="M19.2939 14.6675C18.6015 14.6675 18.1211 15.1795 18.1211 15.8906C18.1211 16.6017 18.6015 17.1137 19.2939 17.1137C19.9862 17.1137 20.4667 16.6017 20.4667 15.8906C20.4667 15.1795 19.9862 14.6675 19.2939 14.6675ZM18.2059 18.0808V25.7324H20.3819V18.0808H18.2059Z" fill="#0D053C"/>
<path d="M25.9456 16.8861C26.2565 16.8861 26.6097 16.9999 26.8923 17.2133L27.6695 15.6204C27.1325 15.2648 26.3836 15.0799 25.6771 15.0799C24.1511 15.0799 22.8794 15.9901 22.8794 17.6968V18.4221H21.8621V19.9439H22.8794V25.7324H25.0413V19.9439H26.8358V18.4221H25.0413V17.7821C25.0413 17.1706 25.4369 16.8861 25.9456 16.8861Z" fill="#0D053C"/>
<ellipse cx="7.63355" cy="16.3335" rx="4.96753" ry="5" fill="#F89E2D"/>
<path d="M10.3945 15.7788V25.7344H16.866V23.7717H12.6271V15.7788H10.3945Z" fill="#0D053C"/>
<path d="M30.9651 18.0117C28.5206 18.0117 26.8815 19.5619 26.8815 21.9086C26.8815 24.241 28.5206 25.8197 30.9651 25.8197C33.3954 25.8197 35.0345 24.241 35.0345 21.9086C35.0345 19.5619 33.3954 18.0117 30.9651 18.0117ZM30.9651 19.8321C32.0813 19.8321 32.8585 20.6855 32.8585 21.937C32.8585 23.1886 32.0813 24.0419 30.9651 24.0419C29.8347 24.0419 29.0717 23.1886 29.0717 21.937C29.0717 20.6855 29.8347 19.8321 30.9651 19.8321Z" fill="#0D053C"/>
</svg>
