<svg width="26" height="26" viewBox="0 0 26 26" fill="none" xmlns="http://www.w3.org/2000/svg">
<path d="M3 18.832V20.5C3 21.8789 6.35938 23 10.5 23C14.6406 23 18 21.8789 18 20.5V18.832C16.3867 19.9687 13.4375 20.5 10.5 20.5C7.5625 20.5 4.61328 19.9687 3 18.832ZM15.5 8C19.6406 8 23 6.87891 23 5.5C23 4.12109 19.6406 3 15.5 3C11.3594 3 8 4.12109 8 5.5C8 6.87891 11.3594 8 15.5 8ZM3 14.7344V16.75C3 18.1289 6.35938 19.25 10.5 19.25C14.6406 19.25 18 18.1289 18 16.75V14.7344C16.3867 16.0625 13.4336 16.75 10.5 16.75C7.56641 16.75 4.61328 16.0625 3 14.7344ZM19.25 15.1641C21.4883 14.7305 23 13.9258 23 13V11.332C22.0937 11.9727 20.7617 12.4102 19.25 12.6797V15.1641ZM10.5 9.25C6.35938 9.25 3 10.6484 3 12.375C3 14.1016 6.35938 15.5 10.5 15.5C14.6406 15.5 18 14.1016 18 12.375C18 10.6484 14.6406 9.25 10.5 9.25ZM19.0664 11.4492C21.4102 11.0273 23 10.1992 23 9.25V7.58203C21.6133 8.5625 19.2305 9.08984 16.7227 9.21484C17.875 9.77344 18.7227 10.5234 19.0664 11.4492Z" fill="#F89E2D"/>
</svg>
