<svg width="20" height="20" viewBox="0 0 20 20" fill="none" xmlns="http://www.w3.org/2000/svg">
<g clip-path="url(#clip0)">
<path d="M14.7938 16.5616L10.3744 12.1421L5.95497 16.5616C5.46884 17.0477 4.67334 17.0477 4.18721 16.5616C3.70107 16.0754 3.70107 15.2799 4.18721 14.7938L8.60662 10.3744L4.18721 5.95495C3.70107 5.46882 3.70107 4.67332 4.18721 4.18718C4.67334 3.70105 5.46884 3.70105 5.95497 4.18718L10.3744 8.6066L14.7938 4.18718C15.2799 3.70105 16.0754 3.70105 16.5616 4.18718C17.0477 4.67332 17.0477 5.46882 16.5616 5.95495L12.1422 10.3744L16.5616 14.7938C17.0477 15.2799 17.0477 16.0754 16.5616 16.5616C16.0754 17.0477 15.2799 17.0477 14.7938 16.5616Z" fill="#0D053C" fill-opacity="0.5"/>
</g>
<defs>
<clipPath id="clip0">
<rect width="20" height="20" fill="white"/>
</clipPath>
</defs>
</svg>
