<svg width="26" height="26" viewBox="0 0 26 26" fill="none" xmlns="http://www.w3.org/2000/svg">
<path fill-rule="evenodd" clip-rule="evenodd" d="M2.23008 3H15.6106C16.8406 3 17.8407 4.03783 17.8407 5.31432V7.33974H12.3556C11.3915 7.33974 10.6077 8.23342 10.6077 9.33262V16.8859H9.07102L4.16135 20.2742C3.88607 20.484 3.49581 20.2779 3.49581 19.9235V16.8859H2.23008C1.00005 16.8859 0 15.8481 0 14.5716V5.31432C0 4.03783 1.00005 3 2.23008 3Z" fill="#358FFF"/>
<path d="M13.4028 8.55556H23.8194C24.777 8.55556 25.5555 9.41916 25.5555 10.4814V18.1846C25.5555 19.2468 24.777 20.1104 23.8194 20.1104H22.0833V22.638C22.0833 22.9329 21.7795 23.1044 21.5652 22.9299L17.743 20.1104H13.4028C12.4452 20.1104 11.6667 19.2468 11.6667 18.1846V10.4814C11.6667 9.03704 12.1456 8.55556 13.4028 8.55556Z" fill="#358FFF"/>
</svg>
