<svg width="26" height="26" viewBox="0 0 26 26" fill="none" xmlns="http://www.w3.org/2000/svg">
<path d="M15.9704 11.0287H23.9947C24.2595 11.0287 24.5135 10.9235 24.7007 10.7363C24.888 10.549 24.9932 10.295 24.9932 10.0302C24.9932 7.63724 24.0426 5.34226 22.3505 3.65017C20.6584 1.95807 18.3634 1.00746 15.9704 1.00746C15.7056 1.00746 15.4516 1.11266 15.2644 1.29992C15.0771 1.48718 14.9719 1.74116 14.9719 2.00598V10.0302C14.9719 10.295 15.0771 10.549 15.2644 10.7363C15.4516 10.9235 15.7056 11.0287 15.9704 11.0287V11.0287Z" fill="#0D053B"/>
<path d="M23.8866 13.0369H14.0819C13.9382 13.0369 13.7958 13.0086 13.663 12.9536C13.5301 12.8986 13.4095 12.8179 13.3078 12.7163C13.2061 12.6146 13.1255 12.4939 13.0705 12.3611C13.0155 12.2283 12.9872 12.0859 12.9872 11.9421V2.11335C12.9881 1.9573 12.956 1.80283 12.893 1.66005C12.83 1.51728 12.7376 1.38944 12.6217 1.28492C12.5058 1.1804 12.3691 1.10157 12.2206 1.0536C12.0721 1.00563 11.9152 0.989595 11.7601 1.00656C9.50166 1.24637 7.35727 2.12054 5.57487 3.52799C3.79247 4.93543 2.44487 6.81866 1.6879 8.95989C0.930939 11.1011 0.795536 13.4129 1.29735 15.6279C1.79917 17.8428 2.9177 19.8705 4.52361 21.4764C6.12951 23.0823 8.15719 24.2008 10.3721 24.7026C12.5871 25.2045 14.8989 25.0691 17.0401 24.3121C19.1813 23.5551 21.0646 22.2075 22.472 20.4251C23.8795 18.6427 24.7536 16.4983 24.9934 14.2399C25.0068 14.0867 24.9881 13.9324 24.9385 13.7868C24.8889 13.6412 24.8095 13.5075 24.7054 13.3943C24.6012 13.2811 24.4746 13.1909 24.3337 13.1293C24.1927 13.0678 24.0405 13.0363 23.8866 13.0369V13.0369Z" fill="#0D053B"/>
</svg>
