<svg width="26" height="26" viewBox="0 0 26 26" fill="none" xmlns="http://www.w3.org/2000/svg">
<path d="M13 2C6.9346 2 2 6.9346 2 13C2 19.0654 6.9346 24 13 24C19.0654 24 24 19.0654 24 13C24 6.9346 19.0654 2 13 2ZM14.1 18.4065V19.6H11.9V18.412C9.3271 18.0083 8.6 16.2098 8.6 15.2H10.8C10.8121 15.3573 10.9749 16.3 13 16.3C14.518 16.3 15.2 15.6565 15.2 15.2C15.2 14.8436 15.2 14.1 13 14.1C9.172 14.1 8.6 12.032 8.6 10.8C8.6 9.3832 9.7319 7.9576 11.9 7.5935V6.4132H14.1V7.6331C16.0074 8.0841 16.74 9.6714 16.74 10.8H15.64L14.54 10.8198C14.5246 10.4018 14.3035 9.7 13 9.7C11.5711 9.7 10.8 10.2676 10.8 10.8C10.8 11.2114 10.8 11.9 13 11.9C16.828 11.9 17.4 13.968 17.4 15.2C17.4 16.6168 16.2681 18.0424 14.1 18.4065Z" fill="#F89E2D"/>
</svg>
