<svg width="26" height="26" viewBox="0 0 26 26" fill="none" xmlns="http://www.w3.org/2000/svg">
<path d="M14.6912 11.9412H23.0735C23.8441 11.9412 24.4706 12.5426 24.4706 13.2823V18.6466C24.4706 19.3863 23.8441 19.9877 23.0735 19.9877H21.6765V21.7479C21.6765 21.9533 21.432 22.0727 21.2595 21.9512L18.1838 19.9877H14.6912C13.9206 19.9877 13.2941 19.3863 13.2941 18.6466V13.2823C13.2941 12.2765 13.6795 11.9412 14.6912 11.9412Z" fill="#358FFF"/>
<path fill-rule="evenodd" clip-rule="evenodd" d="M1 12.5C1 7.2617 5.2617 3 10.5 3C15.1664 3 19.0578 6.38196 19.8519 10.8235H14.1765C13.434 10.8235 12.786 11.2281 12.4409 11.8289C11.9371 11.6549 11.3011 11.55 10.5 11.55C8.6 11.55 8.6 10.9553 8.6 10.6C8.6 10.1402 9.26595 9.65 10.5 9.65C11.6257 9.65 11.8167 10.2561 11.83 10.6171L12.78 10.6H13.73C13.73 9.6253 13.0973 8.25445 11.45 7.86495V6.8114H9.55V7.83075C7.67755 8.1452 6.7 9.3764 6.7 10.6C6.7 11.664 7.194 13.45 10.5 13.45C11.469 13.45 11.9438 13.617 12.1765 13.8216V14.8439C11.8975 15.116 11.3508 15.35 10.5 15.35C8.75105 15.35 8.61045 14.5358 8.6 14.4H6.7C6.7 15.2721 7.32795 16.8253 9.55 17.174V18.2H11.45V17.1693C11.7094 17.1257 11.9516 17.0645 12.1765 16.9882V18.8824C12.1765 19.9869 13.0719 20.8824 14.1765 20.8824H14.9677C13.6353 21.5954 12.114 22 10.5 22C5.2617 22 1 17.7383 1 12.5Z" fill="#F89E2D"/>
</svg>
