<svg width="26" height="26" viewBox="0 0 26 26" fill="none" xmlns="http://www.w3.org/2000/svg">
<path d="M19.1151 13.6577C17.0771 10.7791 12.9524 12.3473 12.9524 15.483C12.9524 17.8377 18.6072 21.5211 19.1151 22C19.6265 21.5211 25 17.8377 25 15.483C25 12.3711 21.1568 10.7791 19.1151 13.6577Z" fill="#FF759E"/>
<path fill-rule="evenodd" clip-rule="evenodd" d="M2 12.6905C2 7.5572 6.17625 3.38095 11.3095 3.38095C16.0087 3.38095 19.9058 6.88071 20.5314 11.4106C20.062 11.5818 19.5936 11.8248 19.1403 12.1429C16.93 10.7394 14.5623 10.7873 13.1462 12.0109C12.6631 11.8535 12.0603 11.7595 11.3095 11.7595C9.44762 11.7595 9.44762 11.1767 9.44762 10.8286C9.44762 10.378 10.1002 9.89762 11.3095 9.89762C12.4127 9.89762 12.5998 10.4916 12.6129 10.8453L13.5438 10.8286H14.4748C14.4748 9.87341 13.8547 8.53005 12.2405 8.14836V7.11593H10.3786V8.11484C8.54366 8.42299 7.58571 9.6295 7.58571 10.8286C7.58571 11.8712 8.06981 13.6214 11.3095 13.6214C11.6094 13.6214 11.8609 13.6377 12.072 13.6664C11.9326 14.1034 11.8571 14.5922 11.8571 15.13C11.8571 15.2334 11.8628 15.3381 11.8738 15.4442C11.7036 15.4693 11.5157 15.4833 11.3095 15.4833C9.59564 15.4833 9.45786 14.6855 9.44762 14.5524H7.58571C7.58571 15.407 8.20107 16.9291 10.3786 17.2708V18.2762H12.2405V17.2661C12.3173 17.2532 12.3926 17.2387 12.4664 17.2227C13.1361 18.4947 14.2861 19.8182 15.5502 20.9768C14.2777 21.6307 12.8359 22 11.3095 22C6.17625 22 2 17.8237 2 12.6905Z" fill="#F89E2D"/>
</svg>
