<svg width="108" height="103" viewBox="0 0 108 103" fill="none" xmlns="http://www.w3.org/2000/svg">
<g clip-path="url(#clip0)">
<path d="M65.3687 5.77887L9.10181 17.873L25.7826 95.753L82.0495 83.6588L65.3687 5.77887Z" fill="#E0E0E0"/>
<g opacity="0.5">
<path opacity="0.5" d="M64.7004 7.29992L10.3352 18.9854L26.4521 94.2329L80.8174 82.5474L64.7004 7.29992Z" fill="url(#paint0_linear)"/>
</g>
<path d="M64.1264 8.00269L11.1453 19.3906L26.9061 92.9756L79.8872 81.5877L64.1264 8.00269Z" fill="#FAFAFA"/>
<path d="M50.1637 7.66699L23.8804 13.3164L25.2464 19.6944L51.5297 14.045L50.1637 7.66699Z" fill="url(#paint1_linear)"/>
<path d="M35.687 4.26243C33.6578 4.69907 32.3739 6.73978 32.8203 8.82007C33.2667 10.9004 35.2722 12.2353 37.2975 11.7987C39.3227 11.3621 40.6106 9.32134 40.1642 7.24106C39.7178 5.16077 37.7162 3.82579 35.687 4.26243ZM36.9604 10.2118C36.5315 10.3142 36.0819 10.2864 35.6688 10.132C35.2558 9.9775 34.898 9.70332 34.6411 9.34439C34.3842 8.98545 34.2398 8.55801 34.2262 8.11655C34.2127 7.67508 34.3307 7.23958 34.5652 6.86554C34.7997 6.49151 35.14 6.19588 35.5428 6.01634C35.9457 5.8368 36.3927 5.78147 36.8271 5.85741C37.2614 5.93334 37.6633 6.13711 37.9816 6.44273C38.2999 6.74835 38.5202 7.14199 38.6143 7.57348C38.6793 7.85554 38.6881 8.14769 38.6401 8.43315C38.5921 8.71862 38.4883 8.99177 38.3346 9.23692C38.1809 9.48207 37.9804 9.69439 37.7446 9.86169C37.5087 10.029 37.2422 10.148 36.9604 10.2118Z" fill="url(#paint2_linear)"/>
<path d="M49.8283 7.45299L24.0986 12.9834L25.4045 19.0802L51.1341 13.5498L49.8283 7.45299Z" fill="#F9A826"/>
<path d="M35.6871 4.26173C34.9759 4.41465 34.3259 4.77539 33.8194 5.29835C33.3128 5.82131 32.9724 6.48299 32.8413 7.19973C32.7101 7.91646 32.7941 8.65606 33.0825 9.32501C33.3709 9.99396 33.8509 10.5622 34.4617 10.9579C35.0725 11.3536 35.7867 11.5589 36.5141 11.548C37.2414 11.5371 37.9491 11.3103 38.5478 10.8965C39.1465 10.4826 39.6092 9.90018 39.8775 9.22287C40.1457 8.54556 40.2075 7.80376 40.0549 7.09129C39.9536 6.61818 39.7603 6.16969 39.4859 5.77144C39.2116 5.37319 38.8616 5.03297 38.456 4.77022C38.0504 4.50747 37.5971 4.32732 37.122 4.24007C36.6469 4.15283 36.1593 4.16019 35.6871 4.26173ZM36.9038 9.94724C36.4933 10.0355 36.0659 9.99978 35.6756 9.84467C35.2854 9.68956 34.9498 9.422 34.7113 9.07583C34.4729 8.72966 34.3423 8.32042 34.336 7.89987C34.3297 7.47933 34.4481 7.06637 34.6761 6.71321C34.9041 6.36005 35.2316 6.08257 35.617 5.91585C36.0025 5.74912 36.4286 5.70065 36.8416 5.77657C37.2545 5.85248 37.6357 6.04936 37.937 6.34232C38.2382 6.63528 38.446 7.01115 38.534 7.4224C38.652 7.97377 38.5465 8.54951 38.2408 9.02299C37.9351 9.49648 37.4542 9.82893 36.9038 9.94724Z" fill="#F9A826"/>
<path d="M91.5067 15.4219H33.9592V95.0743H91.5067V15.4219Z" fill="#E0E0E0"/>
<g opacity="0.5">
<path opacity="0.5" d="M90.5352 16.7686H34.9326V93.7287H90.5352V16.7686Z" fill="url(#paint3_linear)"/>
</g>
<path d="M89.8266 17.3359H35.6396V92.5957H89.8266V17.3359Z" fill="white"/>
<path d="M76.245 14.0723H49.3635V20.5954H76.245V14.0723Z" fill="url(#paint4_linear)"/>
<path d="M62.8043 7.70508C60.729 7.70508 59.0461 9.43052 59.0461 11.5596C59.0461 13.6887 60.729 15.4142 62.8043 15.4142C64.8796 15.4142 66.5625 13.6887 66.5625 11.5596C66.5625 9.43052 64.8796 7.70508 62.8043 7.70508ZM62.8043 13.7837C62.3631 13.7942 61.9288 13.6727 61.5569 13.4348C61.1849 13.1969 60.8922 12.8533 60.716 12.4479C60.5399 12.0426 60.4883 11.5938 60.5679 11.159C60.6476 10.7241 60.8548 10.3229 61.163 10.0066C61.4713 9.69023 61.8668 9.47311 62.2988 9.38293C62.7308 9.29275 63.1799 9.3336 63.5887 9.50027C63.9974 9.66695 64.3473 9.95187 64.5937 10.3187C64.8401 10.6855 64.9717 11.1175 64.9718 11.5596C64.976 12.1407 64.7504 12.6998 64.3442 13.1146C63.938 13.5294 63.3843 13.7662 62.8043 13.7731V13.7837Z" fill="url(#paint5_linear)"/>
<path d="M75.9618 13.793H49.6465V20.0286H75.9618V13.793Z" fill="#F9A826"/>
<path d="M62.8043 7.70508C62.0769 7.70508 61.3658 7.92116 60.761 8.32601C60.1562 8.73085 59.6848 9.30627 59.4064 9.9795C59.1281 10.6527 59.0552 11.3935 59.1971 12.1082C59.339 12.8229 59.6893 13.4794 60.2037 13.9947C60.7181 14.51 61.3734 14.8609 62.0868 15.003C62.8003 15.1452 63.5398 15.0722 64.2118 14.7934C64.8838 14.5145 65.4583 14.0423 65.8624 13.4364C66.2665 12.8305 66.4822 12.1181 66.4822 11.3894C66.4822 10.4123 66.0947 9.47516 65.405 8.7842C64.7153 8.09325 63.7798 7.70508 62.8043 7.70508ZM62.8043 13.5159C62.3848 13.5154 61.9749 13.3904 61.6263 13.1566C61.2777 12.9229 61.006 12.5909 60.8456 12.2026C60.6852 11.8143 60.6432 11.3871 60.725 10.9749C60.8068 10.5627 61.0086 10.1841 61.3051 9.88674C61.6015 9.58941 61.9793 9.38673 62.3906 9.3043C62.8019 9.22187 63.2285 9.26338 63.6163 9.42359C64.0041 9.58381 64.3358 9.85554 64.5696 10.2045C64.8033 10.5534 64.9286 10.9639 64.9297 11.3842C64.9295 11.6635 64.8744 11.9401 64.7675 12.1981C64.6606 12.4561 64.5039 12.6905 64.3066 12.8879C64.1092 13.0852 63.8749 13.2417 63.6172 13.3483C63.3594 13.4549 63.0832 13.5097 62.8043 13.5093V13.5159Z" fill="#F9A826"/>
<g opacity="0.5">
<path opacity="0.5" d="M2.50587 97.2275H2.01074V100.041H2.50587V97.2275Z" fill="#47E6B1"/>
<path opacity="0.5" d="M3.66357 98.8827V98.3867H0.854811V98.8827H3.66357Z" fill="#47E6B1"/>
</g>
<g opacity="0.5">
<path opacity="0.5" d="M59.948 0H59.4529V2.81373H59.948V0Z" fill="#47E6B1"/>
<path opacity="0.5" d="M61.1057 1.65419V1.1582L58.2969 1.1582V1.65419L61.1057 1.65419Z" fill="#47E6B1"/>
</g>
<path opacity="0.5" d="M101.537 101.912C101.401 101.853 101.291 101.745 101.228 101.609C101.166 101.474 101.155 101.32 101.199 101.177C101.206 101.156 101.21 101.133 101.212 101.11C101.216 101.045 101.199 100.98 101.163 100.925C101.127 100.87 101.075 100.829 101.013 100.806C100.952 100.783 100.885 100.781 100.823 100.799C100.76 100.818 100.705 100.856 100.665 100.908C100.652 100.927 100.64 100.947 100.631 100.968C100.572 101.104 100.464 101.215 100.329 101.277C100.194 101.34 100.04 101.35 99.8977 101.307C99.8759 101.3 99.8534 101.295 99.8305 101.294C99.7653 101.29 99.7006 101.307 99.6459 101.343C99.5912 101.378 99.5494 101.431 99.5268 101.492C99.5042 101.554 99.502 101.621 99.5204 101.684C99.5388 101.746 99.5769 101.802 99.6291 101.841C99.6474 101.855 99.6673 101.866 99.6883 101.875C99.8249 101.935 99.9348 102.043 99.9972 102.178C100.06 102.314 100.07 102.467 100.027 102.61C100.02 102.632 100.015 102.654 100.014 102.677C100.01 102.743 100.027 102.807 100.063 102.862C100.098 102.917 100.151 102.959 100.212 102.982C100.273 103.004 100.34 103.006 100.403 102.988C100.466 102.97 100.521 102.931 100.56 102.879C100.574 102.861 100.585 102.841 100.594 102.82C100.654 102.683 100.761 102.573 100.897 102.51C101.032 102.448 101.185 102.437 101.328 102.481C101.35 102.488 101.372 102.492 101.395 102.494C101.46 102.498 101.525 102.481 101.58 102.445C101.634 102.409 101.676 102.357 101.699 102.295C101.721 102.234 101.723 102.167 101.705 102.104C101.687 102.041 101.649 101.986 101.596 101.946C101.578 101.933 101.558 101.921 101.537 101.912Z" fill="#4D8AF0"/>
<path opacity="0.5" d="M17.9969 74.8614C17.8603 74.8019 17.7503 74.6941 17.6879 74.5586C17.6255 74.4231 17.615 74.2694 17.6584 74.1267C17.6654 74.1048 17.6699 74.0822 17.6716 74.0594C17.6755 73.994 17.6584 73.9292 17.6226 73.8744C17.5869 73.8196 17.5345 73.7778 17.4732 73.7551C17.4119 73.7325 17.3449 73.7302 17.2822 73.7487C17.2196 73.7671 17.1645 73.8053 17.1251 73.8575C17.1114 73.8759 17.0999 73.8958 17.0909 73.9169C17.0314 74.0537 16.9238 74.1639 16.7886 74.2264C16.6534 74.2889 16.4999 74.2994 16.3574 74.2559C16.3356 74.2489 16.3131 74.2445 16.2903 74.2427C16.225 74.2388 16.1603 74.256 16.1056 74.2918C16.0509 74.3276 16.0092 74.3801 15.9866 74.4415C15.964 74.5029 15.9617 74.57 15.9801 74.6328C15.9985 74.6956 16.0366 74.7508 16.0888 74.7902C16.1071 74.8039 16.127 74.8154 16.148 74.8245C16.2846 74.884 16.3945 74.9918 16.457 75.1273C16.5194 75.2628 16.5299 75.4165 16.4865 75.5592C16.4795 75.5811 16.475 75.6037 16.4733 75.6265C16.4694 75.6919 16.4865 75.7567 16.5223 75.8115C16.558 75.8663 16.6104 75.9081 16.6717 75.9308C16.733 75.9534 16.8 75.9557 16.8626 75.9372C16.9253 75.9188 16.9804 75.8806 17.0198 75.8284C17.0335 75.81 17.045 75.79 17.054 75.769C17.1135 75.6322 17.221 75.522 17.3563 75.4595C17.4915 75.397 17.645 75.3865 17.7875 75.43C17.8093 75.437 17.8318 75.4414 17.8546 75.4432C17.9199 75.4471 17.9846 75.4299 18.0393 75.3941C18.094 75.3583 18.1357 75.3058 18.1583 75.2444C18.1809 75.183 18.1832 75.1159 18.1648 75.0531C18.1464 74.9903 18.1083 74.9351 18.0561 74.8957C18.0378 74.882 18.0179 74.8705 17.9969 74.8614Z" fill="#FDD835"/>
<path opacity="0.5" d="M87.5789 8.99423C87.4423 8.93467 87.3324 8.8269 87.27 8.69142C87.2076 8.55594 87.1971 8.4022 87.2405 8.25946C87.2475 8.23763 87.2519 8.21505 87.2536 8.19219C87.2576 8.12686 87.2404 8.06199 87.2047 8.0072C87.1689 7.9524 87.1165 7.91059 87.0552 7.88795C86.9939 7.86531 86.927 7.86305 86.8643 7.88149C86.8016 7.89993 86.7465 7.93811 86.7072 7.99036C86.6935 8.00874 86.682 8.02866 86.6729 8.04972C86.6135 8.18653 86.5059 8.29667 86.3706 8.35918C86.2354 8.42169 86.0819 8.43221 85.9394 8.38874C85.9176 8.38173 85.8951 8.3773 85.8723 8.37555C85.8071 8.37161 85.7423 8.38882 85.6876 8.42462C85.6329 8.46041 85.5912 8.5129 85.5686 8.57431C85.546 8.63572 85.5437 8.70279 85.5621 8.76559C85.5805 8.82839 85.6187 8.88358 85.6708 8.923C85.6892 8.93671 85.709 8.94822 85.7301 8.95729C85.8666 9.01685 85.9766 9.12462 86.039 9.2601C86.1014 9.39558 86.1119 9.54932 86.0685 9.69206C86.0615 9.71389 86.0571 9.73647 86.0553 9.75933C86.0514 9.82467 86.0686 9.88953 86.1043 9.94432C86.14 9.99912 86.1924 10.0409 86.2537 10.0636C86.315 10.0862 86.382 10.0885 86.4447 10.07C86.5074 10.0516 86.5625 10.0134 86.6018 9.96116C86.6155 9.94279 86.627 9.92286 86.636 9.9018C86.6955 9.76499 86.8031 9.65485 86.9383 9.59234C87.0736 9.52983 87.227 9.51931 87.3695 9.56278C87.3913 9.5698 87.4138 9.57422 87.4367 9.57597C87.5019 9.57991 87.5666 9.5627 87.6213 9.5269C87.676 9.49111 87.7178 9.43862 87.7404 9.37721C87.763 9.3158 87.7652 9.24873 87.7468 9.18593C87.7284 9.12313 87.6903 9.06794 87.6381 9.02853C87.6198 9.01481 87.5999 9.0033 87.5789 8.99423Z" fill="#FDD835"/>
<path opacity="0.5" d="M107.01 42.4769C107.557 42.4769 108.001 42.0321 108.001 41.4835C108.001 40.935 107.557 40.4902 107.01 40.4902C106.462 40.4902 106.018 40.935 106.018 41.4835C106.018 42.0321 106.462 42.4769 107.01 42.4769Z" fill="#F55F44"/>
<path opacity="0.5" d="M30.3829 99.4866C30.9305 99.4866 31.3745 99.0419 31.3745 98.4933C31.3745 97.9447 30.9305 97.5 30.3829 97.5C29.8353 97.5 29.3914 97.9447 29.3914 98.4933C29.3914 99.0419 29.8353 99.4866 30.3829 99.4866Z" fill="#F55F44"/>
<path opacity="0.5" d="M96.8268 63.9466C97.3744 63.9466 97.8183 63.5019 97.8183 62.9533C97.8183 62.4047 97.3744 61.96 96.8268 61.96C96.2791 61.96 95.8352 62.4047 95.8352 62.9533C95.8352 63.5019 96.2791 63.9466 96.8268 63.9466Z" fill="#F55F44"/>
<path opacity="0.5" d="M11.4747 13.7034C12.0223 13.7034 12.4663 13.2587 12.4663 12.7101C12.4663 12.1615 12.0223 11.7168 11.4747 11.7168C10.9271 11.7168 10.4832 12.1615 10.4832 12.7101C10.4832 13.2587 10.9271 13.7034 11.4747 13.7034Z" fill="#4D8AF0"/>
<path opacity="0.5" d="M0.991563 40.8001C1.53919 40.8001 1.98313 40.3554 1.98313 39.8068C1.98313 39.2582 1.53919 38.8135 0.991563 38.8135C0.443938 38.8135 0 39.2582 0 39.8068C0 40.3554 0.443938 40.8001 0.991563 40.8001Z" fill="#47E6B1"/>
</g>
<defs>
<linearGradient id="paint0_linear" x1="53.6341" y1="88.3903" x2="37.4627" y2="13.1545" gradientUnits="userSpaceOnUse">
<stop stop-color="#808080" stop-opacity="0.25"/>
<stop offset="0.54" stop-color="#808080" stop-opacity="0.12"/>
<stop offset="1" stop-color="#808080" stop-opacity="0.1"/>
</linearGradient>
<linearGradient id="paint1_linear" x1="14459.5" y1="-1886.23" x2="14391.7" y2="-2201.57" gradientUnits="userSpaceOnUse">
<stop stop-color="#808080" stop-opacity="0.25"/>
<stop offset="0.54" stop-color="#808080" stop-opacity="0.12"/>
<stop offset="1" stop-color="#808080" stop-opacity="0.1"/>
</linearGradient>
<linearGradient id="paint2_linear" x1="4222.21" y1="215.148" x2="4127.65" y2="-224.782" gradientUnits="userSpaceOnUse">
<stop stop-color="#808080" stop-opacity="0.25"/>
<stop offset="0.54" stop-color="#808080" stop-opacity="0.12"/>
<stop offset="1" stop-color="#808080" stop-opacity="0.1"/>
</linearGradient>
<linearGradient id="paint3_linear" x1="26524" y1="54699.2" x2="26524" y2="9799.94" gradientUnits="userSpaceOnUse">
<stop stop-color="#808080" stop-opacity="0.25"/>
<stop offset="0.54" stop-color="#808080" stop-opacity="0.12"/>
<stop offset="1" stop-color="#808080" stop-opacity="0.1"/>
</linearGradient>
<linearGradient id="paint4_linear" x1="12870.2" y1="1032.53" x2="12870.2" y2="709.964" gradientUnits="userSpaceOnUse">
<stop stop-color="#808080" stop-opacity="0.25"/>
<stop offset="0.54" stop-color="#808080" stop-opacity="0.12"/>
<stop offset="1" stop-color="#808080" stop-opacity="0.1"/>
</linearGradient>
<linearGradient id="paint5_linear" x1="5071.43" y1="1367.51" x2="5071.43" y2="916.99" gradientUnits="userSpaceOnUse">
<stop stop-color="#808080" stop-opacity="0.25"/>
<stop offset="0.54" stop-color="#808080" stop-opacity="0.12"/>
<stop offset="1" stop-color="#808080" stop-opacity="0.1"/>
</linearGradient>
<clipPath id="clip0">
<rect width="108" height="103" fill="white"/>
</clipPath>
</defs>
</svg>
