<svg width="452" height="250" viewBox="0 0 452 250" fill="none" xmlns="http://www.w3.org/2000/svg">
<path d="M98.0532 54.5049C92.9518 34.8714 102.43 15.4559 119.244 11.0957L98.0532 54.5049Z" fill="#414BB2"/>
<path d="M72 25.6465C76.7919 44.089 88.4442 56.9964 98.0523 54.5048L72 25.6465Z" fill="#414BB2"/>
<path d="M98.0529 54.5054C91.5345 29.4181 101.986 5.03973 121.421 0L98.0529 54.5054Z" fill="#726F97"/>
<path d="M92.3828 56.2401C92.3828 56.2401 96.2177 55.1187 97.1675 53.9877C98.1172 52.8568 102.642 50.6272 103.276 51.8815C103.91 53.1358 110.803 56.9859 106.448 58.1529C102.093 59.3199 96.1303 60.1035 94.7837 59.6974C93.437 59.2913 92.3828 56.2401 92.3828 56.2401Z" fill="#A8A8A8"/>
<path opacity="0.2" d="M106.406 57.6696C102.05 58.8365 96.088 59.6202 94.7413 59.2141C93.7157 58.9049 92.8604 57.0627 92.5106 56.2012C92.4297 56.2259 92.3828 56.2397 92.3828 56.2397C92.3828 56.2397 93.437 59.2909 94.7837 59.697C96.1303 60.1031 102.093 59.3194 106.448 58.1525C107.705 57.8156 108.024 57.255 107.828 56.5979C107.757 57.044 107.341 57.4188 106.406 57.6696Z" fill="#353454"/>
<path d="M101.362 41.6582H300.8C305.495 41.6582 309.3 45.4638 309.3 50.1582V157.805C309.3 162.5 305.495 166.305 300.8 166.305H101.362C96.6679 166.305 92.8623 162.5 92.8623 157.805V50.1582C92.8623 45.4638 96.6679 41.6582 101.362 41.6582Z" fill="white" stroke="#DFE0F2" stroke-width="3"/>
<path opacity="0.3" d="M230.483 63.1074H112.158V145.576H230.483V63.1074Z" fill="#E5E7F5"/>
<path d="M273.509 65.2578H237.653V70.9948H273.509V65.2578Z" fill="#414BB2"/>
<path d="M289.286 77.4492H237.653V83.1862H289.286V77.4492Z" fill="#414BB2" fill-opacity="0.17"/>
<path d="M273.509 89.6406H237.653V95.3776H273.509V89.6406Z" fill="#414BB2" fill-opacity="0.17"/>
<path d="M273.509 126.213H237.653V131.95H273.509V126.213Z" fill="#414BB2" fill-opacity="0.17"/>
<path d="M289.286 101.832H237.653V107.569H289.286V101.832Z" fill="#414BB2" fill-opacity="0.17"/>
<path d="M289.286 114.021H237.653V119.758H289.286V114.021Z" fill="#414BB2" fill-opacity="0.17"/>
<path d="M267.131 138.404H237.653V144.141H267.131V138.404Z" fill="#E6E4FF"/>
<path d="M178.835 86.6361C181.966 89.7348 183.926 93.8023 184.386 98.1581C184.847 102.514 183.78 106.894 181.365 110.566C181.787 110.913 182.138 111.295 182.63 111.642C183.332 112.198 184.281 112.893 185.476 113.692C186.67 114.525 187.443 115.046 187.794 115.324C189.27 116.401 190.359 117.304 191.097 118.033C192.221 119.144 193.205 120.29 194.048 121.506C194.927 122.722 195.594 123.902 196.121 125.118C196.613 126.334 196.859 127.48 196.754 128.591C196.683 129.703 196.262 130.64 195.489 131.404C194.716 132.168 193.767 132.585 192.643 132.655C191.554 132.724 190.359 132.516 189.165 131.995C187.935 131.509 186.705 130.814 185.511 129.946C184.281 129.112 183.122 128.14 181.997 127.028C181.26 126.299 180.346 125.222 179.292 123.798C178.941 123.347 178.414 122.583 177.641 121.506C176.868 120.395 176.235 119.526 175.673 118.797C175.111 118.102 174.654 117.581 174.127 117.06C170.481 118.948 166.32 119.636 162.25 119.024C158.181 118.411 154.415 116.531 151.501 113.657C143.983 106.19 143.983 94.0685 151.501 86.6361C153.295 84.8605 155.426 83.4519 157.771 82.4909C160.116 81.5298 162.63 81.0352 165.168 81.0352C167.707 81.0352 170.221 81.5298 172.566 82.4909C174.911 83.4519 177.041 84.8605 178.835 86.6361ZM173.881 108.725C176.177 106.439 177.465 103.35 177.465 100.129C177.465 96.9086 176.177 93.8187 173.881 91.5331C172.741 90.4022 171.386 89.5048 169.893 88.8926C168.401 88.2803 166.801 87.9651 165.186 87.9651C163.57 87.9651 161.971 88.2803 160.478 88.8926C158.986 89.5048 157.631 90.4022 156.49 91.5331C155.346 92.6608 154.438 94.0005 153.819 95.4756C153.2 96.9506 152.881 98.532 152.881 100.129C152.881 101.726 153.2 103.308 153.819 104.783C154.438 106.258 155.346 107.597 156.49 108.725C157.631 109.856 158.986 110.753 160.478 111.366C161.971 111.978 163.57 112.293 165.186 112.293C166.801 112.293 168.401 111.978 169.893 111.366C171.386 110.753 172.741 109.856 173.881 108.725Z" fill="#A7AAE5"/>
<path d="M178.836 82.3333C181.967 85.432 183.927 89.4995 184.387 93.8554C184.848 98.2113 183.781 102.591 181.366 106.263C181.788 106.61 182.139 106.992 182.631 107.34C183.333 107.895 184.282 108.59 185.477 109.389C186.671 110.222 187.444 110.743 187.795 111.021C189.271 112.098 190.36 113.001 191.098 113.73C192.222 114.842 193.206 115.988 194.049 117.203C194.928 118.419 195.595 119.6 196.122 120.815C196.614 122.031 196.86 123.177 196.755 124.288C196.684 125.4 196.263 126.338 195.49 127.102C194.717 127.866 193.768 128.282 192.644 128.352C191.555 128.421 190.36 128.213 189.166 127.692C187.936 127.206 186.706 126.511 185.512 125.643C184.282 124.809 183.123 123.837 181.998 122.725C181.261 121.996 180.347 120.919 179.293 119.496C178.942 119.044 178.415 118.28 177.642 117.203C176.869 116.092 176.236 115.224 175.674 114.494C175.112 113.8 174.655 113.279 174.128 112.758C170.482 114.645 166.321 115.333 162.251 114.721C158.182 114.109 154.416 112.229 151.502 109.354C143.984 101.887 143.984 89.7658 151.502 82.3333C153.296 80.5578 155.427 79.1492 157.772 78.1881C160.117 77.2271 162.631 76.7324 165.169 76.7324C167.708 76.7324 170.222 77.2271 172.567 78.1881C174.912 79.1492 177.042 80.5578 178.836 82.3333ZM173.882 104.422C176.178 102.137 177.466 99.0468 177.466 95.8263C177.466 92.6058 176.178 89.5159 173.882 87.2304C172.742 86.0994 171.386 85.2021 169.894 84.5898C168.402 83.9776 166.802 83.6624 165.187 83.6624C163.571 83.6624 161.972 83.9776 160.479 84.5898C158.987 85.2021 157.632 86.0994 156.491 87.2304C155.347 88.358 154.439 89.6978 153.82 91.1728C153.201 92.6479 152.882 94.2292 152.882 95.8263C152.882 97.4234 153.201 99.0048 153.82 100.48C154.439 101.955 155.347 103.295 156.491 104.422C157.632 105.553 158.987 106.451 160.479 107.063C161.972 107.675 163.571 107.99 165.187 107.99C166.802 107.99 168.402 107.675 169.894 107.063C171.386 106.451 172.742 105.553 173.882 104.422Z" fill="#DFE0F2"/>
<path d="M350.999 200.998C350.999 203.245 340.513 205.3 323.177 206.878C320.025 207.164 316.646 207.434 313.064 207.688C309.968 207.908 306.723 208.114 303.33 208.307C300.042 208.491 296.629 208.662 293.089 208.82C281.909 209.321 269.552 209.681 256.423 209.861C253.238 209.904 250.009 209.938 246.737 209.963C243.33 209.986 239.884 209.998 236.399 209.998C173.107 209.998 121.799 205.97 121.799 200.998C121.799 196.026 173.107 191.998 236.399 191.998C263.646 191.998 288.671 192.746 308.338 193.991C309.062 194.038 309.779 194.083 310.488 194.128C310.493 194.131 310.497 194.132 310.502 194.132C335.276 195.784 350.999 198.246 350.999 200.998Z" fill="#B6B4BA"/>
<path d="M341.999 199.498C341.999 201.371 332.228 203.083 316.072 204.398C313.135 204.635 309.985 204.86 306.648 205.073C303.763 205.255 300.739 205.426 297.577 205.587C294.512 205.742 291.331 205.885 288.033 206.015C277.613 206.434 266.096 206.733 253.861 206.883C250.893 206.919 247.884 206.947 244.834 206.967C241.659 206.988 238.447 206.999 235.2 206.998C176.215 206.998 128.399 203.64 128.399 199.498C128.399 195.356 176.215 191.998 235.2 191.998C248.243 191.998 260.739 192.163 272.293 192.464H272.322C283.25 192.749 293.335 193.156 302.243 193.66C302.918 193.698 303.586 193.736 304.247 193.773C304.251 193.776 304.256 193.778 304.261 193.777C308.341 194.021 312.159 194.284 315.677 194.567C315.716 194.569 315.755 194.574 315.793 194.576C332.117 195.894 341.999 197.613 341.999 199.498Z" fill="#BDBCC1"/>
<path d="M361.394 191.513C360.839 203.281 349.209 200.586 335.634 202.021C321.292 203.537 310.04 209.106 307.815 195.047C321.294 193.91 333.749 193.006 344.765 192.353C345.6 192.303 346.426 192.254 347.243 192.205C347.249 192.208 347.255 192.209 347.261 192.208C352.308 191.921 357.034 191.688 361.394 191.513Z" fill="#B6B4BA"/>
<path d="M198.2 190.774C198.2 194.972 195.707 196.437 192.631 196.437C192.56 196.437 192.489 196.436 192.418 196.435C192.275 196.432 192.134 196.425 191.995 196.415C189.219 196.219 187.062 194.678 187.062 190.774C187.062 186.735 192.22 181.637 192.608 181.259L192.609 181.258C192.623 181.244 192.631 181.236 192.631 181.236C192.631 181.236 198.2 186.577 198.2 190.774Z" fill="#414BB2"/>
<path d="M192.428 195.795L194.464 192.947L192.423 196.108L192.417 196.435C192.275 196.432 192.133 196.425 191.994 196.415L192.213 192.216L192.212 192.183L192.215 192.177L192.236 191.78L190.189 188.612L192.243 191.483L192.248 191.567L192.413 188.394L190.661 185.12L192.435 187.837L192.608 181.259L192.608 181.236V181.258L192.579 186.446L194.324 184.389L192.572 186.893L192.526 189.733L194.155 187.007L192.519 190.152L192.494 191.731L194.858 187.936L192.485 192.282L192.428 195.795Z" fill="#726F97"/>
<path d="M356.103 174.633C345.462 182.595 342.461 196.583 342.461 196.583C342.461 196.583 356.714 197.662 367.356 189.7C377.997 181.738 380.998 167.75 380.998 167.75C380.998 167.75 366.745 166.671 356.103 174.633Z" fill="#726F97"/>
<path d="M342.469 196.447C342.469 196.447 342.313 196.359 342.03 196.186C341.805 196.047 341.495 195.853 341.121 195.606C337.777 193.401 329.115 186.914 325.561 176.905C321.116 164.373 326.365 151.066 326.365 151.066C326.365 151.066 337.816 157.51 342.68 169.083C342.892 169.581 343.088 170.09 343.273 170.608C347.141 181.512 343.669 193.002 342.703 195.803C342.557 196.223 342.469 196.447 342.469 196.447Z" fill="#414BB2"/>
<path d="M342.522 196.843L342.359 196.725C342.242 196.641 330.693 188.148 327.725 175.275C324.757 162.402 331.421 149.703 331.489 149.576L331.584 149.398L331.747 149.517C331.863 149.601 343.413 158.094 346.38 170.967C349.348 183.84 342.684 196.539 342.616 196.666L342.522 196.843ZM331.705 149.925C330.904 151.525 325.323 163.293 328.067 175.196C330.811 187.1 340.98 195.23 342.4 196.317C343.201 194.717 348.782 182.949 346.038 171.046C343.294 159.142 333.125 151.012 331.705 149.925Z" fill="#726F97"/>
<path opacity="0.1" d="M342.702 195.804C342.443 195.956 342.216 196.083 342.03 196.187C341.62 196.411 341.392 196.524 341.392 196.524C341.392 196.524 341.284 196.2 341.121 195.607C340.22 192.364 337.641 181.062 341.958 170.68C342.185 170.137 342.425 169.604 342.68 169.084C342.892 169.582 343.088 170.091 343.272 170.609C347.141 181.513 343.669 193.003 342.702 195.804Z" fill="#353454"/>
<path d="M360.545 178.358C355.442 190.636 342.629 196.976 342.629 196.976C342.629 196.976 338.089 183.41 343.193 171.132C348.296 158.854 361.11 152.514 361.11 152.514C361.11 152.514 365.649 166.08 360.545 178.358Z" fill="#414BB2"/>
<path d="M308.18 191.071C308.18 179.419 316.988 169.973 327.854 169.973C338.72 169.973 347.528 179.419 347.528 191.071C347.528 202.724 338.72 199.335 327.854 199.335C316.988 199.335 308.18 202.724 308.18 191.071Z" fill="#726F97"/>
<path d="M158.735 168.785H158.253V201.366H158.735V168.785Z" fill="#726F97"/>
<path d="M158.493 173.391C161.035 173.391 163.096 171.328 163.096 168.783C163.096 166.239 161.035 164.176 158.493 164.176C155.951 164.176 153.89 166.239 153.89 168.783C153.89 171.328 155.951 173.391 158.493 173.391Z" fill="#726F97"/>
<path d="M158.493 188.865C158.493 188.865 157.835 174.708 144.354 176.354L158.493 188.865Z" fill="#726F97"/>
<path d="M292.53 174.146C292.65 174.572 292.784 174.994 292.928 175.413C292.285 174.781 291.654 174.131 291.011 173.503C291.269 173.583 291.526 173.663 291.769 173.759C292.034 173.864 292.289 173.994 292.53 174.146ZM289.416 172.034C285.627 168.736 281.236 166.183 277.353 162.986C279.474 164.03 281.536 165.247 283.582 166.414C286.009 167.798 288.465 169.128 290.95 170.404C290.545 171.038 290.025 171.591 289.416 172.034ZM291.037 163.73C291.097 163.669 291.157 163.607 291.218 163.544C291.22 164.013 291.223 164.451 291.229 164.848C290.889 164.736 290.551 164.62 290.213 164.502C290.504 164.262 290.779 164.004 291.037 163.73ZM257.66 172.658C259.222 170.893 260.578 168.956 261.703 166.885C263.208 169.515 265.652 171.412 267.731 173.615C264.381 173.172 261.026 172.807 257.66 172.658Z" fill="url(#paint0_linear)"/>
<path d="M150.04 197.039C150.04 201.237 147.547 202.703 144.471 202.703C144.4 202.703 144.328 202.702 144.258 202.7C144.115 202.697 143.974 202.69 143.834 202.681C141.059 202.484 138.902 200.943 138.902 197.039C138.902 193 144.059 187.903 144.448 187.525L144.448 187.524C144.463 187.509 144.471 187.502 144.471 187.502C144.471 187.502 150.04 192.842 150.04 197.039Z" fill="#414BB2"/>
<path d="M144.268 202.061L146.305 199.212L144.263 202.373L144.258 202.7C144.116 202.697 143.974 202.69 143.835 202.681L144.054 198.481L144.053 198.449L144.056 198.443L144.077 198.046L142.03 194.877L144.083 197.748L144.089 197.832L144.254 194.66L142.502 191.385L144.276 194.103L144.448 187.525L144.449 187.502V187.524L144.42 192.711L146.165 190.655L144.413 193.158L144.367 195.999L145.996 193.273L144.36 196.417L144.335 197.997L146.699 194.202L144.325 198.548L144.268 202.061Z" fill="#726F97"/>
<path d="M152.862 163.643C154.192 163.643 155.27 162.564 155.27 161.232C155.27 159.901 154.192 158.822 152.862 158.822C151.532 158.822 150.454 159.901 150.454 161.232C150.454 162.564 151.532 163.643 152.862 163.643Z" fill="#414BB2"/>
<path d="M307.694 127.497C307.694 127.497 316.429 125.562 317.392 133.274C318.356 140.987 312.753 142.443 312.753 142.443L309.205 143.397L295.479 139.782L297.406 134.238L307.694 127.497Z" fill="#53526B"/>
<path d="M304.547 127.924C311.067 127.924 316.352 122.634 316.352 116.108C316.352 109.583 311.067 104.293 304.547 104.293C298.027 104.293 292.742 109.583 292.742 116.108C292.742 122.634 298.027 127.924 304.547 127.924Z" fill="#53526B"/>
<path d="M263.065 140.643L265.464 141.125L273.619 153.195L270.021 153.678L263.065 140.643Z" fill="#53526B"/>
<path d="M205.049 189.613C205.695 191.744 206.492 193.825 207.432 195.843C210.136 195.277 212.795 194.518 215.39 193.574C215.47 193.544 213.902 191.491 213.737 191.323C213.116 190.691 212.311 189.951 211.49 189.593C210.662 189.233 209.641 189.508 208.755 189.553C207.52 189.616 206.285 189.636 205.049 189.613Z" fill="#FBBEBE"/>
<path d="M211.504 192.836C210.152 192.413 209.33 191.051 208.781 189.738C208.231 188.425 207.787 186.993 206.744 186.029C206.345 186.048 206.023 186.373 205.825 186.723C205.627 187.074 205.51 187.468 205.281 187.799C204.846 188.428 204.081 188.732 203.535 189.265C202.961 189.824 202.648 190.616 202.054 191.153C201.309 191.828 200.255 191.996 199.277 192.219C197.764 192.565 196.303 193.107 194.931 193.832C194.426 194.137 193.885 194.38 193.321 194.554C192.701 194.674 192.065 194.695 191.438 194.617L187.114 194.309C186.729 194.259 186.339 194.276 185.96 194.359C185.071 194.609 184.519 195.602 184.584 196.529C184.65 197.455 185.226 198.286 185.953 198.857C186.705 199.396 187.536 199.818 188.415 200.106C192.182 201.529 196.06 202.638 200.009 203.421L200.012 204.278C202.758 205.629 205.777 206.333 208.837 206.335C209.064 206.352 209.291 206.312 209.498 206.22C209.802 206.055 209.942 205.7 210.054 205.372C211.092 202.336 211.699 199.169 211.858 195.963C211.935 195.151 211.872 194.331 211.672 193.54C211.436 192.76 212.247 193.088 211.497 192.783" fill="#53526B"/>
<path d="M294.437 176.521C281.617 177.29 268.946 173.534 256.109 173.132C254.513 173.082 252.9 173.086 251.342 173.436C249.693 173.807 248.157 174.554 246.624 175.267C239.739 178.473 232.617 181.129 225.503 183.781L217.331 186.827C215.698 187.436 214.006 188.054 212.268 187.948C211.489 187.9 210.532 187.782 210.094 188.433C208.764 190.404 209.393 193.3 210.271 195.512C210.556 196.23 211.038 197.005 211.802 197.087C212.34 197.144 212.841 196.833 213.363 196.693C214.851 196.294 216.334 197.295 217.864 197.458C219.756 197.66 221.512 196.582 223.297 195.921C226.257 194.826 229.494 194.86 232.606 194.342C237.824 193.472 242.66 191.047 247.181 188.284C248.902 187.232 250.644 186.105 252.621 185.72C254.895 185.278 257.231 185.864 259.46 186.495C264.776 188.001 270.009 189.785 275.138 191.839C277.838 192.921 280.519 194.08 283.329 194.829C289.407 196.43 295.837 196.055 301.688 193.757C303.74 192.946 305.97 191.511 306.087 189.295C306.154 188.031 305.175 186.918 304.521 185.838C304.101 185.145 303.682 184.452 303.225 183.783C301.014 180.548 298.331 176.288 294.437 176.521Z" fill="#53526B"/>
<path opacity="0.1" d="M294.437 176.521C281.617 177.29 268.946 173.534 256.109 173.132C254.513 173.082 252.9 173.086 251.342 173.436C249.693 173.807 248.157 174.554 246.624 175.267C239.739 178.473 232.617 181.129 225.503 183.781L217.331 186.827C215.698 187.436 214.006 188.054 212.268 187.948C211.489 187.9 210.532 187.782 210.094 188.433C208.764 190.404 209.393 193.3 210.271 195.512C210.556 196.23 211.038 197.005 211.802 197.087C212.34 197.144 212.841 196.833 213.363 196.693C214.851 196.294 216.334 197.295 217.864 197.458C219.756 197.66 221.512 196.582 223.297 195.921C226.257 194.826 229.494 194.86 232.606 194.342C237.824 193.472 242.66 191.047 247.181 188.284C248.902 187.232 250.644 186.105 252.621 185.72C254.895 185.278 257.231 185.864 259.46 186.495C264.776 188.001 270.009 189.785 275.138 191.839C277.838 192.921 280.519 194.08 283.329 194.829C289.407 196.43 295.837 196.055 301.688 193.757C303.74 192.946 305.97 191.511 306.087 189.295C306.154 188.031 305.175 186.918 304.521 185.838C304.101 185.145 303.682 184.452 303.225 183.783C301.014 180.548 298.331 176.288 294.437 176.521Z" fill="#353454"/>
<path d="M229.663 190.236C231.67 190.922 233.694 191.552 235.736 192.127C236.879 190.249 239.018 188.941 239.505 186.794C239.535 186.701 239.535 186.6 239.505 186.507C239.453 186.415 239.372 186.342 239.275 186.301C237.813 185.49 236.189 185.013 234.52 184.906C233.202 184.823 232.601 186.2 232.003 187.168C231.762 187.559 230.2 190.42 229.663 190.236Z" fill="#FBBEBE"/>
<path d="M232.476 188.865C231.291 188.617 230.131 187.979 229.526 186.924C229.242 186.429 228.941 185.763 228.375 185.8C227.85 185.835 227.608 186.462 227.49 186.979C227.047 188.912 226.612 190.861 225.835 192.685C225.058 194.508 223.908 196.22 222.287 197.349C221.543 197.867 220.714 198.254 219.987 198.795C219.334 199.281 218.765 199.891 218.043 200.267C217.56 200.489 217.062 200.675 216.552 200.824C215.802 201.085 215.086 201.434 214.417 201.864C213.83 202.206 213.331 202.682 212.963 203.254C212.783 203.543 212.677 203.872 212.656 204.212C212.635 204.552 212.7 204.891 212.844 205.2C212.999 205.454 213.205 205.672 213.451 205.84C213.696 206.008 213.974 206.123 214.267 206.175C214.851 206.276 215.447 206.291 216.035 206.22C218.373 206.047 220.708 205.839 223.042 205.631C224.03 205.567 225.012 205.43 225.979 205.222C226.49 205.098 226.992 204.935 227.501 204.803C228.374 204.578 229.269 204.448 230.17 204.414C230.432 204.392 230.696 204.416 230.949 204.485C231.49 204.662 231.874 205.201 232.432 205.31C232.79 205.345 233.152 205.296 233.488 205.169C235.17 204.709 236.938 204.721 238.678 204.627C239.445 204.586 240.343 204.44 240.695 203.753C241.134 202.896 240.406 201.938 240.116 201.019C239.971 200.432 239.891 199.831 239.876 199.226C239.742 197.732 239.304 196.282 238.588 194.964C237.993 193.87 237.181 192.661 237.599 191.487C237.741 191.089 238.023 190.718 237.995 190.296C237.872 188.442 233.551 189.091 232.476 188.865Z" fill="#53526B"/>
<path d="M275.213 155.935C272.941 154.933 271.121 153.123 270.104 150.856C269.89 150.369 269.714 149.86 269.508 149.368C268.836 147.735 267.79 146.281 266.455 145.125C266.121 144.842 265.73 144.571 265.322 144.645C264.931 144.716 264.623 145.104 264.488 145.539C264.374 145.986 264.345 146.451 264.404 146.91C264.518 147.99 264.703 149.061 264.959 150.117L265.581 152.95C265.657 153.386 265.787 153.811 265.967 154.215C266.235 154.692 266.589 155.115 267.01 155.464C267.578 155.987 268.154 156.496 268.74 156.992C269.554 157.773 270.616 158.246 271.741 158.327C274.287 158.8 276.876 159.48 279.024 161.143C279.001 161.125 279.015 159.243 278.978 159.027C278.88 158.457 278.803 157.892 278.432 157.507C277.599 156.64 276.227 156.386 275.213 155.935Z" fill="#FBBEBE"/>
<path opacity="0.1" d="M275.213 155.935C272.941 154.933 271.121 153.123 270.104 150.856C269.89 150.369 269.714 149.86 269.508 149.368C268.836 147.735 267.79 146.281 266.455 145.125C266.121 144.842 265.73 144.571 265.322 144.645C264.931 144.716 264.623 145.104 264.488 145.539C264.374 145.986 264.345 146.451 264.404 146.91C264.518 147.99 264.703 149.061 264.959 150.117L265.581 152.95C265.657 153.386 265.787 153.811 265.967 154.215C266.235 154.692 266.589 155.115 267.01 155.464C267.578 155.987 268.154 156.496 268.74 156.992C269.554 157.773 270.616 158.246 271.741 158.327C274.287 158.8 276.876 159.48 279.024 161.143C279.001 161.125 279.015 159.243 278.978 159.027C278.88 158.457 278.803 157.892 278.432 157.507C277.599 156.64 276.227 156.386 275.213 155.935Z" fill="#353454"/>
<path d="M301.321 134.247C303.043 134.247 304.439 132.842 304.439 131.109C304.439 129.376 303.043 127.971 301.321 127.971C299.599 127.971 298.203 129.376 298.203 131.109C298.203 132.842 299.599 134.247 301.321 134.247Z" fill="#53526B"/>
<path d="M299.39 129.212C298.544 129.118 297.604 129.049 296.926 129.567C296.566 129.885 296.278 130.277 296.082 130.716C295.43 131.941 294.788 133.19 294.459 134.54C294.181 135.685 294.135 136.883 293.79 138.01C293.151 140.1 291.513 141.864 291.325 144.044C291.242 145.019 291.405 146.16 290.694 146.829C290.518 146.976 290.331 147.109 290.134 147.226C289.641 147.557 289.223 147.987 288.906 148.489C288.64 148.913 288.435 149.399 288.035 149.696C287.401 150.166 286.348 150.118 286.035 150.846C285.714 151.594 286.529 152.426 286.341 153.218C286.187 153.863 285.468 154.159 284.973 154.597C284.339 155.159 284.049 156.006 283.785 156.814C282.742 157.011 281.669 156.98 280.639 156.723C279.609 156.466 278.647 155.989 277.818 155.324C278.689 157.47 278.708 159.838 278.745 162.156C278.758 162.907 278.734 163.751 278.198 164.275C280.68 164.328 283.102 165.001 285.524 165.549C286.583 165.788 287.732 165.996 288.719 165.543C289.273 165.246 289.769 164.852 290.183 164.378C291.501 163.041 292.883 161.581 293.206 159.726C293.386 158.686 293.211 157.619 293.259 156.565C293.318 155.258 293.717 153.996 294.059 152.734C294.758 150.152 295.227 147.512 295.459 144.847C295.603 143.202 297.022 141.878 297.77 140.408C299.18 137.633 300.622 134.743 300.728 131.628C300.763 130.586 300.42 129.327 299.39 129.212Z" fill="#53526B"/>
<path opacity="0.1" d="M299.39 129.212C298.544 129.118 297.604 129.049 296.926 129.567C296.566 129.885 296.278 130.277 296.082 130.716C295.43 131.941 294.788 133.19 294.459 134.54C294.181 135.685 294.135 136.883 293.79 138.01C293.151 140.1 291.513 141.864 291.325 144.044C291.242 145.019 291.405 146.16 290.694 146.829C290.518 146.976 290.331 147.109 290.134 147.226C289.641 147.557 289.223 147.987 288.906 148.489C288.64 148.913 288.435 149.399 288.035 149.696C287.401 150.166 286.348 150.118 286.035 150.846C285.714 151.594 286.529 152.426 286.341 153.218C286.187 153.863 285.468 154.159 284.973 154.597C284.339 155.159 284.049 156.006 283.785 156.814C282.742 157.011 281.669 156.98 280.639 156.723C279.609 156.466 278.647 155.989 277.818 155.324C278.689 157.47 278.708 159.838 278.745 162.156C278.758 162.907 278.734 163.751 278.198 164.275C280.68 164.328 283.102 165.001 285.524 165.549C286.583 165.788 287.732 165.996 288.719 165.543C289.273 165.246 289.769 164.852 290.183 164.378C291.501 163.041 292.883 161.581 293.206 159.726C293.386 158.686 293.211 157.619 293.259 156.565C293.318 155.258 293.717 153.996 294.059 152.734C294.758 150.152 295.227 147.512 295.459 144.847C295.603 143.202 297.022 141.878 297.77 140.408C299.18 137.633 300.622 134.743 300.728 131.628C300.763 130.586 300.42 129.327 299.39 129.212Z" fill="#353454"/>
<path d="M296.471 179.222C293.801 177.95 291.847 175.579 289.688 173.55C285.567 169.677 280.527 166.935 276.194 163.303C273.321 160.896 270.752 158.092 267.596 156.077C264.816 154.305 261.664 153.2 258.388 152.848C258.012 152.783 257.627 152.803 257.26 152.904C256.846 153.087 256.485 153.373 256.212 153.734C254.813 155.313 253.571 157.024 252.5 158.842C247.008 168.175 239.206 176.022 232.742 184.701C232.536 184.905 232.413 185.179 232.399 185.47C232.385 185.76 232.479 186.045 232.665 186.268L233.98 188.847C234.715 190.29 235.894 191.971 237.48 191.684C238.205 191.553 238.783 191.019 239.317 190.509L245.219 184.861L251.408 178.94C255.034 175.471 258.722 171.921 261.086 167.483C262.933 170.69 266.211 172.789 268.46 175.725C269.315 176.841 270.014 178.069 270.777 179.251C272.001 181.146 273.393 182.925 274.783 184.7L281.882 193.77C282.85 195.006 283.845 196.268 285.169 197.107C286.85 198.172 288.895 198.453 290.874 198.63C293.541 198.869 296.218 198.966 298.895 198.921C300.936 198.886 303.041 198.752 304.873 197.844C306.704 196.937 308.209 195.075 308.113 193.023C308.064 191.955 307.6 190.954 307.09 190.018C304.554 185.361 301.24 181.493 296.471 179.222Z" fill="#53526B"/>
<path d="M303.24 135.693C304.565 135.693 305.639 134.612 305.639 133.279C305.639 131.946 304.565 130.865 303.24 130.865C301.916 130.865 300.842 131.946 300.842 133.279C300.842 134.612 301.916 135.693 303.24 135.693Z" fill="#53526B"/>
<path d="M302.71 131.465C303.294 132.498 303.295 133.784 302.973 134.929C302.651 136.073 302.037 137.108 301.429 138.128C300.831 139.131 300.226 140.144 299.424 140.991C303.126 141.169 306.715 139.715 309.982 137.954C312.611 136.537 315.233 134.788 316.636 132.14C315.816 132.387 314.912 132.143 314.186 131.687C313.48 131.195 312.848 130.605 312.308 129.936L310.449 127.844C310.013 127.388 309.629 126.884 309.306 126.342C308.904 125.6 308.733 124.754 308.815 123.914C308.077 124.688 307.252 125.373 306.356 125.957C305.028 126.822 303.565 127.449 302.235 128.309C301.763 128.614 300.714 129.104 300.984 129.721C301.247 130.323 302.336 130.804 302.71 131.465Z" fill="#FBBEBE"/>
<path opacity="0.1" d="M302.71 131.465C303.294 132.498 303.295 133.784 302.973 134.929C302.651 136.073 302.037 137.108 301.429 138.128C300.831 139.131 300.226 140.144 299.424 140.991C303.126 141.169 306.715 139.715 309.982 137.954C312.611 136.537 315.233 134.788 316.636 132.14C315.816 132.387 314.912 132.143 314.186 131.687C313.48 131.195 312.848 130.605 312.308 129.936L310.449 127.844C310.013 127.388 309.629 126.884 309.306 126.342C308.904 125.6 308.733 124.754 308.815 123.914C308.077 124.688 307.252 125.373 306.356 125.957C305.028 126.822 303.565 127.449 302.235 128.309C301.763 128.614 300.714 129.104 300.984 129.721C301.247 130.323 302.336 130.804 302.71 131.465Z" fill="#353454"/>
<path d="M302.76 131.832C302.064 133.003 301.915 134.385 302.76 135.452C302.865 135.585 303.256 136.409 303.425 136.417C303.588 136.403 303.74 136.327 303.847 136.203C304.746 135.38 305.405 134.331 306.195 133.402C306.985 132.473 307.981 131.626 309.182 131.439C310.631 131.213 312.031 131.981 313.299 132.723C313.826 133.031 314.372 133.358 314.704 133.872C314.971 134.355 315.129 134.891 315.166 135.442C315.604 138.746 315.594 142.091 315.584 145.423C315.576 147.832 315.567 150.258 315.112 152.623C314.876 153.846 314.523 155.046 314.356 156.279C314.233 157.368 314.183 158.464 314.207 159.56L314.203 164.146C314.173 164.988 314.232 165.831 314.381 166.661C314.599 167.666 315.074 168.594 315.391 169.571C315.719 170.695 315.943 171.847 316.061 173.011L316.688 177.761C316.886 179.256 317.031 180.893 316.128 182.097C315.719 182.641 315.183 183.077 314.768 183.617C313.217 185.639 313.715 188.523 313.068 190.993C312.557 192.802 311.508 194.412 310.059 195.609C308.951 196.552 307.519 197.294 306.092 197.028C304.165 196.67 303.008 194.66 302.483 192.76C301.958 190.86 301.766 188.792 300.628 187.187C299.699 185.877 298.259 185.053 296.957 184.117C295.655 183.182 294.383 181.976 294.1 180.391C293.976 179.699 294.053 178.986 293.979 178.287C293.876 177.401 293.536 176.559 292.996 175.85C292.456 175.14 291.736 174.588 290.91 174.253C289.924 173.869 288.706 173.732 288.15 172.826C289.584 172.017 290.536 170.523 291.038 168.947C291.539 167.372 291.641 165.7 291.74 164.049L292.07 158.53C292.217 156.063 292.284 153.619 293.369 151.403C293.854 150.412 294.457 149.484 294.962 148.504C295.63 147.128 296.201 145.706 296.67 144.25C297.456 141.989 298.243 139.727 298.944 137.437C299.278 136.346 299.6 135.234 300.195 134.263C300.791 133.291 301.645 132.041 302.76 131.832Z" fill="#414BB2"/>
<path d="M290.516 167.686L291.975 167.738L292.286 165.531C292.326 165.09 292.431 164.657 292.595 164.245C292.835 163.809 293.116 163.397 293.433 163.014C294.869 160.984 294.765 158.288 295.12 155.821C295.595 152.531 296.968 149.451 298.326 146.421L301.158 140.103C301.723 139.03 301.994 137.826 301.942 136.615C301.967 135.638 302.256 132.084 302.281 131.107C302.29 130.746 301.485 130.947 301.321 130.624C300.966 129.923 300.48 131.825 299.817 132.243C299.154 132.66 298.787 133.416 298.506 134.151C297.895 135.743 297.522 137.416 296.954 139.024C296.385 140.631 295.589 142.21 294.31 143.329C293.728 143.838 293.058 144.241 292.509 144.785C290.747 146.529 290.575 149.283 290.513 151.769C290.476 153.247 290.191 167.686 290.516 167.686Z" fill="#53526B"/>
<path d="M311.52 129.196C310.103 129.754 309.326 131.292 308.928 132.77C308.53 134.248 308.367 135.823 307.606 137.149C305.827 140.249 301.29 141.152 300.035 144.502C299.624 145.598 299.642 146.8 299.531 147.966C299.304 150.366 298.515 152.685 298.282 155.084C298.102 156.943 298.257 158.816 298.413 160.678L299.999 179.606C300.228 182.34 300.222 185.277 299.524 187.929C301.129 188.243 302.798 187.823 304.288 187.144C305.777 186.464 307.136 185.531 308.57 184.739C311.035 183.378 313.754 182.414 315.912 180.601C316.303 180.296 316.638 179.926 316.902 179.506C317.334 178.758 317.37 177.853 317.575 177.012C317.762 176.341 318 175.686 318.286 175.052C319.076 173.144 319.765 171.196 320.349 169.216C320.75 167.901 321.067 166.563 321.297 165.208C321.47 164.129 321.564 163.039 321.657 161.95C321.772 160.246 322.11 158.563 322.664 156.947C324.043 153.092 324.824 149.049 324.979 144.957C325.026 144.366 324.986 143.772 324.86 143.192C324.672 142.474 324.248 141.846 323.901 141.19C323.242 139.948 322.846 138.581 322.224 137.319C320.819 134.469 318.338 132.307 315.738 130.496C314.461 129.606 312.967 128.627 311.52 129.196Z" fill="#53526B"/>
<path d="M278.371 160.075C277.274 159.435 276.177 158.746 275.351 157.778C274.956 157.314 274.629 156.793 274.227 156.335C273.248 155.221 271.862 154.53 270.428 154.168C268.995 153.807 267.504 153.752 266.026 153.74C265.038 153.731 264.025 153.746 263.099 154.095C262.174 154.445 261.339 155.199 261.161 156.178C260.945 157.355 261.714 158.502 262.637 159.257C263.495 159.959 264.505 160.45 265.587 160.691C266.469 160.846 267.36 160.95 268.254 161.004C273.504 161.554 278.188 164.414 282.789 167.019C286.83 169.306 290.949 171.445 295.147 173.434C295.314 172.176 295.383 170.907 295.354 169.637C295.333 168.69 295.286 167.245 294.392 166.689C293.35 166.04 291.634 165.891 290.459 165.506C287.753 164.618 285.111 163.548 282.55 162.304C281.13 161.614 279.737 160.87 278.371 160.075Z" fill="#FBBEBE"/>
<path d="M301.321 130.383C306.487 130.383 310.675 126.168 310.675 120.969C310.675 115.77 306.487 111.555 301.321 111.555C296.155 111.555 291.967 115.77 291.967 120.969C291.967 126.168 296.155 130.383 301.321 130.383Z" fill="#FBBEBE"/>
<path d="M314.196 139.87C313.36 140.845 312.942 142.101 312.381 143.258C311.226 145.639 309.414 147.682 308.507 150.17C307.55 152.793 307.582 155.914 305.706 157.975C305.379 158.334 304.986 158.679 304.891 159.156C304.835 159.439 304.894 159.742 304.796 160.013C304.527 160.762 303.303 160.799 303.074 161.562C303.007 161.785 303.045 162.032 302.962 162.249C302.774 162.742 302.124 162.817 301.689 163.113C300.781 163.729 300.964 165.162 300.316 166.051C299.804 166.754 298.837 166.99 297.979 166.87C297.121 166.751 296.335 166.34 295.553 165.964C295.284 165.812 294.987 165.719 294.68 165.689C294.318 165.702 293.967 165.822 293.673 166.034C291.945 167.133 291.134 169.312 291.146 171.369C291.158 173.427 291.864 175.409 292.587 177.333C292.686 177.658 292.848 177.96 293.064 178.222C293.637 178.828 294.635 178.73 295.395 178.393C296.156 178.056 296.847 177.525 297.666 177.377C299.113 177.114 300.528 178.11 301.996 178.028C303.072 177.968 304.024 177.342 304.918 176.736C306.345 175.769 307.798 174.778 308.846 173.406C309.489 172.566 309.959 171.609 310.519 170.711C311.239 169.61 312.028 168.555 312.882 167.553L318.275 160.945C319.572 159.533 320.464 157.797 320.859 155.921C321.372 154.16 321.888 152.378 321.977 150.545C322.05 149.037 321.831 147.53 321.585 146.04C321.343 144.573 321.067 143.09 320.424 141.751C319.252 139.315 316.399 137.299 314.196 139.87Z" fill="#53526B"/>
<path d="M317.335 112.365C323.855 112.365 329.14 107.075 329.14 100.55C329.14 94.0244 323.855 88.7344 317.335 88.7344C310.816 88.7344 305.53 94.0244 305.53 100.55C305.53 107.075 310.816 112.365 317.335 112.365Z" fill="#53526B"/>
<path d="M327.518 110.335C325.99 111.44 324.22 112.163 322.356 112.443C320.491 112.723 318.587 112.553 316.802 111.945C315.017 111.338 313.404 110.311 312.096 108.952C310.789 107.592 309.826 105.939 309.288 104.131C309.492 105.751 310.029 107.312 310.865 108.714C311.702 110.117 312.82 111.33 314.149 112.278C315.478 113.227 316.989 113.889 318.586 114.223C320.184 114.557 321.833 114.556 323.43 114.22C325.027 113.884 326.537 113.22 327.865 112.27C329.193 111.321 330.309 110.106 331.144 108.702C331.98 107.299 332.515 105.738 332.716 104.117C332.918 102.496 332.782 100.851 332.316 99.2852C332.581 101.388 332.275 103.524 331.431 105.468C330.586 107.412 329.235 109.093 327.518 110.335Z" fill="#53526B"/>
<path d="M307.694 126.742C312.475 126.742 316.351 122.862 316.351 118.077C316.351 113.291 312.475 109.412 307.694 109.412C302.913 109.412 299.037 113.291 299.037 118.077C299.037 122.862 302.913 126.742 307.694 126.742Z" fill="#53526B"/>
<path d="M300.414 120.835C304.652 120.835 308.088 118.146 308.088 114.828C308.088 111.511 304.652 108.822 300.414 108.822C296.177 108.822 292.741 111.511 292.741 114.828C292.741 118.146 296.177 120.835 300.414 120.835Z" fill="#53526B"/>
<path d="M303.362 125.638C303.878 125.218 303.786 124.25 303.157 123.476C302.528 122.701 301.599 122.414 301.084 122.833C300.568 123.253 300.66 124.222 301.289 124.996C301.918 125.771 302.846 126.058 303.362 125.638Z" fill="#FBBEBE"/>
<path d="M293.797 200.897C293.797 205.095 291.304 206.56 288.229 206.56C288.158 206.56 288.086 206.559 288.016 206.558C287.873 206.555 287.732 206.548 287.592 206.538C284.816 206.342 282.66 204.801 282.66 200.897C282.66 196.858 287.817 191.76 288.206 191.382L288.206 191.381C288.221 191.367 288.229 191.359 288.229 191.359C288.229 191.359 293.797 196.7 293.797 200.897Z" fill="#414BB2"/>
<path d="M288.026 205.918L290.063 203.07L288.021 206.231L288.016 206.558C287.874 206.555 287.732 206.548 287.593 206.538L287.812 202.339L287.811 202.306L287.814 202.3L287.835 201.903L285.788 198.735L287.841 201.606L287.846 201.69L288.012 198.517L286.26 195.243L288.033 197.961L288.206 191.382L288.207 191.359V191.381L288.178 196.569L289.923 194.512L288.171 197.016L288.125 199.856L289.754 197.13L288.118 200.275L288.092 201.854L290.457 198.059L288.083 202.405L288.026 205.918Z" fill="#726F97"/>
<path d="M5.75982 247.084C4.49049 247.084 3.50115 246.72 2.79182 245.992C2.08249 245.264 1.72782 244.205 1.72782 242.814V237.2H2.76382V242.772C2.76382 243.911 3.02049 244.76 3.53382 245.32C4.04715 245.88 4.78915 246.16 5.75982 246.16C6.73982 246.16 7.48649 245.88 7.99982 245.32C8.51315 244.76 8.76982 243.911 8.76982 242.772V237.2H9.77782V242.814C9.77782 244.205 9.42315 245.264 8.71382 245.992C8.01382 246.72 7.02915 247.084 5.75982 247.084ZM16.4417 239.58C17.3657 239.58 18.0984 239.851 18.6397 240.392C19.1904 240.924 19.4657 241.703 19.4657 242.73V247H18.4717V242.828C18.4717 242.063 18.2804 241.479 17.8977 241.078C17.515 240.677 16.969 240.476 16.2597 240.476C15.4664 240.476 14.8364 240.714 14.3697 241.19C13.9124 241.657 13.6837 242.305 13.6837 243.136V247H12.6897V239.636H13.6417V240.994C13.9124 240.546 14.2857 240.201 14.7617 239.958C15.247 239.706 15.807 239.58 16.4417 239.58ZM24.7403 239.58C25.7017 239.58 26.439 239.823 26.9523 240.308C27.4657 240.784 27.7223 241.493 27.7223 242.436V247H26.7703V245.852C26.5463 246.235 26.215 246.533 25.7763 246.748C25.347 246.963 24.8337 247.07 24.2363 247.07C23.415 247.07 22.7617 246.874 22.2763 246.482C21.791 246.09 21.5483 245.572 21.5483 244.928C21.5483 244.303 21.7723 243.799 22.2203 243.416C22.6777 243.033 23.401 242.842 24.3903 242.842H26.7283V242.394C26.7283 241.759 26.551 241.279 26.1963 240.952C25.8417 240.616 25.3237 240.448 24.6423 240.448C24.1757 240.448 23.7277 240.527 23.2983 240.686C22.869 240.835 22.5003 241.045 22.1923 241.316L21.7443 240.574C22.1177 240.257 22.5657 240.014 23.0883 239.846C23.611 239.669 24.1617 239.58 24.7403 239.58ZM24.3903 246.286C24.9503 246.286 25.431 246.16 25.8323 245.908C26.2337 245.647 26.5323 245.273 26.7283 244.788V243.584H24.4183C23.1583 243.584 22.5283 244.023 22.5283 244.9C22.5283 245.329 22.6917 245.67 23.0183 245.922C23.345 246.165 23.8023 246.286 24.3903 246.286ZM34.2161 239.58C34.9068 239.58 35.5321 239.739 36.0921 240.056C36.6521 240.364 37.0908 240.803 37.4081 241.372C37.7255 241.941 37.8841 242.59 37.8841 243.318C37.8841 244.046 37.7255 244.695 37.4081 245.264C37.0908 245.833 36.6521 246.277 36.0921 246.594C35.5321 246.911 34.9068 247.07 34.2161 247.07C33.6001 247.07 33.0448 246.939 32.5501 246.678C32.0648 246.417 31.6728 246.039 31.3741 245.544V247H30.4221V236.612H31.4161V241.036C31.7241 240.56 32.1161 240.201 32.5921 239.958C33.0775 239.706 33.6188 239.58 34.2161 239.58ZM34.1461 246.188C34.6595 246.188 35.1261 246.071 35.5461 245.838C35.9661 245.595 36.2928 245.255 36.5261 244.816C36.7688 244.377 36.8901 243.878 36.8901 243.318C36.8901 242.758 36.7688 242.259 36.5261 241.82C36.2928 241.381 35.9661 241.045 35.5461 240.812C35.1261 240.569 34.6595 240.448 34.1461 240.448C33.6235 240.448 33.1521 240.569 32.7321 240.812C32.3215 241.045 31.9948 241.381 31.7521 241.82C31.5188 242.259 31.4021 242.758 31.4021 243.318C31.4021 243.878 31.5188 244.377 31.7521 244.816C31.9948 245.255 32.3215 245.595 32.7321 245.838C33.1521 246.071 33.6235 246.188 34.1461 246.188ZM39.9104 236.612H40.9044V247H39.9104V236.612ZM50.0822 243.626H43.9222C43.9782 244.391 44.2722 245.012 44.8042 245.488C45.3362 245.955 46.0082 246.188 46.8202 246.188C47.2775 246.188 47.6975 246.109 48.0802 245.95C48.4628 245.782 48.7942 245.539 49.0742 245.222L49.6342 245.866C49.3075 246.258 48.8968 246.557 48.4022 246.762C47.9168 246.967 47.3802 247.07 46.7922 247.07C46.0362 247.07 45.3642 246.911 44.7762 246.594C44.1975 246.267 43.7448 245.819 43.4182 245.25C43.0915 244.681 42.9282 244.037 42.9282 243.318C42.9282 242.599 43.0822 241.955 43.3902 241.386C43.7075 240.817 44.1368 240.373 44.6782 240.056C45.2288 239.739 45.8448 239.58 46.5262 239.58C47.2075 239.58 47.8188 239.739 48.3602 240.056C48.9015 240.373 49.3262 240.817 49.6342 241.386C49.9422 241.946 50.0962 242.59 50.0962 243.318L50.0822 243.626ZM46.5262 240.434C45.8168 240.434 45.2195 240.663 44.7342 241.12C44.2582 241.568 43.9875 242.156 43.9222 242.884H49.1442C49.0788 242.156 48.8035 241.568 48.3182 241.12C47.8422 240.663 47.2448 240.434 46.5262 240.434ZM59.6615 246.552C59.4748 246.72 59.2415 246.851 58.9615 246.944C58.6908 247.028 58.4061 247.07 58.1075 247.07C57.4168 247.07 56.8848 246.883 56.5115 246.51C56.1381 246.137 55.9515 245.609 55.9515 244.928V240.476H54.6355V239.636H55.9515V238.026H56.9455V239.636H59.1855V240.476H56.9455V244.872C56.9455 245.311 57.0528 245.647 57.2675 245.88C57.4915 246.104 57.8088 246.216 58.2195 246.216C58.4248 246.216 58.6208 246.183 58.8075 246.118C59.0035 246.053 59.1715 245.959 59.3115 245.838L59.6615 246.552ZM64.2212 247.07C63.5119 247.07 62.8725 246.911 62.3032 246.594C61.7339 246.267 61.2859 245.819 60.9592 245.25C60.6325 244.681 60.4692 244.037 60.4692 243.318C60.4692 242.599 60.6325 241.955 60.9592 241.386C61.2859 240.817 61.7339 240.373 62.3032 240.056C62.8725 239.739 63.5119 239.58 64.2212 239.58C64.9305 239.58 65.5699 239.739 66.1392 240.056C66.7085 240.373 67.1519 240.817 67.4692 241.386C67.7959 241.955 67.9592 242.599 67.9592 243.318C67.9592 244.037 67.7959 244.681 67.4692 245.25C67.1519 245.819 66.7085 246.267 66.1392 246.594C65.5699 246.911 64.9305 247.07 64.2212 247.07ZM64.2212 246.188C64.7439 246.188 65.2105 246.071 65.6212 245.838C66.0412 245.595 66.3679 245.255 66.6012 244.816C66.8345 244.377 66.9512 243.878 66.9512 243.318C66.9512 242.758 66.8345 242.259 66.6012 241.82C66.3679 241.381 66.0412 241.045 65.6212 240.812C65.2105 240.569 64.7439 240.448 64.2212 240.448C63.6985 240.448 63.2272 240.569 62.8072 240.812C62.3965 241.045 62.0699 241.381 61.8272 241.82C61.5939 242.259 61.4772 242.758 61.4772 243.318C61.4772 243.878 61.5939 244.377 61.8272 244.816C62.0699 245.255 62.3965 245.595 62.8072 245.838C63.2272 246.071 63.6985 246.188 64.2212 246.188ZM76.0886 237.382C75.6593 237.382 75.3326 237.499 75.1086 237.732C74.8939 237.965 74.7866 238.311 74.7866 238.768V239.636H77.0546V240.476H74.8146V247H73.8206V240.476H72.5046V239.636H73.8206V238.726C73.8206 238.054 74.0119 237.522 74.3946 237.13C74.7866 236.738 75.3373 236.542 76.0466 236.542C76.3266 236.542 76.5973 236.584 76.8586 236.668C77.1199 236.743 77.3393 236.855 77.5166 237.004L77.1806 237.746C76.8913 237.503 76.5273 237.382 76.0886 237.382ZM79.5186 239.636H80.5126V247H79.5186V239.636ZM80.0226 238.026C79.8173 238.026 79.6446 237.956 79.5046 237.816C79.3646 237.676 79.2946 237.508 79.2946 237.312C79.2946 237.125 79.3646 236.962 79.5046 236.822C79.6446 236.682 79.8173 236.612 80.0226 236.612C80.2279 236.612 80.4006 236.682 80.5406 236.822C80.6806 236.953 80.7506 237.111 80.7506 237.298C80.7506 237.503 80.6806 237.676 80.5406 237.816C80.4006 237.956 80.2279 238.026 80.0226 238.026ZM87.0433 239.58C87.9673 239.58 88.6999 239.851 89.2413 240.392C89.7919 240.924 90.0673 241.703 90.0673 242.73V247H89.0733V242.828C89.0733 242.063 88.8819 241.479 88.4993 241.078C88.1166 240.677 87.5706 240.476 86.8613 240.476C86.0679 240.476 85.4379 240.714 84.9713 241.19C84.5139 241.657 84.2853 242.305 84.2853 243.136V247H83.2913V239.636H84.2433V240.994C84.5139 240.546 84.8873 240.201 85.3633 239.958C85.8486 239.706 86.4086 239.58 87.0433 239.58ZM99.5132 236.612V247H98.5612V245.544C98.2626 246.039 97.8659 246.417 97.3712 246.678C96.8859 246.939 96.3352 247.07 95.7192 247.07C95.0286 247.07 94.4032 246.911 93.8432 246.594C93.2832 246.277 92.8446 245.833 92.5272 245.264C92.2099 244.695 92.0512 244.046 92.0512 243.318C92.0512 242.59 92.2099 241.941 92.5272 241.372C92.8446 240.803 93.2832 240.364 93.8432 240.056C94.4032 239.739 95.0286 239.58 95.7192 239.58C96.3166 239.58 96.8532 239.706 97.3292 239.958C97.8146 240.201 98.2112 240.56 98.5192 241.036V236.612H99.5132ZM95.8032 246.188C96.3166 246.188 96.7786 246.071 97.1892 245.838C97.6092 245.595 97.9359 245.255 98.1692 244.816C98.4119 244.377 98.5332 243.878 98.5332 243.318C98.5332 242.758 98.4119 242.259 98.1692 241.82C97.9359 241.381 97.6092 241.045 97.1892 240.812C96.7786 240.569 96.3166 240.448 95.8032 240.448C95.2806 240.448 94.8092 240.569 94.3892 240.812C93.9786 241.045 93.6519 241.381 93.4092 241.82C93.1759 242.259 93.0592 242.758 93.0592 243.318C93.0592 243.878 93.1759 244.377 93.4092 244.816C93.6519 245.255 93.9786 245.595 94.3892 245.838C94.8092 246.071 95.2806 246.188 95.8032 246.188ZM106.898 241.078C107.131 240.583 107.476 240.21 107.934 239.958C108.4 239.706 108.974 239.58 109.656 239.58V240.546L109.418 240.532C108.643 240.532 108.036 240.77 107.598 241.246C107.159 241.722 106.94 242.389 106.94 243.248V247H105.946V239.636H106.898V241.078ZM117.799 243.626H111.639C111.695 244.391 111.989 245.012 112.521 245.488C113.053 245.955 113.725 246.188 114.537 246.188C114.994 246.188 115.414 246.109 115.797 245.95C116.18 245.782 116.511 245.539 116.791 245.222L117.351 245.866C117.024 246.258 116.614 246.557 116.119 246.762C115.634 246.967 115.097 247.07 114.509 247.07C113.753 247.07 113.081 246.911 112.493 246.594C111.914 246.267 111.462 245.819 111.135 245.25C110.808 244.681 110.645 244.037 110.645 243.318C110.645 242.599 110.799 241.955 111.107 241.386C111.424 240.817 111.854 240.373 112.395 240.056C112.946 239.739 113.562 239.58 114.243 239.58C114.924 239.58 115.536 239.739 116.077 240.056C116.618 240.373 117.043 240.817 117.351 241.386C117.659 241.946 117.813 242.59 117.813 243.318L117.799 243.626ZM114.243 240.434C113.534 240.434 112.936 240.663 112.451 241.12C111.975 241.568 111.704 242.156 111.639 242.884H116.861C116.796 242.156 116.52 241.568 116.035 241.12C115.559 240.663 114.962 240.434 114.243 240.434ZM121.81 247.07C121.213 247.07 120.639 246.986 120.088 246.818C119.547 246.641 119.122 246.421 118.814 246.16L119.262 245.376C119.57 245.619 119.958 245.819 120.424 245.978C120.891 246.127 121.376 246.202 121.88 246.202C122.552 246.202 123.047 246.099 123.364 245.894C123.691 245.679 123.854 245.381 123.854 244.998C123.854 244.727 123.766 244.517 123.588 244.368C123.411 244.209 123.187 244.093 122.916 244.018C122.646 243.934 122.286 243.855 121.838 243.78C121.241 243.668 120.76 243.556 120.396 243.444C120.032 243.323 119.72 243.122 119.458 242.842C119.206 242.562 119.08 242.175 119.08 241.68C119.08 241.064 119.337 240.56 119.85 240.168C120.364 239.776 121.078 239.58 121.992 239.58C122.468 239.58 122.944 239.645 123.42 239.776C123.896 239.897 124.288 240.061 124.596 240.266L124.162 241.064C123.556 240.644 122.832 240.434 121.992 240.434C121.358 240.434 120.877 240.546 120.55 240.77C120.233 240.994 120.074 241.288 120.074 241.652C120.074 241.932 120.163 242.156 120.34 242.324C120.527 242.492 120.756 242.618 121.026 242.702C121.297 242.777 121.67 242.856 122.146 242.94C122.734 243.052 123.206 243.164 123.56 243.276C123.915 243.388 124.218 243.579 124.47 243.85C124.722 244.121 124.848 244.494 124.848 244.97C124.848 245.614 124.578 246.127 124.036 246.51C123.504 246.883 122.762 247.07 121.81 247.07ZM133.322 239.636V247H132.37V245.656C132.108 246.104 131.749 246.454 131.292 246.706C130.834 246.949 130.312 247.07 129.724 247.07C128.762 247.07 128.002 246.804 127.442 246.272C126.891 245.731 126.616 244.942 126.616 243.906V239.636H127.61V243.808C127.61 244.583 127.801 245.171 128.184 245.572C128.566 245.973 129.112 246.174 129.822 246.174C130.596 246.174 131.208 245.941 131.656 245.474C132.104 244.998 132.328 244.34 132.328 243.5V239.636H133.322ZM136.106 236.612H137.1V247H136.106V236.612ZM143.771 246.552C143.584 246.72 143.351 246.851 143.071 246.944C142.8 247.028 142.516 247.07 142.217 247.07C141.526 247.07 140.994 246.883 140.621 246.51C140.248 246.137 140.061 245.609 140.061 244.928V240.476H138.745V239.636H140.061V238.026H141.055V239.636H143.295V240.476H141.055V244.872C141.055 245.311 141.162 245.647 141.377 245.88C141.601 246.104 141.918 246.216 142.329 246.216C142.534 246.216 142.73 246.183 142.917 246.118C143.113 246.053 143.281 245.959 143.421 245.838L143.771 246.552ZM147.554 247.07C146.957 247.07 146.383 246.986 145.832 246.818C145.291 246.641 144.866 246.421 144.558 246.16L145.006 245.376C145.314 245.619 145.702 245.819 146.168 245.978C146.635 246.127 147.12 246.202 147.624 246.202C148.296 246.202 148.791 246.099 149.108 245.894C149.435 245.679 149.598 245.381 149.598 244.998C149.598 244.727 149.51 244.517 149.332 244.368C149.155 244.209 148.931 244.093 148.66 244.018C148.39 243.934 148.03 243.855 147.582 243.78C146.985 243.668 146.504 243.556 146.14 243.444C145.776 243.323 145.464 243.122 145.202 242.842C144.95 242.562 144.824 242.175 144.824 241.68C144.824 241.064 145.081 240.56 145.594 240.168C146.108 239.776 146.822 239.58 147.736 239.58C148.212 239.58 148.688 239.645 149.164 239.776C149.64 239.897 150.032 240.061 150.34 240.266L149.906 241.064C149.3 240.644 148.576 240.434 147.736 240.434C147.102 240.434 146.621 240.546 146.294 240.77C145.977 240.994 145.818 241.288 145.818 241.652C145.818 241.932 145.907 242.156 146.084 242.324C146.271 242.492 146.5 242.618 146.77 242.702C147.041 242.777 147.414 242.856 147.89 242.94C148.478 243.052 148.95 243.164 149.304 243.276C149.659 243.388 149.962 243.579 150.214 243.85C150.466 244.121 150.592 244.494 150.592 244.97C150.592 245.614 150.322 246.127 149.78 246.51C149.248 246.883 148.506 247.07 147.554 247.07ZM152.542 245.544C152.757 245.544 152.934 245.619 153.074 245.768C153.214 245.908 153.284 246.085 153.284 246.3C153.284 246.412 153.265 246.533 153.228 246.664C153.2 246.795 153.153 246.944 153.088 247.112L152.5 249.044H151.828L152.304 247.014C152.155 246.967 152.033 246.883 151.94 246.762C151.847 246.631 151.8 246.477 151.8 246.3C151.8 246.085 151.87 245.908 152.01 245.768C152.15 245.619 152.327 245.544 152.542 245.544ZM162.855 239.58C163.545 239.58 164.171 239.739 164.731 240.056C165.291 240.364 165.729 240.803 166.047 241.372C166.364 241.941 166.523 242.59 166.523 243.318C166.523 244.055 166.364 244.709 166.047 245.278C165.729 245.847 165.291 246.291 164.731 246.608C164.18 246.916 163.555 247.07 162.855 247.07C162.257 247.07 161.716 246.949 161.231 246.706C160.755 246.454 160.363 246.09 160.055 245.614V249.716H159.061V239.636H160.013V241.092C160.311 240.607 160.703 240.233 161.189 239.972C161.683 239.711 162.239 239.58 162.855 239.58ZM162.785 246.188C163.298 246.188 163.765 246.071 164.185 245.838C164.605 245.595 164.931 245.255 165.165 244.816C165.407 244.377 165.529 243.878 165.529 243.318C165.529 242.758 165.407 242.263 165.165 241.834C164.931 241.395 164.605 241.055 164.185 240.812C163.765 240.569 163.298 240.448 162.785 240.448C162.262 240.448 161.791 240.569 161.371 240.812C160.96 241.055 160.633 241.395 160.391 241.834C160.157 242.263 160.041 242.758 160.041 243.318C160.041 243.878 160.157 244.377 160.391 244.816C160.633 245.255 160.96 245.595 161.371 245.838C161.791 246.071 162.262 246.188 162.785 246.188ZM168.549 236.612H169.543V247H168.549V236.612ZM178.721 243.626H172.561C172.617 244.391 172.911 245.012 173.443 245.488C173.975 245.955 174.647 246.188 175.459 246.188C175.916 246.188 176.336 246.109 176.719 245.95C177.102 245.782 177.433 245.539 177.713 245.222L178.273 245.866C177.946 246.258 177.536 246.557 177.041 246.762C176.556 246.967 176.019 247.07 175.431 247.07C174.675 247.07 174.003 246.911 173.415 246.594C172.836 246.267 172.384 245.819 172.057 245.25C171.73 244.681 171.567 244.037 171.567 243.318C171.567 242.599 171.721 241.955 172.029 241.386C172.346 240.817 172.776 240.373 173.317 240.056C173.868 239.739 174.484 239.58 175.165 239.58C175.846 239.58 176.458 239.739 176.999 240.056C177.54 240.373 177.965 240.817 178.273 241.386C178.581 241.946 178.735 242.59 178.735 243.318L178.721 243.626ZM175.165 240.434C174.456 240.434 173.858 240.663 173.373 241.12C172.897 241.568 172.626 242.156 172.561 242.884H177.783C177.718 242.156 177.442 241.568 176.957 241.12C176.481 240.663 175.884 240.434 175.165 240.434ZM183.129 239.58C184.09 239.58 184.828 239.823 185.341 240.308C185.854 240.784 186.111 241.493 186.111 242.436V247H185.159V245.852C184.935 246.235 184.604 246.533 184.165 246.748C183.736 246.963 183.222 247.07 182.625 247.07C181.804 247.07 181.15 246.874 180.665 246.482C180.18 246.09 179.937 245.572 179.937 244.928C179.937 244.303 180.161 243.799 180.609 243.416C181.066 243.033 181.79 242.842 182.779 242.842H185.117V242.394C185.117 241.759 184.94 241.279 184.585 240.952C184.23 240.616 183.712 240.448 183.031 240.448C182.564 240.448 182.116 240.527 181.687 240.686C181.258 240.835 180.889 241.045 180.581 241.316L180.133 240.574C180.506 240.257 180.954 240.014 181.477 239.846C182 239.669 182.55 239.58 183.129 239.58ZM182.779 246.286C183.339 246.286 183.82 246.16 184.221 245.908C184.622 245.647 184.921 245.273 185.117 244.788V243.584H182.807C181.547 243.584 180.917 244.023 180.917 244.9C180.917 245.329 181.08 245.67 181.407 245.922C181.734 246.165 182.191 246.286 182.779 246.286ZM190.785 247.07C190.187 247.07 189.613 246.986 189.063 246.818C188.521 246.641 188.097 246.421 187.789 246.16L188.237 245.376C188.545 245.619 188.932 245.819 189.399 245.978C189.865 246.127 190.351 246.202 190.855 246.202C191.527 246.202 192.021 246.099 192.339 245.894C192.665 245.679 192.829 245.381 192.829 244.998C192.829 244.727 192.74 244.517 192.563 244.368C192.385 244.209 192.161 244.093 191.891 244.018C191.62 243.934 191.261 243.855 190.813 243.78C190.215 243.668 189.735 243.556 189.371 243.444C189.007 243.323 188.694 243.122 188.433 242.842C188.181 242.562 188.055 242.175 188.055 241.68C188.055 241.064 188.311 240.56 188.825 240.168C189.338 239.776 190.052 239.58 190.967 239.58C191.443 239.58 191.919 239.645 192.395 239.776C192.871 239.897 193.263 240.061 193.571 240.266L193.137 241.064C192.53 240.644 191.807 240.434 190.967 240.434C190.332 240.434 189.851 240.546 189.525 240.77C189.207 240.994 189.049 241.288 189.049 241.652C189.049 241.932 189.137 242.156 189.315 242.324C189.501 242.492 189.73 242.618 190.001 242.702C190.271 242.777 190.645 242.856 191.121 242.94C191.709 243.052 192.18 243.164 192.535 243.276C192.889 243.388 193.193 243.579 193.445 243.85C193.697 244.121 193.823 244.494 193.823 244.97C193.823 245.614 193.552 246.127 193.011 246.51C192.479 246.883 191.737 247.07 190.785 247.07ZM202.072 243.626H195.912C195.968 244.391 196.262 245.012 196.794 245.488C197.326 245.955 197.998 246.188 198.81 246.188C199.268 246.188 199.688 246.109 200.07 245.95C200.453 245.782 200.784 245.539 201.064 245.222L201.624 245.866C201.298 246.258 200.887 246.557 200.392 246.762C199.907 246.967 199.37 247.07 198.782 247.07C198.026 247.07 197.354 246.911 196.766 246.594C196.188 246.267 195.735 245.819 195.408 245.25C195.082 244.681 194.918 244.037 194.918 243.318C194.918 242.599 195.072 241.955 195.38 241.386C195.698 240.817 196.127 240.373 196.668 240.056C197.219 239.739 197.835 239.58 198.516 239.58C199.198 239.58 199.809 239.739 200.35 240.056C200.892 240.373 201.316 240.817 201.624 241.386C201.932 241.946 202.086 242.59 202.086 243.318L202.072 243.626ZM198.516 240.434C197.807 240.434 197.21 240.663 196.724 241.12C196.248 241.568 195.978 242.156 195.912 242.884H201.134C201.069 242.156 200.794 241.568 200.308 241.12C199.832 240.663 199.235 240.434 198.516 240.434ZM208.726 241.078C208.959 240.583 209.304 240.21 209.762 239.958C210.228 239.706 210.802 239.58 211.484 239.58V240.546L211.246 240.532C210.471 240.532 209.864 240.77 209.426 241.246C208.987 241.722 208.768 242.389 208.768 243.248V247H207.774V239.636H208.726V241.078ZM219.627 243.626H213.467C213.523 244.391 213.817 245.012 214.349 245.488C214.881 245.955 215.553 246.188 216.365 246.188C216.822 246.188 217.242 246.109 217.625 245.95C218.008 245.782 218.339 245.539 218.619 245.222L219.179 245.866C218.852 246.258 218.442 246.557 217.947 246.762C217.462 246.967 216.925 247.07 216.337 247.07C215.581 247.07 214.909 246.911 214.321 246.594C213.742 246.267 213.29 245.819 212.963 245.25C212.636 244.681 212.473 244.037 212.473 243.318C212.473 242.599 212.627 241.955 212.935 241.386C213.252 240.817 213.682 240.373 214.223 240.056C214.774 239.739 215.39 239.58 216.071 239.58C216.752 239.58 217.364 239.739 217.905 240.056C218.446 240.373 218.871 240.817 219.179 241.386C219.487 241.946 219.641 242.59 219.641 243.318L219.627 243.626ZM216.071 240.434C215.362 240.434 214.764 240.663 214.279 241.12C213.803 241.568 213.532 242.156 213.467 242.884H218.689C218.624 242.156 218.348 241.568 217.863 241.12C217.387 240.663 216.79 240.434 216.071 240.434ZM223.638 247.07C223.041 247.07 222.467 246.986 221.916 246.818C221.375 246.641 220.95 246.421 220.642 246.16L221.09 245.376C221.398 245.619 221.786 245.819 222.252 245.978C222.719 246.127 223.204 246.202 223.708 246.202C224.38 246.202 224.875 246.099 225.192 245.894C225.519 245.679 225.682 245.381 225.682 244.998C225.682 244.727 225.594 244.517 225.416 244.368C225.239 244.209 225.015 244.093 224.744 244.018C224.474 243.934 224.114 243.855 223.666 243.78C223.069 243.668 222.588 243.556 222.224 243.444C221.86 243.323 221.548 243.122 221.286 242.842C221.034 242.562 220.908 242.175 220.908 241.68C220.908 241.064 221.165 240.56 221.678 240.168C222.192 239.776 222.906 239.58 223.82 239.58C224.296 239.58 224.772 239.645 225.248 239.776C225.724 239.897 226.116 240.061 226.424 240.266L225.99 241.064C225.384 240.644 224.66 240.434 223.82 240.434C223.186 240.434 222.705 240.546 222.378 240.77C222.061 240.994 221.902 241.288 221.902 241.652C221.902 241.932 221.991 242.156 222.168 242.324C222.355 242.492 222.584 242.618 222.854 242.702C223.125 242.777 223.498 242.856 223.974 242.94C224.562 243.052 225.034 243.164 225.388 243.276C225.743 243.388 226.046 243.579 226.298 243.85C226.55 244.121 226.676 244.494 226.676 244.97C226.676 245.614 226.406 246.127 225.864 246.51C225.332 246.883 224.59 247.07 223.638 247.07ZM234.926 243.626H228.766C228.822 244.391 229.116 245.012 229.648 245.488C230.18 245.955 230.852 246.188 231.664 246.188C232.121 246.188 232.541 246.109 232.924 245.95C233.307 245.782 233.638 245.539 233.918 245.222L234.478 245.866C234.151 246.258 233.741 246.557 233.246 246.762C232.761 246.967 232.224 247.07 231.636 247.07C230.88 247.07 230.208 246.911 229.62 246.594C229.041 246.267 228.589 245.819 228.262 245.25C227.935 244.681 227.772 244.037 227.772 243.318C227.772 242.599 227.926 241.955 228.234 241.386C228.551 240.817 228.981 240.373 229.522 240.056C230.073 239.739 230.689 239.58 231.37 239.58C232.051 239.58 232.663 239.739 233.204 240.056C233.745 240.373 234.17 240.817 234.478 241.386C234.786 241.946 234.94 242.59 234.94 243.318L234.926 243.626ZM231.37 240.434C230.661 240.434 230.063 240.663 229.578 241.12C229.102 241.568 228.831 242.156 228.766 242.884H233.988C233.923 242.156 233.647 241.568 233.162 241.12C232.686 240.663 232.089 240.434 231.37 240.434ZM239.334 239.58C240.295 239.58 241.033 239.823 241.546 240.308C242.059 240.784 242.316 241.493 242.316 242.436V247H241.364V245.852C241.14 246.235 240.809 246.533 240.37 246.748C239.941 246.963 239.427 247.07 238.83 247.07C238.009 247.07 237.355 246.874 236.87 246.482C236.385 246.09 236.142 245.572 236.142 244.928C236.142 244.303 236.366 243.799 236.814 243.416C237.271 243.033 237.995 242.842 238.984 242.842H241.322V242.394C241.322 241.759 241.145 241.279 240.79 240.952C240.435 240.616 239.917 240.448 239.236 240.448C238.769 240.448 238.321 240.527 237.892 240.686C237.463 240.835 237.094 241.045 236.786 241.316L236.338 240.574C236.711 240.257 237.159 240.014 237.682 239.846C238.205 239.669 238.755 239.58 239.334 239.58ZM238.984 246.286C239.544 246.286 240.025 246.16 240.426 245.908C240.827 245.647 241.126 245.273 241.322 244.788V243.584H239.012C237.752 243.584 237.122 244.023 237.122 244.9C237.122 245.329 237.285 245.67 237.612 245.922C237.939 246.165 238.396 246.286 238.984 246.286ZM245.968 241.078C246.201 240.583 246.547 240.21 247.004 239.958C247.471 239.706 248.045 239.58 248.726 239.58V240.546L248.488 240.532C247.713 240.532 247.107 240.77 246.668 241.246C246.229 241.722 246.01 242.389 246.01 243.248V247H245.016V239.636H245.968V241.078ZM253.509 247.07C252.781 247.07 252.128 246.911 251.549 246.594C250.98 246.277 250.532 245.833 250.205 245.264C249.879 244.685 249.715 244.037 249.715 243.318C249.715 242.599 249.879 241.955 250.205 241.386C250.532 240.817 250.98 240.373 251.549 240.056C252.128 239.739 252.781 239.58 253.509 239.58C254.144 239.58 254.709 239.706 255.203 239.958C255.707 240.201 256.104 240.56 256.393 241.036L255.651 241.54C255.409 241.176 255.101 240.905 254.727 240.728C254.354 240.541 253.948 240.448 253.509 240.448C252.977 240.448 252.497 240.569 252.067 240.812C251.647 241.045 251.316 241.381 251.073 241.82C250.84 242.259 250.723 242.758 250.723 243.318C250.723 243.887 250.84 244.391 251.073 244.83C251.316 245.259 251.647 245.595 252.067 245.838C252.497 246.071 252.977 246.188 253.509 246.188C253.948 246.188 254.354 246.099 254.727 245.922C255.101 245.745 255.409 245.474 255.651 245.11L256.393 245.614C256.104 246.09 255.707 246.454 255.203 246.706C254.699 246.949 254.135 247.07 253.509 247.07ZM261.989 239.58C262.913 239.58 263.645 239.851 264.187 240.392C264.737 240.924 265.013 241.703 265.013 242.73V247H264.019V242.828C264.019 242.063 263.827 241.479 263.445 241.078C263.062 240.677 262.516 240.476 261.807 240.476C261.013 240.476 260.383 240.714 259.917 241.19C259.459 241.657 259.231 242.305 259.231 243.136V247H258.237V236.612H259.231V240.924C259.501 240.495 259.875 240.163 260.351 239.93C260.827 239.697 261.373 239.58 261.989 239.58ZM274.385 247.07C273.676 247.07 273.037 246.911 272.467 246.594C271.898 246.267 271.45 245.819 271.123 245.25C270.797 244.681 270.633 244.037 270.633 243.318C270.633 242.599 270.797 241.955 271.123 241.386C271.45 240.817 271.898 240.373 272.467 240.056C273.037 239.739 273.676 239.58 274.385 239.58C275.095 239.58 275.734 239.739 276.303 240.056C276.873 240.373 277.316 240.817 277.633 241.386C277.96 241.955 278.123 242.599 278.123 243.318C278.123 244.037 277.96 244.681 277.633 245.25C277.316 245.819 276.873 246.267 276.303 246.594C275.734 246.911 275.095 247.07 274.385 247.07ZM274.385 246.188C274.908 246.188 275.375 246.071 275.785 245.838C276.205 245.595 276.532 245.255 276.765 244.816C276.999 244.377 277.115 243.878 277.115 243.318C277.115 242.758 276.999 242.259 276.765 241.82C276.532 241.381 276.205 241.045 275.785 240.812C275.375 240.569 274.908 240.448 274.385 240.448C273.863 240.448 273.391 240.569 272.971 240.812C272.561 241.045 272.234 241.381 271.991 241.82C271.758 242.259 271.641 242.758 271.641 243.318C271.641 243.878 271.758 244.377 271.991 244.816C272.234 245.255 272.561 245.595 272.971 245.838C273.391 246.071 273.863 246.188 274.385 246.188ZM281.105 241.078C281.338 240.583 281.683 240.21 282.141 239.958C282.607 239.706 283.181 239.58 283.863 239.58V240.546L283.625 240.532C282.85 240.532 282.243 240.77 281.805 241.246C281.366 241.722 281.147 242.389 281.147 243.248V247H280.153V239.636H281.105V241.078ZM292.488 247.07C291.76 247.07 291.106 246.911 290.528 246.594C289.958 246.277 289.51 245.833 289.184 245.264C288.857 244.685 288.694 244.037 288.694 243.318C288.694 242.599 288.857 241.955 289.184 241.386C289.51 240.817 289.958 240.373 290.528 240.056C291.106 239.739 291.76 239.58 292.488 239.58C293.122 239.58 293.687 239.706 294.182 239.958C294.686 240.201 295.082 240.56 295.372 241.036L294.63 241.54C294.387 241.176 294.079 240.905 293.706 240.728C293.332 240.541 292.926 240.448 292.488 240.448C291.956 240.448 291.475 240.569 291.046 240.812C290.626 241.045 290.294 241.381 290.052 241.82C289.818 242.259 289.702 242.758 289.702 243.318C289.702 243.887 289.818 244.391 290.052 244.83C290.294 245.259 290.626 245.595 291.046 245.838C291.475 246.071 291.956 246.188 292.488 246.188C292.926 246.188 293.332 246.099 293.706 245.922C294.079 245.745 294.387 245.474 294.63 245.11L295.372 245.614C295.082 246.09 294.686 246.454 294.182 246.706C293.678 246.949 293.113 247.07 292.488 247.07ZM300.967 239.58C301.891 239.58 302.624 239.851 303.165 240.392C303.716 240.924 303.991 241.703 303.991 242.73V247H302.997V242.828C302.997 242.063 302.806 241.479 302.423 241.078C302.04 240.677 301.494 240.476 300.785 240.476C299.992 240.476 299.362 240.714 298.895 241.19C298.438 241.657 298.209 242.305 298.209 243.136V247H297.215V236.612H298.209V240.924C298.48 240.495 298.853 240.163 299.329 239.93C299.805 239.697 300.351 239.58 300.967 239.58ZM313.129 243.626H306.969C307.025 244.391 307.319 245.012 307.851 245.488C308.383 245.955 309.055 246.188 309.867 246.188C310.324 246.188 310.744 246.109 311.127 245.95C311.51 245.782 311.841 245.539 312.121 245.222L312.681 245.866C312.354 246.258 311.944 246.557 311.449 246.762C310.964 246.967 310.427 247.07 309.839 247.07C309.083 247.07 308.411 246.911 307.823 246.594C307.244 246.267 306.792 245.819 306.465 245.25C306.138 244.681 305.975 244.037 305.975 243.318C305.975 242.599 306.129 241.955 306.437 241.386C306.754 240.817 307.184 240.373 307.725 240.056C308.276 239.739 308.892 239.58 309.573 239.58C310.254 239.58 310.866 239.739 311.407 240.056C311.948 240.373 312.373 240.817 312.681 241.386C312.989 241.946 313.143 242.59 313.143 243.318L313.129 243.626ZM309.573 240.434C308.864 240.434 308.266 240.663 307.781 241.12C307.305 241.568 307.034 242.156 306.969 242.884H312.191C312.126 242.156 311.85 241.568 311.365 241.12C310.889 240.663 310.292 240.434 309.573 240.434ZM318.218 247.07C317.49 247.07 316.837 246.911 316.258 246.594C315.689 246.277 315.241 245.833 314.914 245.264C314.588 244.685 314.424 244.037 314.424 243.318C314.424 242.599 314.588 241.955 314.914 241.386C315.241 240.817 315.689 240.373 316.258 240.056C316.837 239.739 317.49 239.58 318.218 239.58C318.853 239.58 319.418 239.706 319.912 239.958C320.416 240.201 320.813 240.56 321.102 241.036L320.36 241.54C320.118 241.176 319.81 240.905 319.436 240.728C319.063 240.541 318.657 240.448 318.218 240.448C317.686 240.448 317.206 240.569 316.776 240.812C316.356 241.045 316.025 241.381 315.782 241.82C315.549 242.259 315.432 242.758 315.432 243.318C315.432 243.887 315.549 244.391 315.782 244.83C316.025 245.259 316.356 245.595 316.776 245.838C317.206 246.071 317.686 246.188 318.218 246.188C318.657 246.188 319.063 246.099 319.436 245.922C319.81 245.745 320.118 245.474 320.36 245.11L321.102 245.614C320.813 246.09 320.416 246.454 319.912 246.706C319.408 246.949 318.844 247.07 318.218 247.07ZM325.676 243.304L323.94 244.9V247H322.946V236.612H323.94V243.654L328.336 239.636H329.568L326.418 242.646L329.862 247H328.644L325.676 243.304ZM338.77 239.58C339.694 239.58 340.427 239.851 340.968 240.392C341.519 240.924 341.794 241.703 341.794 242.73V247H340.8V242.828C340.8 242.063 340.609 241.479 340.226 241.078C339.843 240.677 339.297 240.476 338.588 240.476C337.795 240.476 337.165 240.714 336.698 241.19C336.241 241.657 336.012 242.305 336.012 243.136V247H335.018V239.636H335.97V240.994C336.241 240.546 336.614 240.201 337.09 239.958C337.575 239.706 338.135 239.58 338.77 239.58ZM350.932 243.626H344.772C344.828 244.391 345.122 245.012 345.654 245.488C346.186 245.955 346.858 246.188 347.67 246.188C348.127 246.188 348.547 246.109 348.93 245.95C349.312 245.782 349.644 245.539 349.924 245.222L350.484 245.866C350.157 246.258 349.746 246.557 349.252 246.762C348.766 246.967 348.23 247.07 347.642 247.07C346.886 247.07 346.214 246.911 345.626 246.594C345.047 246.267 344.594 245.819 344.268 245.25C343.941 244.681 343.778 244.037 343.778 243.318C343.778 242.599 343.932 241.955 344.24 241.386C344.557 240.817 344.986 240.373 345.528 240.056C346.078 239.739 346.694 239.58 347.376 239.58C348.057 239.58 348.668 239.739 349.21 240.056C349.751 240.373 350.176 240.817 350.484 241.386C350.792 241.946 350.946 242.59 350.946 243.318L350.932 243.626ZM347.376 240.434C346.666 240.434 346.069 240.663 345.584 241.12C345.108 241.568 344.837 242.156 344.772 242.884H349.994C349.928 242.156 349.653 241.568 349.168 241.12C348.692 240.663 348.094 240.434 347.376 240.434ZM356.847 246.552C356.66 246.72 356.427 246.851 356.147 246.944C355.876 247.028 355.592 247.07 355.293 247.07C354.602 247.07 354.07 246.883 353.697 246.51C353.324 246.137 353.137 245.609 353.137 244.928V240.476H351.821V239.636H353.137V238.026H354.131V239.636H356.371V240.476H354.131V244.872C354.131 245.311 354.238 245.647 354.453 245.88C354.677 246.104 354.994 246.216 355.405 246.216C355.61 246.216 355.806 246.183 355.993 246.118C356.189 246.053 356.357 245.959 356.497 245.838L356.847 246.552ZM369.328 239.636L366.542 247H365.604L363.28 240.966L360.956 247H360.018L357.246 239.636H358.198L360.508 245.894L362.874 239.636H363.728L366.08 245.894L368.418 239.636H369.328ZM373.629 247.07C372.92 247.07 372.281 246.911 371.711 246.594C371.142 246.267 370.694 245.819 370.367 245.25C370.041 244.681 369.877 244.037 369.877 243.318C369.877 242.599 370.041 241.955 370.367 241.386C370.694 240.817 371.142 240.373 371.711 240.056C372.281 239.739 372.92 239.58 373.629 239.58C374.339 239.58 374.978 239.739 375.547 240.056C376.117 240.373 376.56 240.817 376.877 241.386C377.204 241.955 377.367 242.599 377.367 243.318C377.367 244.037 377.204 244.681 376.877 245.25C376.56 245.819 376.117 246.267 375.547 246.594C374.978 246.911 374.339 247.07 373.629 247.07ZM373.629 246.188C374.152 246.188 374.619 246.071 375.029 245.838C375.449 245.595 375.776 245.255 376.009 244.816C376.243 244.377 376.359 243.878 376.359 243.318C376.359 242.758 376.243 242.259 376.009 241.82C375.776 241.381 375.449 241.045 375.029 240.812C374.619 240.569 374.152 240.448 373.629 240.448C373.107 240.448 372.635 240.569 372.215 240.812C371.805 241.045 371.478 241.381 371.235 241.82C371.002 242.259 370.885 242.758 370.885 243.318C370.885 243.878 371.002 244.377 371.235 244.816C371.478 245.255 371.805 245.595 372.215 245.838C372.635 246.071 373.107 246.188 373.629 246.188ZM380.349 241.078C380.582 240.583 380.927 240.21 381.385 239.958C381.851 239.706 382.425 239.58 383.107 239.58V240.546L382.869 240.532C382.094 240.532 381.487 240.77 381.049 241.246C380.61 241.722 380.391 242.389 380.391 243.248V247H379.397V239.636H380.349V241.078ZM387.637 243.304L385.901 244.9V247H384.907V236.612H385.901V243.654L390.297 239.636H391.529L388.379 242.646L391.823 247H390.605L387.637 243.304ZM398.953 247.07C398.355 247.07 397.781 246.986 397.231 246.818C396.689 246.641 396.265 246.421 395.957 246.16L396.405 245.376C396.713 245.619 397.1 245.819 397.567 245.978C398.033 246.127 398.519 246.202 399.023 246.202C399.695 246.202 400.189 246.099 400.507 245.894C400.833 245.679 400.997 245.381 400.997 244.998C400.997 244.727 400.908 244.517 400.731 244.368C400.553 244.209 400.329 244.093 400.059 244.018C399.788 243.934 399.429 243.855 398.981 243.78C398.383 243.668 397.903 243.556 397.539 243.444C397.175 243.323 396.862 243.122 396.601 242.842C396.349 242.562 396.223 242.175 396.223 241.68C396.223 241.064 396.479 240.56 396.993 240.168C397.506 239.776 398.22 239.58 399.135 239.58C399.611 239.58 400.087 239.645 400.563 239.776C401.039 239.897 401.431 240.061 401.739 240.266L401.305 241.064C400.698 240.644 399.975 240.434 399.135 240.434C398.5 240.434 398.019 240.546 397.693 240.77C397.375 240.994 397.217 241.288 397.217 241.652C397.217 241.932 397.305 242.156 397.483 242.324C397.669 242.492 397.898 242.618 398.169 242.702C398.439 242.777 398.813 242.856 399.289 242.94C399.877 243.052 400.348 243.164 400.703 243.276C401.057 243.388 401.361 243.579 401.613 243.85C401.865 244.121 401.991 244.494 401.991 244.97C401.991 245.614 401.72 246.127 401.179 246.51C400.647 246.883 399.905 247.07 398.953 247.07ZM410.24 243.626H404.08C404.136 244.391 404.43 245.012 404.962 245.488C405.494 245.955 406.166 246.188 406.978 246.188C407.436 246.188 407.856 246.109 408.238 245.95C408.621 245.782 408.952 245.539 409.232 245.222L409.792 245.866C409.466 246.258 409.055 246.557 408.56 246.762C408.075 246.967 407.538 247.07 406.95 247.07C406.194 247.07 405.522 246.911 404.934 246.594C404.356 246.267 403.903 245.819 403.576 245.25C403.25 244.681 403.086 244.037 403.086 243.318C403.086 242.599 403.24 241.955 403.548 241.386C403.866 240.817 404.295 240.373 404.836 240.056C405.387 239.739 406.003 239.58 406.684 239.58C407.366 239.58 407.977 239.739 408.518 240.056C409.06 240.373 409.484 240.817 409.792 241.386C410.1 241.946 410.254 242.59 410.254 243.318L410.24 243.626ZM406.684 240.434C405.975 240.434 405.378 240.663 404.892 241.12C404.416 241.568 404.146 242.156 404.08 242.884H409.302C409.237 242.156 408.962 241.568 408.476 241.12C408 240.663 407.403 240.434 406.684 240.434ZM416.156 246.552C415.969 246.72 415.736 246.851 415.456 246.944C415.185 247.028 414.9 247.07 414.602 247.07C413.911 247.07 413.379 246.883 413.006 246.51C412.632 246.137 412.446 245.609 412.446 244.928V240.476H411.13V239.636H412.446V238.026H413.44V239.636H415.68V240.476H413.44V244.872C413.44 245.311 413.547 245.647 413.762 245.88C413.986 246.104 414.303 246.216 414.714 246.216C414.919 246.216 415.115 246.183 415.302 246.118C415.498 246.053 415.666 245.959 415.806 245.838L416.156 246.552ZM421.652 246.552C421.465 246.72 421.232 246.851 420.952 246.944C420.681 247.028 420.396 247.07 420.098 247.07C419.407 247.07 418.875 246.883 418.502 246.51C418.128 246.137 417.942 245.609 417.942 244.928V240.476H416.626V239.636H417.942V238.026H418.936V239.636H421.176V240.476H418.936V244.872C418.936 245.311 419.043 245.647 419.258 245.88C419.482 246.104 419.799 246.216 420.21 246.216C420.415 246.216 420.611 246.183 420.798 246.118C420.994 246.053 421.162 245.959 421.302 245.838L421.652 246.552ZM423.461 239.636H424.455V247H423.461V239.636ZM423.965 238.026C423.76 238.026 423.587 237.956 423.447 237.816C423.307 237.676 423.237 237.508 423.237 237.312C423.237 237.125 423.307 236.962 423.447 236.822C423.587 236.682 423.76 236.612 423.965 236.612C424.171 236.612 424.343 236.682 424.483 236.822C424.623 236.953 424.693 237.111 424.693 237.298C424.693 237.503 424.623 237.676 424.483 237.816C424.343 237.956 424.171 238.026 423.965 238.026ZM430.973 239.58C431.897 239.58 432.63 239.851 433.171 240.392C433.722 240.924 433.997 241.703 433.997 242.73V247H433.003V242.828C433.003 242.063 432.812 241.479 432.429 241.078C432.046 240.677 431.5 240.476 430.791 240.476C429.998 240.476 429.368 240.714 428.901 241.19C428.444 241.657 428.215 242.305 428.215 243.136V247H427.221V239.636H428.173V240.994C428.444 240.546 428.817 240.201 429.293 239.958C429.778 239.706 430.338 239.58 430.973 239.58ZM443.541 239.636V246.104C443.541 247.355 443.233 248.279 442.617 248.876C442.01 249.483 441.091 249.786 439.859 249.786C439.178 249.786 438.529 249.683 437.913 249.478C437.306 249.282 436.812 249.007 436.429 248.652L436.933 247.896C437.288 248.213 437.717 248.461 438.221 248.638C438.734 248.815 439.271 248.904 439.831 248.904C440.764 248.904 441.45 248.685 441.889 248.246C442.328 247.817 442.547 247.145 442.547 246.23V245.292C442.239 245.759 441.833 246.113 441.329 246.356C440.834 246.599 440.284 246.72 439.677 246.72C438.986 246.72 438.356 246.571 437.787 246.272C437.227 245.964 436.784 245.539 436.457 244.998C436.14 244.447 435.981 243.827 435.981 243.136C435.981 242.445 436.14 241.829 436.457 241.288C436.784 240.747 437.227 240.327 437.787 240.028C438.347 239.729 438.977 239.58 439.677 239.58C440.302 239.58 440.867 239.706 441.371 239.958C441.875 240.21 442.281 240.574 442.589 241.05V239.636H443.541ZM439.775 245.838C440.307 245.838 440.788 245.726 441.217 245.502C441.646 245.269 441.978 244.947 442.211 244.536C442.454 244.125 442.575 243.659 442.575 243.136C442.575 242.613 442.454 242.151 442.211 241.75C441.978 241.339 441.646 241.022 441.217 240.798C440.797 240.565 440.316 240.448 439.775 240.448C439.243 240.448 438.762 240.56 438.333 240.784C437.913 241.008 437.582 241.325 437.339 241.736C437.106 242.147 436.989 242.613 436.989 243.136C436.989 243.659 437.106 244.125 437.339 244.536C437.582 244.947 437.913 245.269 438.333 245.502C438.762 245.726 439.243 245.838 439.775 245.838ZM448.295 247.07C447.697 247.07 447.123 246.986 446.573 246.818C446.031 246.641 445.607 246.421 445.299 246.16L445.747 245.376C446.055 245.619 446.442 245.819 446.909 245.978C447.375 246.127 447.861 246.202 448.365 246.202C449.037 246.202 449.531 246.099 449.849 245.894C450.175 245.679 450.339 245.381 450.339 244.998C450.339 244.727 450.25 244.517 450.073 244.368C449.895 244.209 449.671 244.093 449.401 244.018C449.13 243.934 448.771 243.855 448.323 243.78C447.725 243.668 447.245 243.556 446.881 243.444C446.517 243.323 446.204 243.122 445.943 242.842C445.691 242.562 445.565 242.175 445.565 241.68C445.565 241.064 445.821 240.56 446.335 240.168C446.848 239.776 447.562 239.58 448.477 239.58C448.953 239.58 449.429 239.645 449.905 239.776C450.381 239.897 450.773 240.061 451.081 240.266L450.647 241.064C450.04 240.644 449.317 240.434 448.477 240.434C447.842 240.434 447.361 240.546 447.035 240.77C446.717 240.994 446.559 241.288 446.559 241.652C446.559 241.932 446.647 242.156 446.825 242.324C447.011 242.492 447.24 242.618 447.511 242.702C447.781 242.777 448.155 242.856 448.631 242.94C449.219 243.052 449.69 243.164 450.045 243.276C450.399 243.388 450.703 243.579 450.955 243.85C451.207 244.121 451.333 244.494 451.333 244.97C451.333 245.614 451.062 246.127 450.521 246.51C449.989 246.883 449.247 247.07 448.295 247.07Z" fill="#0D053C" fill-opacity="0.5"/>
<defs>
<linearGradient id="paint0_linear" x1="275.294" y1="175.413" x2="275.294" y2="162.986" gradientUnits="userSpaceOnUse">
<stop stop-color="#808080" stop-opacity="0.25"/>
<stop offset="0.53514" stop-color="#808080" stop-opacity="0.12"/>
<stop offset="1" stop-color="#808080" stop-opacity="0.1"/>
</linearGradient>
</defs>
</svg>
