<svg width="22" height="22" viewBox="0 0 22 22" fill="none" xmlns="http://www.w3.org/2000/svg">
<path d="M18.7434 3.26177C16.6753 1.1949 13.9254 0.0566406 11.0004 0.0566406C8.07551 0.0566406 5.32554 1.19493 3.2576 3.26179C1.18954 5.32854 0.0493164 8.07689 0.0493164 11.0001C0.0493164 13.922 1.18816 16.6717 3.2576 18.7386C5.327 20.8053 8.07551 21.945 11.0004 21.945C13.9254 21.945 16.6753 20.8069 18.7447 18.7386C20.8113 16.6717 21.9516 13.922 21.9516 11.0001C21.9516 8.07687 20.8115 5.32852 18.7434 3.26177ZM17.8142 17.8115L13.5226 13.521C13.0629 13.9789 12.5088 14.2871 11.9241 14.4426L13.4962 20.3073C12.6921 20.5209 11.8546 20.6321 11.0004 20.6321C10.1463 20.6321 9.30889 20.5209 8.50475 20.3073L10.0769 14.4426C9.49219 14.2871 8.93803 13.9789 8.47979 13.521L4.18678 17.8115C2.94524 16.5734 2.11455 15.0755 1.69238 13.4918L7.55475 11.9232C7.39362 11.3181 7.39362 10.681 7.55475 10.0785L1.69238 8.50868C2.11455 6.92498 2.94526 5.42859 4.18536 4.18901L8.47841 8.47942C8.93811 8.02144 9.49226 7.71333 10.077 7.55782L8.50484 1.69315C9.30895 1.47946 10.1464 1.36839 11.0005 1.36839C11.8547 1.36839 12.6921 1.47949 13.4963 1.69315L11.9241 7.55782C12.5089 7.71462 13.0629 8.02146 13.5227 8.48086L17.8141 4.19023C19.0322 5.40621 19.881 6.88876 20.3141 8.50728L14.4448 10.0785C14.6059 10.6824 14.6059 11.3195 14.4448 11.9232L20.3141 13.4945C19.8823 15.113 19.0321 16.5955 17.8142 17.8114L17.8142 17.8115ZM11.5796 8.0395L11.0004 5.21609L10.4643 8.0311C9.87969 8.13659 9.31851 8.41417 8.86724 8.86676C7.68804 10.0451 7.68804 11.9552 8.86724 13.1337C10.0463 14.3108 11.9575 14.3108 13.1365 13.1337C14.3156 11.9552 14.3156 10.0451 13.1365 8.86676C12.6935 8.42661 12.1491 8.15043 11.5796 8.03948L11.5796 8.0395Z" fill="white"/>
</svg>
