<svg width="26" height="26" viewBox="0 0 26 26" fill="none" xmlns="http://www.w3.org/2000/svg">
<mask id="path-1-inside-1" fill="white">
<path fill-rule="evenodd" clip-rule="evenodd" d="M0 9.77712C0 3.41479 7.85433 0.233043 11.735 6.0736C15.565 0.32015 22.7236 3.3687 22.9363 9.49669C21.5532 9.21577 20.1504 9.5591 19.4447 10.5C17.2225 8.27777 11.3891 9.38892 11.3891 13.8333C11.092 15.7249 13.1776 18.135 15.2941 20.0108C14.3442 20.8341 13.4816 21.5409 12.8355 22.0704C12.2845 22.5219 11.891 22.8443 11.735 23C11.5672 22.8314 11.1046 22.4672 10.4543 21.9554C7.35611 19.5165 0 13.726 0 9.77712Z"/>
</mask>
<path fill-rule="evenodd" clip-rule="evenodd" d="M0 9.77712C0 3.41479 7.85433 0.233043 11.735 6.0736C15.565 0.32015 22.7236 3.3687 22.9363 9.49669C21.5532 9.21577 20.1504 9.5591 19.4447 10.5C17.2225 8.27777 11.3891 9.38892 11.3891 13.8333C11.092 15.7249 13.1776 18.135 15.2941 20.0108C14.3442 20.8341 13.4816 21.5409 12.8355 22.0704C12.2845 22.5219 11.891 22.8443 11.735 23C11.5672 22.8314 11.1046 22.4672 10.4543 21.9554C7.35611 19.5165 0 13.726 0 9.77712Z" fill="#FF759E"/>
<path d="M11.735 6.0736L11.3186 6.35031L11.7346 6.9765L12.1512 6.35067L11.735 6.0736ZM22.9363 9.49669L22.8368 9.98668L23.458 10.1129L23.436 9.47935L22.9363 9.49669ZM19.4447 10.5L19.0912 10.8535L19.4988 11.2612L19.8447 10.8L19.4447 10.5ZM11.3891 13.8333L11.883 13.9109L11.8891 13.8724L11.8891 13.8333L11.3891 13.8333ZM15.2941 20.0108L15.6216 20.3887L16.0527 20.0151L15.6257 19.6367L15.2941 20.0108ZM12.8355 22.0704L12.5186 21.6836L12.5186 21.6836L12.8355 22.0704ZM11.735 23L11.3806 23.3527L11.7338 23.7076L12.0882 23.3539L11.735 23ZM10.4543 21.9554L10.7636 21.5625L10.7636 21.5625L10.4543 21.9554ZM12.1515 5.7969C10.0826 2.68323 6.90773 1.94218 4.24645 2.87757C1.60521 3.80591 -0.5 6.37573 -0.5 9.77712H0.5C0.5 6.81618 2.32196 4.61396 4.57805 3.82099C6.81411 3.03506 9.50672 3.62342 11.3186 6.35031L12.1515 5.7969ZM23.436 9.47935C23.3228 6.21761 21.3547 3.73796 18.8584 2.85804C16.3345 1.96843 13.3527 2.74112 11.3188 5.79654L12.1512 6.35067C13.9473 3.65263 16.4597 3.07287 18.5259 3.80117C20.6196 4.53916 22.3371 6.64777 22.4366 9.51403L23.436 9.47935ZM23.0358 9.00669C21.5423 8.70335 19.9077 9.04929 19.0447 10.2L19.8447 10.8C20.393 10.0689 21.5641 9.7282 22.8368 9.98668L23.0358 9.00669ZM19.7983 10.1464C18.5147 8.86285 16.2843 8.59747 14.4312 9.19046C12.5427 9.79477 10.8891 11.3412 10.8891 13.8333L11.8891 13.8333C11.8891 11.881 13.1521 10.6497 14.7359 10.1429C16.3551 9.62475 18.1525 9.9149 19.0912 10.8535L19.7983 10.1464ZM10.8951 13.7558C10.7154 14.9001 11.259 16.1139 12.0264 17.2141C12.8072 18.3333 13.8901 19.4346 14.9625 20.385L15.6257 19.6367C14.5816 18.7113 13.5635 17.6696 12.8466 16.6419C12.1163 15.5951 11.7656 14.6581 11.883 13.9109L10.8951 13.7558ZM13.1524 22.4571C13.7985 21.9277 14.6659 21.217 15.6216 20.3887L14.9666 19.633C14.0225 20.4513 13.1647 21.1542 12.5186 21.6836L13.1524 22.4571ZM12.0882 23.3539C12.2217 23.2207 12.5869 22.9205 13.1524 22.4571L12.5186 21.6836C11.9821 22.1232 11.5603 22.4679 11.3818 22.6461L12.0882 23.3539ZM10.1451 22.3482C10.8143 22.8751 11.2407 23.2121 11.3806 23.3527L12.0894 22.6473C11.8938 22.4508 11.3948 22.0594 10.7636 21.5625L10.1451 22.3482ZM-0.5 9.77712C-0.5 10.9079 0.0210497 12.1091 0.77849 13.2753C1.54253 14.4516 2.58489 15.6492 3.71022 16.7845C5.96125 19.0555 8.59827 21.1307 10.1451 22.3482L10.7636 21.5625C9.21216 20.3412 6.62202 18.3017 4.42045 16.0805C3.31947 14.9697 2.32917 13.8268 1.61711 12.7306C0.898464 11.6242 0.5 10.6208 0.5 9.77712H-0.5Z" fill="#FF759E" mask="url(#path-1-inside-1)"/>
<path d="M19.1092 12.5435L19.3137 12.8351L19.5185 12.5437C20.5375 11.0931 21.9806 10.7879 23.1632 11.2073C24.3559 11.6303 25.3055 12.7971 25.3055 14.3546C25.3055 14.9011 24.9912 15.5652 24.4557 16.2878C23.9266 17.0018 23.2104 17.7349 22.4694 18.4127C21.7296 19.0895 20.9718 19.7051 20.3632 20.1848C20.1446 20.3571 19.9462 20.5112 19.7743 20.6447C19.7067 20.6972 19.6432 20.7465 19.5842 20.7924C19.4809 20.8729 19.3887 20.9452 19.3127 21.0066C19.2333 20.9442 19.1366 20.8709 19.0285 20.7897C18.9435 20.7258 18.85 20.6561 18.7486 20.5805C18.5896 20.4619 18.4113 20.3289 18.216 20.1815C17.5797 19.7016 16.7849 19.0858 16.0081 18.4087C15.2299 17.7306 14.477 16.9972 13.9205 16.283C13.3566 15.5593 13.0278 14.8969 13.0278 14.3546C13.0278 11.2236 17.098 9.67524 19.1092 12.5435Z" fill="#FF759E" stroke="#FF759E" stroke-width="0.5"/>
</svg>
