<svg width="37" height="20" viewBox="0 0 37 20" fill="none" xmlns="http://www.w3.org/2000/svg">
<g clip-path="url(#clip0)">
<path d="M10.7813 5.3918C10.7811 6.45797 10.4647 7.50013 9.8722 8.3865C9.27968 9.27286 8.43763 9.96362 7.45252 10.3714C6.46742 10.7792 5.38352 10.8857 4.33788 10.6775C3.29224 10.4693 2.33182 9.95568 1.57808 9.20162C0.824347 8.44757 0.311139 7.48694 0.10336 6.44121C-0.104418 5.39548 0.00256362 4.31162 0.410778 3.32669C0.818992 2.34176 1.5101 1.5 2.39672 0.907857C3.28333 0.315711 4.32563 -0.000225119 5.3918 1.2035e-07C6.82129 0.000302147 8.19214 0.568378 9.20283 1.57929C10.2135 2.5902 10.7813 3.96116 10.7813 5.39066" fill="#F89E2D"/>
<path d="M22.398 17.3838C22.3982 17.8813 22.2509 18.3677 21.9746 18.7814C21.6984 19.1951 21.3056 19.5176 20.8461 19.7081C20.3865 19.8986 19.8807 19.9485 19.3928 19.8515C18.9049 19.7545 18.4567 19.515 18.1049 19.1632C17.7531 18.8114 17.5136 18.3632 17.4166 17.8753C17.3196 17.3874 17.3695 16.8816 17.56 16.422C17.7505 15.9625 18.073 15.5697 18.4867 15.2935C18.9004 15.0172 19.3868 14.8699 19.8843 14.8701C20.5509 14.8704 21.1901 15.1354 21.6614 15.6067C22.1327 16.078 22.3977 16.7172 22.398 17.3838" fill="#7B26DA"/>
<path d="M19.0009 5.70499C19.0108 6.02663 18.9246 6.34393 18.7531 6.61625C18.5816 6.88856 18.3328 7.10349 18.0384 7.2335C17.7441 7.36351 17.4176 7.40269 17.1008 7.34601C16.784 7.28933 16.4914 7.13938 16.2604 6.91537C16.0294 6.69135 15.8705 6.40347 15.8041 6.08859C15.7377 5.77372 15.7668 5.44619 15.8877 5.14796C16.0086 4.84973 16.2157 4.59438 16.4826 4.41462C16.7495 4.23485 17.064 4.13886 17.3858 4.13893C17.8074 4.13344 18.2139 4.29512 18.5166 4.5886C18.8192 4.88208 18.9934 5.28347 19.0009 5.70499Z" fill="#0D053B"/>
<path d="M7.83407 17.3588V5.26311H10.7726V14.8132H15.4537V17.3588H7.83407ZM25.8059 6.51026C25.7034 6.47609 25.5838 6.44762 25.4472 6.42484C25.3105 6.40206 25.1738 6.39067 25.0371 6.39067C24.7752 6.39067 24.5645 6.43623 24.405 6.52735C24.2456 6.61846 24.1203 6.74375 24.0292 6.9032C23.938 7.05126 23.8754 7.22211 23.8412 7.41573C23.8071 7.60935 23.79 7.80297 23.79 7.99659V8.85081H25.6863V10.9522H23.79V17.3588H20.9882V10.9522H19.4335V8.85081H20.9882V8.03076C20.9882 7.50685 21.0451 7.0114 21.159 6.54443C21.2729 6.06607 21.4665 5.65035 21.7399 5.29728C22.0246 4.93281 22.4005 4.64808 22.8674 4.44306C23.3458 4.22666 23.938 4.11846 24.6442 4.11846C24.8834 4.11846 25.1169 4.13555 25.3447 4.16972C25.5838 4.1925 25.8002 4.23236 25.9939 4.28931L25.8059 6.51026ZM35.7705 13.0706C35.7705 13.7654 35.6452 14.3975 35.3946 14.967C35.144 15.5251 34.8024 16.0034 34.3696 16.4021C33.9368 16.7893 33.4356 17.0911 32.8661 17.3075C32.2967 17.5239 31.6873 17.6321 31.0381 17.6321C30.4003 17.6321 29.791 17.5239 29.2101 17.3075C28.6406 17.0911 28.1395 16.7893 27.7067 16.4021C27.2853 16.0034 26.9493 15.5251 26.6987 14.967C26.4481 14.3975 26.3229 13.7654 26.3229 13.0706C26.3229 12.3759 26.4481 11.7494 26.6987 11.1914C26.9493 10.6333 27.2853 10.1606 27.7067 9.77336C28.1395 9.38612 28.6406 9.08999 29.2101 8.88498C29.791 8.67997 30.4003 8.57746 31.0381 8.57746C31.6873 8.57746 32.2967 8.67997 32.8661 8.88498C33.4356 9.08999 33.9368 9.38612 34.3696 9.77336C34.8024 10.1606 35.144 10.6333 35.3946 11.1914C35.6452 11.7494 35.7705 12.3759 35.7705 13.0706ZM33.0711 13.0706C33.0711 12.7973 33.0256 12.5296 32.9345 12.2677C32.8434 12.0057 32.7124 11.7779 32.5415 11.5843C32.3707 11.3793 32.16 11.2141 31.9094 11.0888C31.6588 10.9636 31.3684 10.9009 31.0381 10.9009C30.7078 10.9009 30.4174 10.9636 30.1668 11.0888C29.9163 11.2141 29.7055 11.3793 29.5347 11.5843C29.3753 11.7779 29.25 12.0057 29.1588 12.2677C29.0791 12.5296 29.0393 12.7973 29.0393 13.0706C29.0393 13.344 29.0791 13.6116 29.1588 13.8736C29.25 14.1355 29.3809 14.3747 29.5518 14.5911C29.7226 14.7961 29.9333 14.9613 30.1839 15.0866C30.4345 15.2119 30.7249 15.2745 31.0552 15.2745C31.3855 15.2745 31.6759 15.2119 31.9265 15.0866C32.1771 14.9613 32.3878 14.7961 32.5586 14.5911C32.7295 14.3747 32.8547 14.1355 32.9345 13.8736C33.0256 13.6116 33.0711 13.344 33.0711 13.0706Z" fill="#0D053B"/>
<path d="M18.8418 8.94763H16.0445V17.4431H18.8418V8.94763Z" fill="#0D053B"/>
<path d="M36.9999 5.41005C36.9999 5.66627 36.9239 5.91673 36.7815 6.12974C36.6391 6.34275 36.4368 6.50873 36.2 6.60668C35.9632 6.70463 35.7027 6.73014 35.4515 6.67998C35.2002 6.62983 34.9695 6.50627 34.7885 6.32494C34.6074 6.1436 34.4843 5.91264 34.4346 5.66129C34.3849 5.40994 34.4108 5.14949 34.5092 4.9129C34.6076 4.67631 34.7739 4.47422 34.9872 4.3322C35.2004 4.19018 35.451 4.11461 35.7072 4.11506C36.0503 4.11566 36.3791 4.25237 36.6215 4.49516C36.8638 4.73795 37 5.06699 36.9999 5.41005" fill="#DE1FD6"/>
</g>
<defs>
<clipPath id="clip0">
<rect width="37" height="20" fill="white"/>
</clipPath>
</defs>
</svg>
