<svg width="50" height="50" viewBox="0 0 50 50" fill="none" xmlns="http://www.w3.org/2000/svg">
<g clip-path="url(#clip0)">
<g filter="url(#filter0_d)">
<circle cx="25" cy="25" r="22" fill="#0D053C"/>
</g>
<path d="M24.2233 19.1333C23.4617 19.1333 22.9332 19.6965 22.9332 20.4788C22.9332 21.261 23.4617 21.8242 24.2233 21.8242C24.9849 21.8242 25.5133 21.261 25.5133 20.4788C25.5133 19.6965 24.9849 19.1333 24.2233 19.1333ZM23.0265 22.888V31.3047H25.4201V22.888H23.0265Z" fill="#0D053C"/>
<path d="M31.5402 21.5739C31.8821 21.5739 32.2707 21.699 32.5816 21.9337L33.4364 20.1815C32.8458 19.7904 32.022 19.587 31.2449 19.587C29.5663 19.587 28.1674 20.5883 28.1674 22.4656V23.2635H27.0483V24.9374H28.1674V31.3047H30.5455V24.9374H32.5194V23.2635H30.5455V22.5595C30.5455 21.8868 30.9807 21.5739 31.5402 21.5739Z" fill="#0D053C"/>
<path d="M24.2233 19.1333C23.4617 19.1333 22.9332 19.6965 22.9332 20.4788C22.9332 21.261 23.4617 21.8242 24.2233 21.8242C24.9849 21.8242 25.5133 21.261 25.5133 20.4788C25.5133 19.6965 24.9849 19.1333 24.2233 19.1333ZM23.0265 22.888V31.3047H25.4201V22.888H23.0265Z" fill="white"/>
<path d="M31.5402 21.5739C31.8821 21.5739 32.2707 21.699 32.5816 21.9337L33.4364 20.1815C32.8458 19.7904 32.022 19.587 31.2449 19.587C29.5663 19.587 28.1674 20.5883 28.1674 22.4656V23.2635H27.0483V24.9374H28.1674V31.3047H30.5455V24.9374H32.5194V23.2635H30.5455V22.5595C30.5455 21.8868 30.9807 21.5739 31.5402 21.5739Z" fill="white"/>
<ellipse cx="11.3976" cy="20.9667" rx="5.46429" ry="5.5" fill="#0D053C"/>
<ellipse cx="42.1192" cy="20.8425" rx="1.21429" ry="1.22222" fill="#DE1FD6"/>
<ellipse cx="27.1832" cy="31.4759" rx="2.30714" ry="2.32222" fill="#0D053C"/>
<path fill-rule="evenodd" clip-rule="evenodd" d="M14.4333 25.5418C15.8976 24.5551 16.8616 22.875 16.8616 20.9682C16.8616 20.7614 16.8503 20.5573 16.8282 20.3565H14.4333V25.5418Z" fill="white"/>
<ellipse cx="27.3071" cy="31.3222" rx="2.30714" ry="2.32222" fill="#7B26DA"/>
<path d="M24.2237 19.1342C23.4621 19.1342 22.9337 19.6974 22.9337 20.4796C22.9337 21.2618 23.4621 21.825 24.2237 21.825C24.9853 21.825 25.5138 21.2618 25.5138 20.4796C25.5138 19.6974 24.9853 19.1342 24.2237 19.1342ZM23.0269 22.8889V31.3056H25.4205V22.8889H23.0269Z" fill="white"/>
<path d="M31.5406 21.5747C31.8826 21.5747 32.2711 21.6999 32.582 21.9345L33.4369 20.1824C32.8462 19.7913 32.0225 19.5879 31.2453 19.5879C29.5667 19.5879 28.1678 20.5891 28.1678 22.4665V23.2643H27.0487V24.9383H28.1678V31.3056H30.5459V24.9383H32.5198V23.2643H30.5459V22.5603C30.5459 21.8876 30.9811 21.5747 31.5406 21.5747Z" fill="white"/>
<ellipse cx="11.3976" cy="20.9667" rx="5.46429" ry="5.5" fill="#F89E2D"/>
<path d="M14.4333 20.3565V31.3076H21.5519V29.1487H16.8891V20.3565H14.4333Z" fill="white"/>
<path d="M37.0609 22.8127C34.372 22.8127 32.569 24.5179 32.569 27.0993C32.569 29.665 34.372 31.4015 37.0609 31.4015C39.7343 31.4015 41.5372 29.665 41.5372 27.0993C41.5372 24.5179 39.7343 22.8127 37.0609 22.8127ZM37.0609 24.8152C38.2888 24.8152 39.1436 25.7538 39.1436 27.1306C39.1436 28.5073 38.2888 29.4459 37.0609 29.4459C35.8175 29.4459 34.9781 28.5073 34.9781 27.1306C34.9781 25.7538 35.8175 24.8152 37.0609 24.8152Z" fill="white"/>
</g>
<defs>
<filter id="filter0_d" x="-2" y="-2" width="54" height="54" filterUnits="userSpaceOnUse" color-interpolation-filters="sRGB">
<feFlood flood-opacity="0" result="BackgroundImageFix"/>
<feColorMatrix in="SourceAlpha" type="matrix" values="0 0 0 0 0 0 0 0 0 0 0 0 0 0 0 0 0 0 127 0"/>
<feOffset/>
<feGaussianBlur stdDeviation="2.5"/>
<feColorMatrix type="matrix" values="0 0 0 0 0.0509625 0 0 0 0 0.0213889 0 0 0 0 0.233333 0 0 0 0.2 0"/>
<feBlend mode="normal" in2="BackgroundImageFix" result="effect1_dropShadow"/>
<feBlend mode="normal" in="SourceGraphic" in2="effect1_dropShadow" result="shape"/>
</filter>
<clipPath id="clip0">
<rect width="50" height="50" fill="white"/>
</clipPath>
</defs>
</svg>
