<svg width="21" height="21" viewBox="0 0 21 21" fill="none" xmlns="http://www.w3.org/2000/svg">
<path d="M10.4997 1.2832C5.4097 1.2832 1.2832 5.4097 1.2832 10.4997C1.2832 15.5898 5.4097 19.7163 10.4997 19.7163C15.5898 19.7163 19.7163 15.5898 19.7163 10.4997C19.7163 5.4097 15.5898 1.2832 10.4997 1.2832ZM15.258 13.2755C15.258 13.7843 14.8299 14.2006 14.3064 14.2006H6.69302C6.1696 14.2006 5.74146 13.7843 5.74146 13.2755L5.74583 8.70478L10.3857 11.1654C10.4209 11.1839 10.46 11.1936 10.4997 11.1936C10.5395 11.1936 10.5786 11.1839 10.6138 11.1654L15.258 8.70246V13.2755ZM10.502 10.2966L5.74636 7.71554C5.75097 7.21056 6.17268 6.79884 6.69304 6.79884H14.3065C14.8261 6.79884 15.2519 7.20902 15.258 7.71298L10.5021 10.2966H10.502Z" fill="#414BB2"/>
</svg>
