<svg width="22" height="22" viewBox="0 0 22 22" fill="none" xmlns="http://www.w3.org/2000/svg">
<path d="M12.813 19.3133H13.1298L13.1386 19.2539L12.8086 19.3133" fill="#F2A307"/>
<path d="M17.0502 7.21875H16.7675L16.7246 7.54875L17.0502 7.21875Z" fill="#EDA607"/>
<path d="M10.9993 2.5293C9.32409 2.5293 7.68651 3.02605 6.29362 3.95675C4.90074 4.88744 3.81512 6.21028 3.17404 7.75797C2.53297 9.30566 2.36523 11.0087 2.69205 12.6517C3.01887 14.2947 3.82556 15.8039 5.01011 16.9885C6.19466 18.173 7.70387 18.9797 9.34689 19.3065C10.9899 19.6334 12.6929 19.4656 14.2406 18.8246C15.7883 18.1835 17.1112 17.0979 18.0419 15.705C18.9725 14.3121 19.4693 12.6745 19.4693 10.9993C19.4664 8.75381 18.5731 6.60112 16.9853 5.01332C15.3975 3.42551 13.2448 2.53221 10.9993 2.5293Z" fill="#F5C607"/>
<path d="M19.4701 10.9997C19.4627 9.63928 19.1384 8.29926 18.523 7.08594L16.5155 7.09804L8.98047 16.8704L13.892 18.9604C15.5252 18.3646 16.936 17.2816 17.9337 15.8578C18.9313 14.4341 19.4676 12.7382 19.4701 10.9997Z" fill="#F28F0C"/>
<path d="M10.1648 12.5579L8.73478 7.81584L8.55548 7.08984H5.45898V7.88954H6.28618L9.00098 16.8656H11.4672L17.1872 7.09534H13.0754L10.1648 12.5579Z" fill="white"/>
</svg>
