<svg width="26" height="26" viewBox="0 0 26 26" fill="none" xmlns="http://www.w3.org/2000/svg">
<path d="M8.66388 24H11.6487C12.0402 24 12.3779 23.6503 12.3779 23.2131V16.2477L10.3521 15.0527L7.93464 16.5972V23.2131C7.93464 23.6502 8.25874 24 8.66388 24ZM0 16.389L9.74832 10.1112L10.3138 9.74451L10.8928 10.0965L13.8146 11.842L21.6375 4.55217L20.5334 3.17341L23.2667 2.58671L26 2L25.0979 4.87486L24.1958 7.74971L23.159 6.45896L14.7167 14.3355L14.1108 14.9075L13.4107 14.4822L10.3542 12.6487L1.17141 18.5598L0 16.389ZM2.4702 24H5.45502C5.84657 24 6.18426 23.6471 6.18426 23.206V17.6929L1.74096 20.545V23.206C1.74059 23.3104 1.7592 23.4139 1.79572 23.5105C1.83224 23.607 1.88595 23.6947 1.95374 23.7685C2.02154 23.8423 2.10208 23.9008 2.19072 23.9405C2.27936 23.9802 2.37435 24.0005 2.4702 24ZM14.8576 24H17.8424C18.2339 24 18.5716 23.6494 18.5716 23.2112V13.4095C18.5716 13.3657 18.5716 13.3218 18.5582 13.2926L14.1822 17.339L14.1282 17.3096V23.2258C14.1282 23.6494 14.4523 24 14.8574 24H14.8576ZM21.1859 24H24.1707C24.5623 24 24.8999 23.6465 24.8999 23.2049V11.2771L23.1038 9.039L20.4567 11.5128V23.2049C20.4562 23.3094 20.4748 23.4129 20.5112 23.5095C20.5477 23.6062 20.6014 23.694 20.6692 23.7679C20.737 23.8418 20.8176 23.9004 20.9062 23.9402C20.9949 23.9801 21.09 24.0004 21.1859 24Z" fill="#0D053B"/>
</svg>
