<svg width="509" height="347" viewBox="0 0 509 347" fill="none" xmlns="http://www.w3.org/2000/svg">
<g clip-path="url(#clip0)">
<path d="M192.703 330.626C192.703 339.667 150.26 347 97.9023 347C45.5448 347 3.10156 339.667 3.10156 330.626C3.10156 328.364 5.75067 326.213 10.5439 324.257C24.4982 318.553 56.6285 314.499 94.3937 314.264C95.5588 314.255 96.7283 314.251 97.9023 314.251C150.26 314.251 192.703 321.584 192.703 330.626Z" fill="#3F3D56"/>
<path opacity="0.1" d="M94.3929 314.264C90.1449 321.182 84.3842 327.05 77.5428 331.428C70.7014 335.805 62.9568 338.579 54.8896 339.54C46.8224 340.502 38.642 339.626 30.9618 336.979C23.2816 334.332 16.3008 329.983 10.543 324.257C24.4973 318.552 56.6276 314.498 94.3929 314.264Z" fill="black"/>
<path d="M49.6153 331.068C77.0171 331.068 99.2306 307.291 99.2306 277.961C99.2306 248.631 77.0171 224.854 49.6153 224.854C22.2135 224.854 0 248.631 0 277.961C0 307.291 22.2135 331.068 49.6153 331.068Z" fill="#3F3D56"/>
<path d="M110.492 36.8813C117.527 63.9556 140.221 81.4548 161.232 76.0063L110.492 36.8813Z" fill="#3F3D56"/>
<path d="M161.233 76.006C154.12 48.6276 167.336 21.5533 190.783 15.4731L161.233 76.006Z" fill="#6C63FF"/>
<path d="M124.902 35.7642C131.585 61.4818 147.833 79.4807 161.232 76.0063L124.902 35.7642Z" fill="#6C63FF"/>
<path d="M161.235 76.0063C152.145 41.0228 166.719 7.02776 193.82 0L161.235 76.0063Z" fill="#3F3D56"/>
<path d="M153.328 78.4254C153.328 78.4254 158.676 76.8616 160 75.2846C161.325 73.7075 167.634 70.5984 168.518 72.3475C169.403 74.0965 179.015 79.4654 172.942 81.0927C166.868 82.72 158.554 83.8128 156.676 83.2466C154.798 82.6803 153.328 78.4254 153.328 78.4254Z" fill="#A8A8A8"/>
<path opacity="0.2" d="M172.883 80.4197C166.809 82.047 158.495 83.1398 156.617 82.5735C155.187 82.1423 153.994 79.5734 153.506 78.3721C153.394 78.4065 153.328 78.4257 153.328 78.4257C153.328 78.4257 154.798 82.6806 156.676 83.2469C158.554 83.8132 166.868 82.7204 172.942 81.0931C174.695 80.6234 175.139 79.8415 174.866 78.9253C174.767 79.5474 174.187 80.0701 172.883 80.4197Z" fill="black"/>
<path d="M508.998 55.7974H151.945V262.472H508.998V55.7974Z" fill="#F2F2F2"/>
<path opacity="0.3" d="M356.167 118.53H160.363V220.982H356.167V118.53Z" fill="#6C63FF"/>
<path d="M449.765 114.063H371.23V118.404H449.765V114.063Z" fill="#3F3D56"/>
<path d="M485.523 122.076H371.23V126.416H485.523V122.076Z" fill="#3F3D56"/>
<path d="M449.765 141.44H371.23V145.78H449.765V141.44Z" fill="#3F3D56"/>
<path d="M449.765 173.491H371.23V177.831H449.765V173.491Z" fill="#3F3D56"/>
<path d="M485.523 149.452H371.23V153.792H485.523V149.452Z" fill="#3F3D56"/>
<path d="M485.523 157.465H371.23V161.805H485.523V157.465Z" fill="#3F3D56"/>
<path d="M485.523 165.478H371.23V169.818H485.523V165.478Z" fill="#3F3D56"/>
<path d="M412.336 192.854H371.23V204.205H412.336V192.854Z" fill="#6C63FF"/>
<path d="M139.316 180.525C139.316 180.525 146.695 159.638 152.024 166.191C157.354 172.744 143.826 183.801 143.826 183.801L139.316 180.525Z" fill="#A0616A"/>
<path d="M104.473 160.048L108.912 161.692C108.912 161.692 111.032 171.106 110.212 172.744C109.392 174.382 108.982 173.153 110.212 176.43C111.442 179.706 115.131 188.306 115.541 189.535C115.951 190.763 139.317 181.754 139.317 177.249C139.317 177.249 144.237 182.982 146.696 184.211C146.696 184.211 119.64 203.869 115.951 206.326C112.261 208.783 110.212 207.554 106.932 204.688C103.653 201.821 89.7148 178.068 89.7148 178.068L104.473 160.048Z" fill="#575A89"/>
<path d="M116.357 305.433C116.357 305.433 115.947 309.938 115.128 310.348C114.308 310.757 108.159 320.995 115.128 323.043C122.097 325.091 126.196 324.272 127.836 325.091C129.475 325.91 158.171 327.548 158.581 323.043C158.991 318.538 144.643 317.719 144.643 317.719C144.643 317.719 131.525 309.119 129.475 304.614C127.426 300.109 116.357 305.433 116.357 305.433Z" fill="#2F2E41"/>
<path d="M33.1408 313.624C33.1408 313.624 23.3023 330.415 25.7619 332.463C28.2216 334.51 52.1755 341.973 55.6875 342.291C60.1968 342.701 63.4763 339.015 59.7869 336.967C56.0974 334.92 48.3086 326.32 48.3086 323.453V316.081L33.1408 313.624Z" fill="#2F2E41"/>
<path d="M23.7114 203.869C23.7114 203.869 15.1027 214.517 28.6307 231.717L51.1773 260.384C51.1773 260.384 37.2394 282.499 36.8294 293.966C36.4195 305.433 33.5499 302.976 32.7301 307.89C31.9102 312.805 28.2207 310.348 31.0903 314.033C33.9599 317.719 44.6183 320.996 47.8978 318.129C51.1773 315.262 51.1773 311.576 51.1773 309.938C51.1773 308.3 56.9165 298.881 57.3264 296.014C57.7363 293.147 72.9041 269.804 72.9041 269.804C72.9041 269.804 77.8233 255.88 72.0842 248.098C66.3451 240.317 62.5526 229.281 62.5526 229.281C62.5526 229.281 79.4631 249.737 91.3513 254.651C91.3513 254.651 95.8607 255.47 95.0408 257.518C94.2209 259.565 95.0408 260.794 96.2706 262.842C97.5004 264.889 106.109 288.642 108.979 294.785C111.848 300.928 110.618 304.614 113.898 306.662C117.177 308.71 131.935 307.071 131.935 305.024C131.935 302.976 129.886 297.652 128.656 294.785C127.426 291.919 117.587 258.746 118.407 253.013C119.227 247.279 117.997 239.498 111.848 236.222C105.699 232.946 74.5438 206.326 72.9041 206.326C71.2643 206.326 23.7114 203.869 23.7114 203.869Z" fill="#2F2E41"/>
<path d="M106.112 139.571C115.621 139.571 123.329 131.87 123.329 122.371C123.329 112.871 115.621 105.17 106.112 105.17C96.603 105.17 88.8945 112.871 88.8945 122.371C88.8945 131.87 96.603 139.571 106.112 139.571Z" fill="#A0616A"/>
<path d="M92.1732 124.009C92.1732 124.009 86.844 133.429 80.285 134.657C73.726 135.886 97.5024 154.724 97.5024 154.724C97.5024 154.724 103.242 136.705 108.161 135.886C113.08 135.067 92.1732 124.009 92.1732 124.009Z" fill="#A0616A"/>
<path d="M108.98 162.506C108.98 167.83 92.9923 182.982 92.9923 182.982L77.8246 195.678C77.8246 195.678 77.4146 200.183 75.7749 200.592C74.1351 201.002 72.0854 201.002 73.7252 203.459C75.3649 205.916 79.4643 211.24 75.7749 212.059C74.6626 212.228 73.5417 212.335 72.4175 212.379C71.4336 212.436 70.2776 212.489 68.9781 212.538C65.9446 212.645 62.1485 212.715 58.0368 212.686C56.8685 212.682 55.6796 212.668 54.4704 212.645C38.9706 212.338 21.0152 210.556 22.4828 204.688C24.9425 194.859 23.3027 191.583 28.6319 186.259C33.9611 180.935 42.5698 162.506 42.5698 162.506C42.5698 162.506 59.7873 133.429 74.1351 133.429L77.1154 132.646C78.5002 132.282 79.9646 132.362 81.3014 132.875C82.6382 133.388 83.7795 134.308 84.5639 135.505C87.4417 139.883 91.9798 146.46 94.6321 148.581C98.7315 151.858 99.371 149.507 99.371 149.507C99.371 149.507 108.98 157.182 108.98 162.506Z" fill="#575A89"/>
<path d="M72.4963 224.755C72.4963 224.755 84.3846 243.184 77.0057 246.461C69.6267 249.737 65.5273 227.213 65.5273 227.213L72.4963 224.755Z" fill="#A0616A"/>
<path d="M94.8553 120.428C95.516 120.345 95.725 119.512 95.8363 118.856C96.4319 115.343 99.0525 112.011 102.574 111.444C103.92 111.265 105.288 111.376 106.588 111.767C108.45 112.278 110.198 113.137 111.739 114.3C112.552 114.915 113.334 115.628 114.313 115.915C114.959 116.104 117.702 117.323 118.343 117.529C119.752 117.982 120.918 119.456 122.369 119.164C123.758 118.885 124.285 117.21 124.508 115.813C125.017 112.629 123.193 107.88 121.38 105.213C120.004 103.19 117.675 102.025 115.347 101.268C112.619 100.441 109.817 99.8844 106.98 99.6069C103.15 99.1551 99.1836 98.9154 95.5135 100.098C91.8434 101.281 88.5016 104.173 87.8164 107.965C87.6737 108.754 87.647 109.563 87.4721 110.347C87.0454 112.257 85.7799 113.863 85.0417 115.677C84.5091 117.009 84.2619 118.437 84.3159 119.871C84.3698 121.304 84.7239 122.71 85.3551 123.998C86.3773 126.051 88.155 128.025 87.7713 130.286L90.9348 127.794C91.3919 127.535 91.7461 127.127 91.9383 126.638C92.1305 126.149 92.149 125.609 91.9907 125.108L91.5308 121.151C91.4466 120.426 91.3733 119.644 91.736 119.011C93.1421 116.557 93.7535 120.567 94.8553 120.428Z" fill="#2F2E41"/>
<path opacity="0.1" d="M65.1186 196.497L68.9802 212.539C65.0858 212.678 59.933 212.752 54.4725 212.645C53.0951 208.517 51.7792 204.213 50.7708 200.183C47.0813 185.44 53.2304 162.915 56.5099 152.268C59.7894 141.62 67.9882 138.753 67.9882 138.753C67.9882 138.753 72.0876 139.982 77.4168 143.667C82.746 147.353 65.1186 196.497 65.1186 196.497Z" fill="black"/>
<path opacity="0.1" d="M68.396 195.678L72.4175 212.379C71.4336 212.436 70.2777 212.489 68.9781 212.538C65.9446 212.645 62.1485 212.715 58.0368 212.686C56.557 208.3 55.1262 203.672 54.0481 199.364C50.3587 184.62 56.5077 162.096 59.7873 151.448C63.0668 140.8 70.2407 152.472 70.2407 152.472C70.2407 152.472 67.3711 145.51 72.7003 149.196C78.0295 152.881 68.396 195.678 68.396 195.678Z" fill="black"/>
<path d="M69.6249 137.934C69.6249 137.934 61.4261 140.8 58.1466 151.448C54.8671 162.096 48.718 184.621 52.4075 199.364C56.0969 214.107 63.8858 232.536 63.8858 232.536C63.8858 232.536 71.6746 226.803 74.5442 228.031L66.7554 195.678C66.7554 195.678 84.3827 146.534 79.0535 142.848C73.7243 139.162 69.6249 137.934 69.6249 137.934Z" fill="#575A89"/>
<path d="M347.749 107.909H151.945V210.361H347.749V107.909Z" fill="#3F3D56"/>
<path d="M253.493 183.315C265.731 183.315 275.651 173.387 275.651 161.14C275.651 148.892 265.731 138.964 253.493 138.964C241.256 138.964 231.336 148.892 231.336 161.14C231.336 173.387 241.256 183.315 253.493 183.315Z" fill="white"/>
<path d="M253.492 135.185C248.255 135.185 243.135 136.737 238.781 139.643C234.426 142.55 231.032 146.682 229.027 151.516C227.023 156.35 226.499 161.669 227.521 166.801C228.542 171.933 231.064 176.646 234.768 180.346C238.471 184.046 243.19 186.565 248.326 187.586C253.463 188.607 258.788 188.083 263.626 186.081C268.465 184.078 272.601 180.688 275.51 176.337C278.42 171.987 279.973 166.872 279.973 161.64C279.953 154.63 277.156 147.913 272.195 142.956C267.233 137.999 260.509 135.206 253.492 135.185ZM248.056 175.745L234.485 162.187L238.292 158.384L248.069 168.152L268.706 147.535L272.513 151.338L248.056 175.745Z" fill="#6C63FF"/>
</g>
<defs>
<clipPath id="clip0">
<rect width="509" height="347" fill="white"/>
</clipPath>
</defs>
</svg>
