<svg width="26" height="26" viewBox="0 0 26 26" fill="none" xmlns="http://www.w3.org/2000/svg">
<g clip-path="url(#clip0)">
<path d="M2.40625 24.3203C2.40625 24.8389 2.8252 25.2578 3.34375 25.2578H11.7227V14.2422H2.40625V24.3203ZM13.7148 25.2578H22.0938C22.6123 25.2578 23.0312 24.8389 23.0312 24.3203V14.2422H13.7148V25.2578ZM23.5 7.21094H19.1758C19.5742 6.58398 19.8086 5.83984 19.8086 5.04297C19.8086 2.81348 17.9951 1 15.7656 1C14.5527 1 13.46 1.53906 12.7188 2.38867C11.9775 1.53906 10.8848 1 9.67188 1C7.44238 1 5.62891 2.81348 5.62891 5.04297C5.62891 5.83984 5.86035 6.58398 6.26172 7.21094H1.9375C1.41895 7.21094 1 7.62988 1 8.14844V12.25H11.7227V7.21094H13.7148V12.25H24.4375V8.14844C24.4375 7.62988 24.0186 7.21094 23.5 7.21094ZM11.7227 7.09375H9.67188C8.54102 7.09375 7.62109 6.17383 7.62109 5.04297C7.62109 3.91211 8.54102 2.99219 9.67188 2.99219C10.8027 2.99219 11.7227 3.91211 11.7227 5.04297V7.09375ZM15.7656 7.09375H13.7148V5.04297C13.7148 3.91211 14.6348 2.99219 15.7656 2.99219C16.8965 2.99219 17.8164 3.91211 17.8164 5.04297C17.8164 6.17383 16.8965 7.09375 15.7656 7.09375Z" fill="#0D053B"/>
</g>
<defs>
<clipPath id="clip0">
<rect width="23.4375" height="24.2578" fill="white" transform="translate(1 1)"/>
</clipPath>
</defs>
</svg>
