<svg width="490" height="375" viewBox="0 0 490 375" fill="none" xmlns="http://www.w3.org/2000/svg">
<g clip-path="url(#clip0)">
<path opacity="0.1" d="M480.184 101.301C475.339 90.05 468.789 79.6127 460.765 70.3564L191.292 67.7005L413.156 36.5428C398.824 30.8373 383.565 27.8113 368.139 27.6154C346.915 10.6522 320.782 0.992794 293.627 0.0741311C266.471 -0.844531 239.745 7.02663 217.423 22.5167C199.582 13.3428 179.803 8.57463 159.741 8.61117C99.8662 8.61117 49.9767 50.0775 38.7861 105.06L480.184 101.301Z" fill="#606CE6"/>
<path opacity="0.1" d="M489.658 147.417C489.672 132.505 486.822 117.73 481.263 103.893L14.2343 152.91C9.43531 161.619 5.76373 170.904 3.30794 180.54L147.942 202.094L-0.00195312 217.811C4.44832 280.057 57.8146 329.209 123.006 329.209C155.823 329.209 185.644 316.754 207.738 296.443C229.901 317.139 260.01 329.867 293.179 329.867C342.396 329.867 384.873 301.847 404.653 261.336C444.34 248.742 475.167 217.121 485.718 177.56L302.821 149.197H489.64C489.649 148.604 489.658 148.01 489.658 147.417Z" fill="#606CE6"/>
<path opacity="0.1" d="M13.0319 344.092C19.6424 344.092 25.0013 343.355 25.0013 342.446C25.0013 341.537 19.6424 340.801 13.0319 340.801C6.42138 340.801 1.0625 341.537 1.0625 342.446C1.0625 343.355 6.42138 344.092 13.0319 344.092Z" fill="#606CE6"/>
<path opacity="0.1" d="M58.8805 348.742C65.491 348.742 70.8499 348.005 70.8499 347.097C70.8499 346.188 65.491 345.451 58.8805 345.451C52.27 345.451 46.9111 346.188 46.9111 347.097C46.9111 348.005 52.27 348.742 58.8805 348.742Z" fill="#606CE6"/>
<path opacity="0.1" d="M112.891 342.445C119.502 342.445 124.861 341.709 124.861 340.8C124.861 339.891 119.502 339.154 112.891 339.154C106.281 339.154 100.922 339.891 100.922 340.8C100.922 341.709 106.281 342.445 112.891 342.445Z" fill="#606CE6"/>
<path opacity="0.1" d="M40.5307 361.502C45.2313 361.502 49.0419 360.979 49.0419 360.334C49.0419 359.689 45.2313 359.166 40.5307 359.166C35.8301 359.166 32.0195 359.689 32.0195 360.334C32.0195 360.979 35.8301 361.502 40.5307 361.502Z" fill="#606CE6"/>
<path opacity="0.1" d="M88.1225 360.334C92.8231 360.334 96.6336 359.811 96.6336 359.166C96.6336 358.521 92.8231 357.998 88.1225 357.998C83.4219 357.998 79.6113 358.521 79.6113 359.166C79.6113 359.811 83.4219 360.334 88.1225 360.334Z" fill="#606CE6"/>
<path d="M59.1393 346.726C59.1393 346.726 42.3487 291.697 61.7631 269.656C76.2914 253.164 92.776 255.139 100.161 257.178C102.071 257.687 103.849 258.606 105.37 259.869C106.89 261.133 108.118 262.712 108.968 264.497C111.551 270.06 111.082 279.103 92.8594 289.652C62.3472 307.317 60.4512 331.545 60.4512 331.545L59.1393 346.726Z" fill="#606CE6"/>
<path d="M97.5344 264.984C97.5344 264.984 48.0435 280.457 59.1414 346.726" stroke="#565987" stroke-width="0.753854" stroke-miterlimit="10"/>
<path d="M68.6309 270.533C68.6309 270.533 75.4454 275.122 73.2666 282.024" stroke="#565987" stroke-width="0.753854" stroke-miterlimit="10"/>
<path d="M92.5683 274.61C92.5683 274.61 88.3962 270.373 83.334 272.71" stroke="#565987" stroke-width="0.753854" stroke-miterlimit="10"/>
<path d="M73.0053 295.933C73.0053 295.933 65.6902 292.224 63.7988 296.86" stroke="#565987" stroke-width="0.753854" stroke-miterlimit="10"/>
<path d="M54.9053 303.665C54.9053 303.665 60.3986 303.229 60.5006 305.857" stroke="#565987" stroke-width="0.753854" stroke-miterlimit="10"/>
<path d="M58.4727 347.166C58.4727 347.166 78.1373 307.169 83.5379 308.045C86.1015 308.463 87.2836 310.984 87.8213 313.52C88.4877 316.806 88.1134 320.218 86.7505 323.281C83.969 329.655 76.4499 341.822 58.4727 347.166Z" fill="#606CE6"/>
<path d="M83.3758 315.637C83.3758 315.637 62.7377 345.561 58.751 346.873" stroke="#565987" stroke-width="0.753854" stroke-miterlimit="10"/>
<path d="M85.2784 320.306H80.4619" stroke="#565987" stroke-width="0.753854" stroke-miterlimit="10"/>
<path d="M79.5079 331.252L71.9609 331.576" stroke="#565987" stroke-width="0.753854" stroke-miterlimit="10"/>
<path d="M74.9102 322.498L75.7307 326.429" stroke="#565987" stroke-width="0.753854" stroke-miterlimit="10"/>
<path d="M66.8838 334.466L67.0321 338.04" stroke="#565987" stroke-width="0.753854" stroke-miterlimit="10"/>
<path d="M59.0435 347.166C59.0435 347.166 39.3788 307.169 33.9782 308.045C31.4147 308.463 30.2326 310.984 29.6948 313.52C29.0336 316.797 29.4095 320.199 30.7703 323.253C33.5564 329.655 41.0523 341.822 59.0435 347.166Z" fill="#606CE6"/>
<path d="M34.126 315.637C34.126 315.637 54.7641 345.561 58.7509 346.873" stroke="#565987" stroke-width="0.753854" stroke-miterlimit="10"/>
<path d="M32.2285 320.306H37.045" stroke="#565987" stroke-width="0.753854" stroke-miterlimit="10"/>
<path d="M37.9961 331.252L45.5477 331.576" stroke="#565987" stroke-width="0.753854" stroke-miterlimit="10"/>
<path d="M42.593 322.498L41.7725 326.429" stroke="#565987" stroke-width="0.753854" stroke-miterlimit="10"/>
<path d="M50.6269 334.466L50.4785 338.04" stroke="#565987" stroke-width="0.753854" stroke-miterlimit="10"/>
<path d="M92.8059 356.505C93.3421 356.07 93.7333 355.481 93.9278 354.818C94.0139 354.485 93.983 354.133 93.8404 353.82C93.6978 353.507 93.4521 353.252 93.1443 353.099C92.4258 352.821 91.6563 353.321 91.0768 353.822C90.4973 354.322 89.8252 354.902 89.0649 354.795C89.453 354.438 89.7422 353.986 89.9047 353.485C90.0671 352.983 90.0972 352.447 89.992 351.931C89.9601 351.716 89.8704 351.514 89.7324 351.347C89.3338 350.92 88.6106 351.106 88.1331 351.439C86.6126 352.505 86.1908 354.568 86.1815 356.427C86.098 355.745 86.0887 355.057 86.1537 354.373C86.1537 353.687 85.959 352.923 85.3795 352.556C85.0209 352.359 84.6156 352.263 84.2067 352.278C83.5206 352.278 82.765 352.32 82.2968 352.821C81.7173 353.442 81.8657 354.48 82.371 355.166C82.9346 355.801 83.6024 356.336 84.3458 356.747C84.9031 357.086 85.3781 357.545 85.7365 358.091C85.778 358.168 85.8121 358.248 85.8385 358.332H90.1172C91.093 357.849 91.9977 357.235 92.8059 356.505Z" fill="#606CE6"/>
<path d="M17.8803 340.398C18.4169 339.962 18.8082 339.374 19.0021 338.71C19.0877 338.377 19.0566 338.024 18.9141 337.71C18.7716 337.397 18.5263 337.141 18.2187 336.986C17.5002 336.713 16.7353 337.213 16.1512 337.714C15.5671 338.214 14.9042 338.789 14.1393 338.683C14.5285 338.326 14.8185 337.875 14.981 337.373C15.1435 336.871 15.173 336.335 15.0664 335.818C15.0317 335.605 14.9404 335.405 14.8022 335.239C14.4035 334.812 13.6804 334.993 13.2029 335.331C11.6824 336.397 11.2605 338.46 11.2512 340.319C11.1677 339.636 11.1584 338.946 11.2234 338.261C11.2234 337.575 11.0334 336.815 10.4539 336.448C10.0936 336.251 9.68681 336.155 9.27644 336.17C8.59499 336.142 7.83473 336.212 7.36652 336.713C6.78706 337.334 6.94004 338.372 7.4407 339.03C8.00363 339.669 8.67342 340.206 9.42014 340.615C9.97886 340.953 10.4542 341.413 10.8109 341.96C10.8528 342.037 10.8884 342.118 10.9175 342.201H15.1962C16.1685 341.724 17.0715 341.117 17.8803 340.398Z" fill="#606CE6"/>
<path d="M42.8489 356.505C43.3851 356.07 43.7763 355.481 43.9707 354.818C44.0568 354.485 44.026 354.133 43.8834 353.82C43.7408 353.507 43.4951 353.252 43.1873 353.099C42.4688 352.821 41.6992 353.321 41.1198 353.822C40.5403 354.322 39.8681 354.902 39.1079 354.795C39.4959 354.438 39.7852 353.986 39.9476 353.485C40.11 352.983 40.1402 352.447 40.035 351.931C40.0031 351.716 39.9133 351.514 39.7754 351.347C39.3767 350.92 38.6536 351.106 38.1761 351.439C36.6556 352.505 36.2337 354.568 36.2245 356.427C36.141 355.745 36.1316 355.057 36.1967 354.373C36.1967 353.687 36.0066 352.923 35.4271 352.556C35.0667 352.36 34.66 352.264 34.2497 352.278C33.5682 352.278 32.808 352.32 32.3398 352.821C31.7603 353.442 31.9086 354.48 32.4139 355.166C32.9776 355.801 33.6454 356.336 34.3887 356.747C34.9461 357.086 35.4211 357.545 35.7794 358.091C35.8209 358.168 35.8551 358.248 35.8814 358.332H40.1602C41.136 357.849 42.0407 357.235 42.8489 356.505Z" fill="#606CE6"/>
<path d="M113.671 323.942C113.671 323.942 115.275 326.042 112.93 329.208C110.584 332.374 108.656 335.048 109.434 337.023C109.434 337.023 112.971 331.141 115.85 331.057C118.729 330.974 116.838 327.479 113.671 323.942Z" fill="#606CE6"/>
<path opacity="0.1" d="M113.669 323.942C113.809 324.145 113.92 324.367 113.998 324.601C116.807 327.901 118.3 330.979 115.602 331.057C113.085 331.132 110.072 335.628 109.349 336.763C109.372 336.851 109.4 336.935 109.432 337.023C109.432 337.023 112.969 331.141 115.848 331.057C118.727 330.974 116.835 327.479 113.669 323.942Z" fill="black"/>
<path d="M116.65 326.617C116.65 327.354 116.567 327.952 116.465 327.952C116.363 327.952 116.279 327.354 116.279 326.617C116.279 325.88 116.386 326.227 116.488 326.227C116.59 326.227 116.65 325.88 116.65 326.617Z" fill="#FFD037"/>
<path d="M117.674 327.499C117.025 327.851 116.46 328.065 116.413 327.963C116.367 327.861 116.849 327.499 117.498 327.161C118.147 326.822 117.887 327.063 117.938 327.161C117.989 327.258 118.323 327.147 117.674 327.499Z" fill="#FFD037"/>
<path d="M105.199 323.942C105.199 323.942 103.595 326.042 105.94 329.208C108.286 332.374 110.219 335.048 109.436 337.023C109.436 337.023 105.899 331.141 103.02 331.057C100.141 330.974 102.051 327.479 105.199 323.942Z" fill="#606CE6"/>
<path opacity="0.1" d="M105.199 323.942C105.06 324.145 104.95 324.367 104.874 324.601C102.065 327.901 100.568 330.979 103.266 331.057C105.783 331.132 108.801 335.628 109.524 336.763C109.496 336.851 109.468 336.935 109.436 337.023C109.436 337.023 105.899 331.141 103.02 331.057C100.141 330.974 102.051 327.479 105.199 323.942Z" fill="black"/>
<path d="M102.214 326.617C102.214 327.354 102.297 327.952 102.399 327.952C102.501 327.952 102.585 327.354 102.585 326.617C102.585 325.88 102.483 326.227 102.381 326.227C102.279 326.227 102.214 325.88 102.214 326.617Z" fill="#FFD037"/>
<path d="M101.191 327.499C101.84 327.851 102.406 328.065 102.457 327.963C102.508 327.861 102.016 327.499 101.372 327.161C100.728 326.822 100.978 327.063 100.909 327.161C100.839 327.258 100.547 327.147 101.191 327.499Z" fill="#FFD037"/>
<path d="M102.726 336.746C102.726 336.746 107.213 336.612 108.562 335.648C109.911 334.684 115.46 333.534 115.798 335.078C116.137 336.621 122.534 342.754 117.472 342.795C112.41 342.837 105.711 342.007 104.362 341.187C103.013 340.366 102.726 336.746 102.726 336.746Z" fill="#A8A8A8"/>
<path opacity="0.2" d="M117.564 342.257C112.502 342.299 105.799 341.469 104.45 340.649C103.421 340.023 103.013 337.779 102.879 336.741H102.726C102.726 336.741 103.013 340.361 104.362 341.182C105.711 342.002 112.41 342.832 117.472 342.79C118.937 342.79 119.437 342.257 119.41 341.488C119.201 341.96 118.649 342.248 117.564 342.257Z" fill="black"/>
<path opacity="0.1" d="M283.884 374.939C368.223 374.939 436.594 371.838 436.594 368.014C436.594 364.189 368.223 361.089 283.884 361.089C199.545 361.089 131.175 364.189 131.175 368.014C131.175 371.838 199.545 374.939 283.884 374.939Z" fill="#606CE6"/>
<path d="M268.327 160.974C268.327 160.974 278.062 179.39 278.817 182.018C279.014 182.748 279.439 183.395 280.029 183.867C280.619 184.339 281.344 184.61 282.1 184.641C282.1 184.641 291.797 186.959 294.115 187.27C296.433 187.58 316.524 189.277 316.524 189.277C316.524 189.277 321.624 189.434 322.24 187.58C322.806 185.884 332.657 176.97 338.359 184.748C338.884 185.468 339.233 186.301 339.376 187.18C339.52 188.06 339.454 188.961 339.184 189.81C338.136 193.147 335.985 198.445 333.676 195.149C330.431 190.514 326.658 191.817 326.658 194.287C326.658 196.758 321.466 195.84 319.769 196.188C318.842 196.378 315.653 197.226 312.895 197.968C309.693 198.833 306.413 199.378 303.104 199.595C297.629 199.951 289.558 200.248 286.698 199.168C283.245 197.856 277.223 197.555 274.645 197.486C273.791 197.465 272.967 197.169 272.295 196.642C268.717 193.842 265.691 190.401 263.371 186.496C259.352 179.543 251.087 165.146 251.643 160.974C252.199 156.803 268.327 160.974 268.327 160.974Z" fill="#EFB7B9"/>
<path opacity="0.05" d="M268.327 160.974C268.327 160.974 278.062 179.39 278.817 182.018C279.014 182.748 279.439 183.395 280.029 183.867C280.619 184.339 281.344 184.61 282.1 184.641C282.1 184.641 291.797 186.959 294.115 187.27C296.433 187.58 316.524 189.277 316.524 189.277C316.524 189.277 321.624 189.434 322.24 187.58C322.806 185.884 332.657 176.97 338.359 184.748C338.884 185.468 339.233 186.301 339.376 187.18C339.52 188.06 339.454 188.961 339.184 189.81C338.136 193.147 335.985 198.445 333.676 195.149C330.431 190.514 326.658 191.817 326.658 194.287C326.658 196.758 321.466 195.84 319.769 196.188C318.842 196.378 315.653 197.226 312.895 197.968C309.693 198.833 306.413 199.378 303.104 199.595C297.629 199.951 289.558 200.248 286.698 199.168C283.245 197.856 277.223 197.555 274.645 197.486C273.791 197.465 272.967 197.169 272.295 196.642C268.717 193.842 265.691 190.401 263.371 186.496C259.352 179.543 251.087 165.146 251.643 160.974C252.199 156.803 268.327 160.974 268.327 160.974Z" fill="black"/>
<path d="M417.93 333.477C417.912 343.326 414.095 352.789 407.273 359.894C400.451 366.999 391.151 371.198 381.309 371.616C371.468 372.034 361.844 368.639 354.444 362.139C347.044 355.639 342.437 346.534 341.584 336.721C341.529 336.1 341.487 335.479 341.468 334.867V334.835C341.45 334.374 341.44 333.911 341.44 333.444C341.44 323.302 345.47 313.576 352.642 306.404C359.814 299.233 369.542 295.204 379.685 295.204C389.828 295.204 399.556 299.233 406.728 306.404C413.9 313.576 417.93 323.302 417.93 333.444V333.477Z" fill="#65617D"/>
<path d="M379.684 354.314C391.205 354.314 400.544 344.976 400.544 333.456C400.544 321.936 391.205 312.598 379.684 312.598C368.163 312.598 358.823 321.936 358.823 333.456C358.823 344.976 368.163 354.314 379.684 354.314Z" fill="#DCE0ED"/>
<path d="M379.685 345.971C386.598 345.971 392.202 340.368 392.202 333.456C392.202 326.545 386.598 320.941 379.685 320.941C372.773 320.941 367.169 326.545 367.169 333.456C367.169 340.368 372.773 345.971 379.685 345.971Z" fill="#65617D"/>
<path d="M279.25 260.835L187.157 262.689V249.117C187.982 238.192 199.21 234.359 209.409 233.159C217.382 232.254 225.455 232.859 233.204 234.943C252.743 240.116 265.19 241.117 271.323 241.215C272.669 241.235 273.967 241.719 274.998 242.585C276.028 243.452 276.728 244.648 276.979 245.97C277.271 247.523 277.558 249.215 277.827 250.883C278.031 252.191 278.226 253.479 278.402 254.68C278.912 258.138 279.25 260.835 279.25 260.835Z" fill="#65617D"/>
<path d="M352.72 335.924H161.41C159.933 335.939 158.484 335.52 157.243 334.718C156.003 333.916 155.025 332.767 154.433 331.414C152.991 327.97 155.008 325.773 157.159 324.485C161.561 321.876 164.898 317.794 166.578 312.962C168.618 306.936 170.611 297.508 171.395 282.777C172.202 267.542 177.718 260.009 183.68 256.357C191.379 251.647 199.821 253.413 199.821 253.413L277.39 254.035C278.771 254.661 280.048 255.494 281.178 256.505C288.089 262.939 278.011 271.338 278.011 271.338C256.377 294.203 272.755 317.379 272.755 317.379H312.445C319.861 317.417 327.113 315.197 333.237 311.015C338.6 307.307 340.654 303.724 341.479 301.554C342.091 299.895 342.712 298.24 343.454 296.637C353.866 274.059 341.307 237.329 335.888 223.595C334.544 220.179 333.64 218.186 333.64 218.186L346.087 217.259L353.967 216.661H354.046C371.393 246.577 377.841 277.317 380.006 300.094C380.21 302.24 380.377 304.322 380.512 306.319C380.757 310.118 380.22 313.926 378.934 317.508C377.648 321.091 375.641 324.371 373.035 327.147C370.43 329.922 367.283 332.133 363.789 333.643C360.294 335.152 356.527 335.929 352.72 335.924Z" fill="#606CE6"/>
<path opacity="0.1" d="M278.406 254.679H187.157V250.883H277.832C278.036 252.167 278.23 253.455 278.406 254.679Z" fill="black"/>
<path opacity="0.1" d="M281.183 256.532H184.417C184.165 256.533 183.916 256.483 183.685 256.384C191.384 251.675 199.826 253.441 199.826 253.441L277.395 254.062C278.776 254.688 280.053 255.521 281.183 256.532Z" fill="black"/>
<path d="M281.988 251.787H150.556C149.509 251.787 148.66 252.636 148.66 253.683V253.688C148.66 254.735 149.509 255.583 150.556 255.583H281.988C283.035 255.583 283.884 254.735 283.884 253.688V253.683C283.884 252.636 283.035 251.787 281.988 251.787Z" fill="#DCE0ED"/>
<path opacity="0.1" d="M380.004 300.105C375.596 304.898 372.351 306.784 372.504 301.727C372.967 286.431 346.08 217.274 346.08 217.274L354.03 216.672C371.382 246.564 377.835 277.305 380.004 300.105Z" fill="black"/>
<path opacity="0.1" d="M417.699 329.264C413.132 330.358 407.5 331.471 400.546 332.509C397.96 332.889 395.178 333.254 392.202 333.603C385.096 334.447 376.877 335.184 367.383 335.749C364.694 335.91 361.902 336.056 359.006 336.189C353.582 336.437 347.777 336.625 341.59 336.755L341.474 334.901V334.868C350.119 331.378 363.725 322.066 365.913 297.81C371.377 295.705 377.251 294.881 383.084 295.403C388.916 295.925 394.55 297.779 399.554 300.821C404.557 303.863 408.795 308.013 411.941 312.95C415.088 317.888 417.059 323.482 417.703 329.301L417.699 329.264Z" fill="black"/>
<path d="M334.261 335.925C334.261 335.925 378.161 331.16 363.039 264.279C363.039 264.279 384.73 284.164 398.224 295.215C411.719 306.265 435.773 321.501 435.773 321.501C435.773 321.501 421.412 334.919 334.261 335.925Z" fill="#606CE6"/>
<path opacity="0.1" d="M334.261 335.925C334.261 335.925 378.161 331.16 363.039 264.279C363.039 264.279 384.73 284.164 398.224 295.215C411.719 306.265 435.773 321.501 435.773 321.501C435.773 321.501 421.412 334.919 334.261 335.925Z" fill="white"/>
<path d="M216.979 371.695C238.101 371.695 255.224 354.575 255.224 333.455C255.224 312.336 238.101 295.215 216.979 295.215C195.857 295.215 178.734 312.336 178.734 333.455C178.734 354.575 195.857 371.695 216.979 371.695Z" fill="#65617D"/>
<path d="M216.978 354.314C228.499 354.314 237.839 344.976 237.839 333.456C237.839 321.936 228.499 312.598 216.978 312.598C205.457 312.598 196.117 321.936 196.117 333.456C196.117 344.976 205.457 354.314 216.978 354.314Z" fill="#DCE0ED"/>
<path d="M216.979 345.971C223.892 345.971 229.496 340.368 229.496 333.456C229.496 326.545 223.892 320.941 216.979 320.941C210.067 320.941 204.463 326.545 204.463 333.456C204.463 340.368 210.067 345.971 216.979 345.971Z" fill="#65617D"/>
<path opacity="0.1" d="M259.856 321.969C259.856 297.277 240.242 277.258 216.049 277.258C191.855 277.258 172.241 297.277 172.241 321.969C172.241 323.013 172.277 324.047 172.348 325.07H259.749C259.82 324.047 259.856 323.013 259.856 321.969Z" fill="black"/>
<path d="M258.235 321.201C258.235 297.422 239.349 278.145 216.05 278.145C192.751 278.145 173.865 297.422 173.865 321.201C173.865 322.207 173.902 323.199 173.967 324.186H258.133C258.198 323.199 258.235 322.207 258.235 321.201Z" fill="#606CE6"/>
<path opacity="0.1" d="M258.235 321.201C258.235 321.891 258.235 322.591 258.184 323.259C258.184 323.569 258.152 323.875 258.133 324.186H173.967C173.967 323.875 173.93 323.569 173.916 323.259C173.884 322.577 173.865 321.868 173.865 321.201C173.865 297.422 192.751 278.145 216.05 278.145C239.349 278.145 258.235 297.422 258.235 321.201Z" fill="white"/>
<path opacity="0.1" d="M258.183 323.28C258.183 323.591 258.15 323.897 258.132 324.207H173.966C173.966 323.897 173.929 323.591 173.915 323.28H258.183Z" fill="black"/>
<path opacity="0.1" d="M263.798 325.109H160.356C157.625 325.109 155.41 327.323 155.41 330.053C155.41 332.783 157.625 334.996 160.356 334.996H263.798C266.529 334.996 268.744 332.783 268.744 330.053C268.744 327.323 266.529 325.109 263.798 325.109Z" fill="black"/>
<path d="M263.798 324.186H160.356C157.625 324.186 155.41 326.399 155.41 329.129C155.41 331.859 157.625 334.072 160.356 334.072H263.798C266.529 334.072 268.744 331.859 268.744 329.129C268.744 326.399 266.529 324.186 263.798 324.186Z" fill="#DCE0ED"/>
<path opacity="0.1" d="M372.463 259.701C375.257 258.438 374.944 251.71 371.763 244.675C368.581 237.64 363.737 232.961 360.942 234.225C358.147 235.488 358.461 242.216 361.642 249.251C364.823 256.286 369.668 260.965 372.463 259.701Z" fill="black"/>
<path d="M372.921 259.236C375.715 257.973 375.402 251.246 372.221 244.21C369.039 237.175 364.195 232.497 361.4 233.76C358.605 235.024 358.919 241.751 362.1 248.786C365.281 255.821 370.126 260.5 372.921 259.236Z" fill="#DCE0ED"/>
<path opacity="0.1" d="M353.961 216.672V223.935H339.822C338.505 223.937 337.191 223.831 335.891 223.62C334.547 220.204 333.643 218.211 333.643 218.211L346.089 217.284L353.961 216.672Z" fill="black"/>
<path d="M353.962 222.99H339.823C327.404 222.99 317.34 213.719 317.34 202.238V200.314C317.34 188.856 327.404 179.567 339.823 179.567L353.962 180.851V222.99Z" fill="#606CE6"/>
<path d="M330.668 191.848C330.668 191.848 339.128 196.368 334.261 204.016C334.261 204.016 328.29 213.805 318.903 212.878L315.486 191.848C315.486 191.848 326.728 190.805 330.668 191.848Z" fill="#606CE6"/>
<path opacity="0.1" d="M327.418 191.441C328.763 191.492 330.079 191.845 331.27 192.472C332.46 193.099 333.495 193.986 334.297 195.066C335.804 197.152 336.703 200.193 334.27 204.017C334.27 204.017 328.299 213.806 318.912 212.879L315.495 191.849C315.495 191.849 322.527 191.177 327.418 191.441Z" fill="black"/>
<path opacity="0.1" d="M353.501 180.851H356.227C358.516 180.851 360.711 181.76 362.33 183.378C363.949 184.997 364.858 187.192 364.858 189.481V214.363C364.858 216.652 363.949 218.847 362.33 220.466C360.711 222.084 358.516 222.994 356.227 222.994H353.501V180.851Z" fill="black"/>
<path d="M353.963 180.851H356.689C358.978 180.851 361.173 181.76 362.792 183.378C364.411 184.997 365.32 187.192 365.32 189.481V214.363C365.32 216.652 364.411 218.847 362.792 220.466C361.173 222.084 358.978 222.994 356.689 222.994H353.963V180.851Z" fill="#DCE0ED"/>
<path d="M253.58 234.972C253.58 234.972 255.763 235.769 258.679 236.882C263.315 238.666 269.851 241.271 272.123 242.699C274.394 244.126 282.864 246.472 289.205 248.122C293.907 249.34 298.748 249.936 303.604 249.897C308.536 249.851 314.512 249.804 316.162 249.804C316.451 249.802 316.739 249.824 317.024 249.869C318.758 250.157 318.689 251.32 318.647 251.598V251.659C308.448 257.837 296.085 285.495 295.315 290.131C294.736 293.607 289.641 303.243 287.129 307.851C286.285 309.394 285.738 310.372 285.738 310.372L288.83 313.923L297.791 317.942L306.288 321.65C306.288 321.65 315.254 322.113 315.406 321.65C315.559 321.186 315.559 316.398 315.559 316.398C314.468 315.694 313.433 314.907 312.463 314.043C310.407 312.253 308.497 310.302 306.752 308.208C301.81 302.335 311.698 291.058 311.698 291.058L330.704 266.338C330.704 266.338 332.248 263.557 339.665 252.433C347.082 241.308 339.665 235.282 339.665 235.282L326.611 229.864C303.97 221.391 276.661 214.6 276.661 214.6L276.272 214.549L270.482 213.826L253.58 234.972Z" fill="#EFB7B9"/>
<path d="M311.912 317.94C311.912 317.94 313.534 319.854 312.32 320.026C311.105 320.197 307.916 319.506 307.916 319.506L287.69 308.846C287.69 308.846 285.488 307.279 284.969 310.352C284.45 313.425 284.098 313.133 284.098 313.133C284.098 313.133 281.432 318.867 284.098 320.053C286.763 321.24 302.775 325.935 302.775 325.935C302.775 325.935 326.014 331.21 328.216 325.124C330.418 319.038 324.275 320.086 324.275 320.086C324.275 320.086 316.626 318.232 314.017 314.524C313.998 314.524 310.234 315.567 311.912 317.94Z" fill="#444053"/>
<path opacity="0.05" d="M339.647 235.282L326.592 229.864C303.952 221.391 276.643 214.6 276.643 214.6L276.253 214.549L270.463 213.826L253.58 234.972C253.58 234.972 255.763 235.769 258.679 236.882C263.315 238.666 269.851 241.271 272.123 242.699C274.394 244.126 282.864 246.472 289.205 248.122C293.907 249.34 298.748 249.936 303.604 249.897C308.536 249.851 314.512 249.804 316.162 249.804C316.451 249.802 316.739 249.824 317.024 249.869C318.758 250.157 318.689 251.32 318.647 251.598V251.659C308.448 257.837 296.085 285.495 295.315 290.131C294.736 293.607 289.641 303.243 287.129 307.851L286.79 308.472C286.118 308.361 285.279 308.602 284.982 310.354C284.459 313.422 284.111 313.135 284.111 313.135C284.111 313.135 281.445 318.869 284.111 320.055C286.776 321.242 302.774 325.937 302.774 325.937C302.774 325.937 326.013 331.212 328.215 325.126C330.417 319.04 324.275 320.088 324.275 320.088C324.275 320.088 316.626 318.234 314.016 314.526C313.785 314.593 313.558 314.677 313.339 314.776C313.065 314.553 312.773 314.312 312.463 314.043C310.407 312.253 308.497 310.302 306.752 308.208C301.81 302.335 311.698 291.058 311.698 291.058L330.704 266.338C330.704 266.338 332.248 263.557 339.665 252.433C347.082 241.308 339.647 235.282 339.647 235.282Z" fill="black"/>
<path d="M238.014 131.595L238.718 132.485L239.112 132.981L241.569 136.073C241.569 136.073 247.433 137.955 252.574 139.174C257.929 140.439 262.495 140.991 258.865 137.964C256.612 136.087 256.464 132.944 257.284 129.574C257.975 126.981 258.965 124.477 260.233 122.112C260.415 121.759 260.596 121.416 260.775 121.083C261.926 118.953 263.202 116.893 264.595 114.913C261.299 112.631 257.88 110.531 254.355 108.623C250.108 106.426 246.622 105.467 248.833 109.814C250.252 112.596 249.788 115.72 248.463 118.709C248.361 118.946 248.249 119.173 248.133 119.418C246.943 121.735 245.474 123.897 243.757 125.857C241.999 127.92 240.078 129.839 238.014 131.595Z" fill="#EFB7B9"/>
<path d="M267.374 202.206L270.517 205.075L273.554 216.756H268.487L262.892 209.479L267.374 202.206Z" fill="#444053"/>
<path opacity="0.1" d="M262.892 209.479L266.276 213.877L268.487 216.756H273.554L273.034 214.758L270.823 206.248L270.517 205.075L267.374 202.206L263.082 209.168L262.892 209.479Z" fill="black"/>
<path opacity="0.1" d="M262.892 209.479L266.276 213.877L268.487 216.756H273.554L273.034 214.758L270.823 206.248L270.517 205.075L267.374 202.206L263.082 209.168L262.892 209.479Z" fill="black"/>
<path d="M246.053 240.212C246.053 240.212 248.236 241.009 251.152 242.121C255.788 243.906 262.324 246.511 264.596 247.938C266.867 249.366 275.336 251.711 281.678 253.362C286.379 254.581 291.22 255.179 296.077 255.142C301.009 255.095 306.984 255.049 308.635 255.049C308.924 255.046 309.212 255.068 309.497 255.114C311.231 255.401 311.161 256.565 311.12 256.843V256.903C300.921 263.082 288.558 290.74 287.788 295.375C287.209 298.851 282.114 308.488 279.601 313.095C278.758 314.639 278.211 315.617 278.211 315.617L281.303 319.167L290.259 323.181L298.756 326.889C298.756 326.889 307.722 327.353 307.875 326.889C308.028 326.426 308.028 321.638 308.028 321.638C306.936 320.934 305.901 320.146 304.931 319.283C302.875 317.493 300.965 315.542 299.22 313.447C294.278 307.575 304.166 296.297 304.166 296.297L323.172 271.578C323.172 271.578 324.716 268.797 332.133 257.672C339.55 246.548 332.133 240.522 332.133 240.522L320.238 233.722C301.695 222.445 275.578 215.956 275.578 215.956L275.188 215.905L269.398 215.182L246.053 240.212Z" fill="#EFB7B9"/>
<path opacity="0.1" d="M278.205 315.614L281.297 319.164L290.258 323.183L298.755 326.891C298.755 326.891 307.721 327.355 307.874 326.891C308.027 326.428 308.027 321.64 308.027 321.64C306.936 320.935 305.9 320.148 304.93 319.285C303.97 319.799 302.881 320.764 303.933 322.256C303.933 322.256 305.556 324.166 304.341 324.342C303.127 324.518 299.937 323.823 299.937 323.823L279.712 313.162L279.596 313.083C278.743 314.636 278.205 315.614 278.205 315.614Z" fill="black"/>
<path d="M304.385 323.182C304.385 323.182 306.007 325.092 304.788 325.268C303.569 325.444 300.384 324.744 300.384 324.744L280.163 314.083C280.163 314.083 277.961 312.521 277.437 315.59C276.913 318.658 276.57 318.371 276.57 318.371C276.57 318.371 273.905 324.109 276.57 325.296C279.236 326.482 295.229 331.159 295.229 331.159C295.229 331.159 318.463 336.429 320.665 330.348C322.867 324.267 316.725 325.305 316.725 325.305C316.725 325.305 309.076 323.451 306.471 319.743C306.485 319.761 302.702 320.804 304.385 323.182Z" fill="#444053"/>
<path opacity="0.1" d="M247.284 117.535C249.964 119.389 254.052 122.323 257.543 122.323C258.443 122.323 259.342 122.251 260.232 122.11C261.523 119.615 262.98 117.21 264.594 114.911C264.594 114.911 244.197 100.695 248.833 109.813C250.362 112.844 248.856 114.332 247.284 117.535Z" fill="black"/>
<path d="M240.857 104.709C240.855 107.492 241.55 110.231 242.879 112.676C244.208 115.121 246.128 117.195 248.465 118.707C248.989 119.049 249.534 119.359 250.096 119.634C253.345 121.254 257.033 121.771 260.602 121.107C264.171 120.442 267.425 118.632 269.872 115.951C272.32 113.27 273.826 109.865 274.163 106.25C274.499 102.636 273.648 99.0111 271.739 95.9242C269.829 92.8373 266.965 90.4572 263.58 89.1447C260.196 87.8322 256.476 87.659 252.984 88.6513C249.492 89.6435 246.419 91.7472 244.231 94.6432C242.042 97.5393 240.858 101.07 240.857 104.7V104.709Z" fill="#EFB7B9"/>
<path opacity="0.1" d="M246.053 240.212C246.053 240.212 248.236 241.009 251.152 242.121C252.983 240.508 254.861 238.951 255.644 238.668C257.345 238.047 262.908 234.802 262.755 233.875C262.602 232.948 265.073 229.398 267.233 228.777C269.393 228.156 268.16 224.916 268.16 224.916C268.16 224.916 272.333 223.372 273.371 221.207C274.409 219.043 277.589 216.262 276.505 216.419C276.034 216.343 275.586 216.167 275.188 215.905L269.398 215.182L246.053 240.212Z" fill="black"/>
<path d="M233.38 234.65C233.38 234.65 240.491 240.522 240.82 243.146C241.149 245.769 245.896 245.621 245.896 245.621C245.896 245.621 253.007 238.821 254.704 238.205C256.401 237.588 261.968 234.339 261.815 233.412C261.662 232.485 264.133 228.935 266.293 228.313C268.454 227.692 267.22 224.452 267.22 224.452C267.22 224.452 271.393 222.909 272.431 220.744C273.469 218.58 276.65 215.798 275.565 215.956C275.259 215.998 274.281 215.493 273.038 214.756C271.513 213.828 269.58 212.572 268.004 211.511C266.335 210.38 265.06 209.481 265.06 209.481C265.06 209.481 264.332 209.351 263.085 209.17C256.359 208.197 234.451 205.712 229.365 213.805C228.688 214.875 228.179 216.043 227.859 217.268C225.583 225.889 233.38 234.65 233.38 234.65Z" fill="#444053"/>
<path opacity="0.1" d="M240.816 215.914C240.816 215.914 233.556 220.012 230.849 220.012C228.142 220.012 240.816 215.914 240.816 215.914Z" fill="black"/>
<path opacity="0.1" d="M245.663 219.044C245.663 219.044 234.853 222.678 234.853 225.533C234.853 228.388 233.842 217.885 245.663 219.044Z" fill="black"/>
<path opacity="0.1" d="M271.543 202.678L271.389 202.889C271.459 202.834 271.513 202.761 271.543 202.678Z" fill="black"/>
<path opacity="0.1" d="M238.014 131.596L238.718 132.485L239.112 132.981L241.569 136.073C241.569 136.073 247.433 137.955 252.574 139.174C257.929 140.439 262.495 140.991 258.865 137.964C256.612 136.087 256.464 132.944 257.284 129.575L257.122 129.366C257.122 129.366 257.284 132.49 255.435 132.55C252.941 132.629 252.908 131.79 250.609 130.821C247.647 129.57 244.61 127.479 243.757 125.853C241.999 127.917 240.078 129.837 238.014 131.596Z" fill="black"/>
<path opacity="0.1" d="M227.855 217.256C229.12 217.797 230.544 217.83 231.833 217.349C236.622 215.801 244.196 212.074 247.747 213.706C250.594 215.013 262.058 214.976 266.29 213.877C267.342 213.604 267.945 213.266 267.852 212.867C267.792 212.408 267.848 211.941 268.015 211.509C268.506 209.938 269.841 207.754 270.838 206.248L270.532 205.075L267.389 202.206L263.096 209.159C256.37 208.185 234.461 205.701 229.376 213.794C228.693 214.863 228.18 216.031 227.855 217.256Z" fill="black"/>
<path d="M224.729 213.641C224.729 213.641 226.583 217.965 231.372 216.422C236.16 214.878 243.735 211.147 247.286 212.779C250.837 214.41 267.841 213.947 267.377 211.94C266.914 209.933 271.549 203.596 271.549 203.596C271.549 203.596 269.018 203.133 267.451 194.868C267.219 193.663 267.011 192.291 266.835 190.734C266.452 187.544 266.362 184.326 266.566 181.12C267.192 172.174 270.325 168.522 270.325 168.522C270.325 168.522 274.651 163.581 270.942 156.781C269 153.217 261.161 143.339 261.054 138.936C260.957 134.94 257.137 130.296 257.137 130.296C257.137 130.296 257.299 133.42 255.449 133.48C252.955 133.559 252.923 132.72 250.624 131.751C247.244 130.323 243.772 127.806 243.545 126.124C243.545 126.124 229.378 125.415 226.286 139.784C223.194 154.153 224.279 162.033 224.742 163.734C225.206 165.435 229.221 187.373 225.976 196.644C222.731 205.914 224.729 213.641 224.729 213.641Z" fill="#A36468"/>
<path opacity="0.1" d="M247.826 188.398C250.381 192.708 253.8 196.443 257.867 199.369C260.579 199.392 263.288 199.573 265.98 199.911C265.748 198.706 265.516 197.334 265.363 195.777C264.98 192.587 264.89 189.369 265.094 186.163C264.649 185.94 264.257 185.625 263.943 185.238C263.63 184.851 263.403 184.402 263.277 183.92C262.503 181.292 255.609 168.777 255.609 168.777C255.609 168.777 239.482 164.605 238.921 168.777C238.36 172.949 243.807 181.445 247.826 188.398Z" fill="black"/>
<path d="M253.174 160.974C253.174 160.974 262.909 179.39 263.665 182.018C263.862 182.748 264.286 183.395 264.876 183.867C265.466 184.339 266.192 184.61 266.947 184.641C266.947 184.641 276.645 186.959 278.963 187.27C281.281 187.58 301.386 189.277 301.386 189.277C301.386 189.277 306.485 189.434 307.101 187.58C307.667 185.884 317.518 176.97 323.22 184.748C323.745 185.468 324.094 186.301 324.238 187.18C324.381 188.06 324.315 188.961 324.045 189.81C322.997 193.147 320.846 198.445 318.538 195.149C315.293 190.514 311.519 191.817 311.519 194.287C311.519 196.758 306.327 195.84 304.631 196.188C303.703 196.378 300.514 197.226 297.756 197.968C294.547 198.834 291.259 199.379 287.942 199.595C282.467 199.951 274.397 200.248 271.536 199.168C268.087 197.856 262.066 197.555 259.483 197.486C258.63 197.465 257.805 197.169 257.133 196.642C253.557 193.841 250.533 190.401 248.214 186.496C244.195 179.543 235.929 165.146 236.486 160.974C237.042 156.803 253.174 160.974 253.174 160.974Z" fill="#EFB7B9"/>
<path opacity="0.1" d="M249.928 135.458C249.928 135.458 255.143 144.112 257.558 150.291C259.974 156.47 262.908 167.288 262.908 167.288L248.38 165.587L247.147 163.58C247.147 163.58 236.772 170.069 238.01 172.85C239.247 175.631 235.228 168.679 235.539 160.799C235.849 152.919 234.422 138.856 235.539 135.458C236.656 132.061 246.512 132.83 249.928 135.458Z" fill="black"/>
<path d="M235.554 159.872C235.243 167.752 239.263 174.705 238.025 171.924C236.787 169.143 247.162 162.653 247.162 162.653L248.381 164.66L262.905 166.361C262.905 166.361 259.97 155.543 257.555 149.364C256.104 145.869 254.445 142.463 252.586 139.167C251.098 136.465 249.925 134.532 249.925 134.532C247.927 132.988 243.685 132.084 240.301 132.298C239.774 132.328 239.249 132.391 238.729 132.488C237.339 132.761 236.217 133.289 235.721 134.124C235.645 134.253 235.583 134.39 235.536 134.532C234.423 137.929 235.851 151.992 235.554 159.872Z" fill="#A36468"/>
<path opacity="0.1" d="M229.066 181.443C229.066 181.443 235.209 189.903 237.063 190.134C237.049 190.153 229.168 188.396 229.066 181.443Z" fill="black"/>
<path opacity="0.1" d="M229.066 193.496C229.066 193.496 240.656 205.2 244.364 205.316C248.073 205.432 229.066 193.496 229.066 193.496Z" fill="black"/>
<path opacity="0.1" d="M229.068 198.38C229.068 198.38 236.485 207.071 236.949 207.071C237.412 207.071 228.938 204.058 229.068 198.38Z" fill="black"/>
<path opacity="0.1" d="M235.711 134.125C236.903 133.947 238.055 133.561 239.114 132.984C239.512 132.776 239.906 132.544 240.291 132.298C241.811 131.281 243.227 130.117 244.519 128.822C246.651 126.75 248.779 124.488 249.66 121.647C249.858 120.992 250.004 120.322 250.096 119.644C250.624 116.08 250.179 112.145 252.729 109.72C253.208 109.268 253.757 108.897 254.356 108.622C257.972 106.902 263.215 108.015 265.913 104.914C267.628 102.948 267.586 100.218 268.903 98.0815C269.477 97.1545 270.534 96.3526 271.471 95.4997C270.107 93.4239 268.297 91.6787 266.173 90.3913C264.049 89.1039 261.664 88.3069 259.193 88.0584C256.721 87.8098 254.225 88.1161 251.887 88.9547C249.549 89.7933 247.428 91.1432 245.678 92.9059C243.928 94.6686 242.594 96.7996 241.773 99.1436C240.951 101.487 240.664 103.985 240.931 106.454C241.197 108.924 242.012 111.302 243.316 113.416C244.619 115.531 246.378 117.327 248.464 118.676C248.362 118.912 248.251 119.139 248.135 119.385C244.95 125.874 238.015 131.566 238.015 131.566L238.72 132.456C237.315 132.776 236.207 133.29 235.711 134.125Z" fill="black"/>
<path d="M264.983 104.458C261.845 108.054 255.248 105.959 251.795 109.255C248.763 112.143 249.968 117.181 248.73 121.181C247.85 124.023 245.722 126.28 243.589 128.357C240.483 131.379 236.511 134.447 232.264 133.58C229.747 133.066 227.281 131.184 224.847 132.051C223.637 132.486 222.77 133.534 221.866 134.456C218.796 137.585 214.805 139.65 210.477 140.348C209.621 140.541 208.729 140.499 207.894 140.227C206.596 139.699 205.896 138.28 204.714 137.525C202.396 136.042 199.42 137.562 197.014 138.888C190.286 142.53 182.859 144.699 175.227 145.248C167.595 145.797 159.934 144.714 152.753 142.072L156.503 140.218C155.706 138.591 153.55 138.234 152.178 137.043C149.35 134.591 151.014 129.687 154.004 127.439C156.994 125.191 160.865 124.407 163.962 122.308C164.592 121.881 165.232 121.316 165.292 120.56C165.282 120.005 165.106 119.466 164.787 119.012C163.137 116.106 161.31 112.986 161.681 109.663C162.247 104.564 167.814 101.431 172.927 101.074C178.04 100.717 183.103 102.256 188.225 102.344C190.079 102.376 192.022 102.196 193.612 101.236C195.832 99.9012 196.95 97.3565 198.299 95.1455C200.706 91.2198 204.157 88.0394 208.265 85.9585C212.901 83.6178 218.149 82.7974 222.97 80.8598C227.893 78.8853 232.371 75.7611 237.521 74.505C244.999 72.6509 253.009 75.0751 259.467 79.2653C262.577 81.2816 272.512 87.7524 272.447 91.8916C272.396 94.3482 269.202 95.6785 267.992 97.6068C266.657 99.7621 266.698 102.492 264.983 104.458Z" fill="#965D7B"/>
<g opacity="0.1">
<path opacity="0.1" d="M164.331 116.692C164.647 117.147 164.823 117.685 164.836 118.24C164.817 118.435 164.762 118.626 164.674 118.801C163.311 116.4 161.892 113.855 161.665 111.176C162.268 113.09 163.329 114.93 164.331 116.692Z" fill="black"/>
<path opacity="0.1" d="M151.722 134.72C153.09 135.912 155.245 136.269 156.047 137.896L154.721 138.554C153.828 138.134 152.979 137.626 152.186 137.038C151.683 136.59 151.291 136.032 151.04 135.407C150.789 134.782 150.686 134.108 150.739 133.437C150.976 133.927 151.31 134.364 151.722 134.72Z" fill="black"/>
<path opacity="0.1" d="M196.557 136.572C198.963 135.247 201.944 133.726 204.257 135.21C205.434 135.965 206.139 137.384 207.437 137.912C208.27 138.184 209.16 138.226 210.014 138.032C214.344 137.334 218.337 135.27 221.409 132.141C222.308 131.214 223.175 130.171 224.39 129.735C226.81 128.869 229.276 130.751 231.807 131.265C236.053 132.132 240.021 129.063 243.132 126.041C245.264 123.969 247.388 121.707 248.268 118.866C249.511 114.866 248.305 109.827 251.337 106.94C254.8 103.644 261.383 105.739 264.526 102.142C266.236 100.177 266.199 97.4468 267.516 95.31C268.628 93.5069 271.512 92.2276 271.92 90.0537C272.238 90.6212 272.415 91.2573 272.434 91.9078C272.383 94.3644 269.189 95.6947 267.979 97.623C266.663 99.7598 266.7 102.49 264.989 104.455C261.846 108.052 255.254 105.957 251.801 109.253C248.769 112.14 249.974 117.179 248.732 121.179C247.851 124.02 245.728 126.278 243.595 128.354C240.485 131.376 236.517 134.445 232.27 133.578C229.749 133.064 227.282 131.182 224.853 132.048C223.639 132.484 222.772 133.532 221.873 134.454C218.8 137.583 214.807 139.647 210.478 140.345C209.624 140.538 208.733 140.497 207.901 140.225C206.603 139.696 205.898 138.278 204.72 137.523C202.403 136.039 199.426 137.56 197.021 138.885C190.292 142.528 182.865 144.696 175.233 145.245C167.601 145.794 159.94 144.712 152.759 142.07L155.35 140.786C162.158 142.831 169.302 143.511 176.374 142.788C183.445 142.065 190.304 139.953 196.557 136.572Z" fill="black"/>
</g>
<path opacity="0.1" d="M311.12 256.84L315.018 254.954V254.217C315.018 253.934 311.908 254.56 309.497 255.093C311.231 255.399 311.161 256.562 311.12 256.84Z" fill="black"/>
<path d="M314.507 214.215C319.694 214.215 323.899 209.099 323.899 202.789C323.899 196.479 319.694 191.363 314.507 191.363C309.32 191.363 305.115 196.479 305.115 202.789C305.115 209.099 309.32 214.215 314.507 214.215Z" fill="#606CE6"/>
<path d="M224.112 187.92L209.013 202.808L159.379 201.941L173.026 187.92H224.112Z" fill="#DDA2A6"/>
<path d="M224.11 238.851V187.92L209.012 202.808V252.646L224.11 238.851Z" fill="#B77B7F"/>
<path d="M159.379 201.942V252.647H209.013V202.809L159.379 201.942Z" fill="#DDA2A6"/>
<path opacity="0.3" d="M159.379 201.942V252.647H209.013V202.809L159.379 201.942Z" fill="white"/>
<path d="M204.984 216.764L168.07 210.428L163.258 234.66L201.261 241.641L204.984 216.764Z" fill="#DCE0ED"/>
<path d="M197.69 222.423L172.875 218.524L172.254 221.76L197.069 225.968L197.69 222.423Z" fill="#606CE6"/>
<path d="M190.865 229.343L176.749 227.294L176.128 230.886L190.865 232.953V229.343Z" fill="#606CE6"/>
<path d="M218.003 214.649L217.331 194.598L213.451 198.426L214.128 218.524L218.003 214.649Z" fill="#65617D"/>
<path d="M168.035 193.051L215.731 193.695L217.335 194.599L213.455 198.428L212.116 197.64L164.873 196.3L168.035 193.051Z" fill="#65617D"/>
</g>
<defs>
<clipPath id="clip0">
<rect width="489.665" height="374.94" fill="white"/>
</clipPath>
</defs>
</svg>
