<svg width="21" height="21" viewBox="0 0 21 21" fill="none" xmlns="http://www.w3.org/2000/svg">
<path d="M19.4844 0.734375C19.3916 0.734375 19.2964 0.751465 19.2012 0.790527L5.12891 6.44482H1.125C0.910156 6.44482 0.734375 6.62549 0.734375 6.8501V14.1499C0.734375 14.3745 0.910156 14.5552 1.125 14.5552H3.60791C3.51758 14.8384 3.46875 15.1387 3.46875 15.4438C3.46875 17.0527 4.78223 18.3613 6.39844 18.3613C7.75098 18.3613 8.89111 17.4434 9.22803 16.2031L19.2036 20.2119C19.2988 20.2485 19.394 20.2681 19.4868 20.2681C19.8994 20.2681 20.2681 19.9214 20.2681 19.4575V1.54492C20.2656 1.08105 19.8994 0.734375 19.4844 0.734375ZM6.39844 16.6108C5.75146 16.6108 5.22656 16.0884 5.22656 15.4438C5.22656 15.1704 5.32178 14.9092 5.49512 14.7017L7.56787 15.5342C7.51904 16.1348 7.01367 16.6108 6.39844 16.6108ZM18.5078 18.0366L5.7832 12.9243L5.46826 12.7974H2.49219V8.20264H5.46826L5.7832 8.07568L18.5078 2.96338V18.0366Z" fill="#414BB2"/>
</svg>