<svg width="20" height="20" viewBox="0 0 20 20" fill="none" xmlns="http://www.w3.org/2000/svg">
<g opacity="0.5">
<path d="M9.99994 1.25C8.26936 1.25 6.57763 1.76318 5.1387 2.72464C3.69977 3.6861 2.57826 5.05267 1.916 6.65152C1.25373 8.25037 1.08045 10.0097 1.41807 11.707C1.75569 13.4044 2.58905 14.9635 3.81276 16.1872C5.03647 17.4109 6.59557 18.2443 8.2929 18.5819C9.99024 18.9195 11.7496 18.7462 13.3484 18.0839C14.9473 17.4217 16.3138 16.3002 17.2753 14.8612C18.2368 13.4223 18.7499 11.7306 18.7499 10C18.7499 7.67936 17.8281 5.45376 16.1871 3.81282C14.5462 2.17187 12.3206 1.25 9.99994 1.25V1.25ZM9.99994 17.5C8.51658 17.5 7.06653 17.0601 5.83317 16.236C4.5998 15.4119 3.6385 14.2406 3.07085 12.8701C2.50319 11.4997 2.35466 9.99168 2.64405 8.53682C2.93344 7.08197 3.64775 5.74559 4.69664 4.6967C5.74554 3.64781 7.08191 2.9335 8.53677 2.64411C9.99162 2.35472 11.4996 2.50325 12.8701 3.0709C14.2405 3.63856 15.4119 4.59985 16.236 5.83322C17.0601 7.06659 17.4999 8.51664 17.4999 10C17.4999 11.9891 16.7098 13.8968 15.3032 15.3033C13.8967 16.7098 11.9891 17.5 9.99994 17.5Z" fill="#252733"/>
<path d="M9.99988 8.12401C9.91637 8.11848 9.83265 8.13086 9.75432 8.16032C9.67598 8.18977 9.60485 8.23562 9.54567 8.2948C9.48649 8.35398 9.44064 8.42511 9.41119 8.50345C9.38173 8.58178 9.36935 8.6655 9.37488 8.74901V14.374C9.37488 14.5398 9.44073 14.6987 9.55794 14.816C9.67515 14.9332 9.83412 14.999 9.99988 14.999C10.1656 14.999 10.3246 14.9332 10.4418 14.816C10.559 14.6987 10.6249 14.5398 10.6249 14.374V8.74901C10.6304 8.6655 10.618 8.58178 10.5886 8.50345C10.5591 8.42511 10.5133 8.35398 10.4541 8.2948C10.3949 8.23562 10.3238 8.18977 10.2454 8.16032C10.1671 8.13086 10.0834 8.11848 9.99988 8.12401Z" fill="#252733"/>
<path d="M9.0625 5.9375C9.0625 6.18614 9.16127 6.4246 9.33709 6.60041C9.5129 6.77623 9.75136 6.875 10 6.875C10.2486 6.875 10.4871 6.77623 10.6629 6.60041C10.8387 6.4246 10.9375 6.18614 10.9375 5.9375C10.9375 5.68886 10.8387 5.4504 10.6629 5.27459C10.4871 5.09877 10.2486 5 10 5C9.75136 5 9.5129 5.09877 9.33709 5.27459C9.16127 5.4504 9.0625 5.68886 9.0625 5.9375V5.9375Z" fill="#252733"/>
</g>
</svg>
