<svg width="359" height="216" viewBox="0 0 359 216" fill="none" xmlns="http://www.w3.org/2000/svg">
<g clip-path="url(#clip0)">
<path d="M244.234 123.309L247.313 122.777C247.608 122.725 247.901 122.662 248.196 122.609C243.324 119.587 239.625 114.999 237.708 109.599C235.79 104.199 235.768 98.3079 237.645 92.8937C239.522 87.4794 243.186 82.8641 248.036 79.8059C252.885 76.7477 258.632 75.4286 264.331 76.0653L260.296 85.6581L269.856 77.3183C269.878 77.3238 269.9 77.3311 269.921 77.3401C273.051 78.4417 275.934 80.1485 278.404 82.3631C280.874 84.5777 282.883 87.2568 284.317 90.2473C285.751 93.2378 286.581 96.4813 286.76 99.7924C286.939 103.103 286.464 106.417 285.361 109.545C285.201 110 285.011 110.434 284.828 110.874C287.527 109.519 290.116 107.942 292.227 105.922C296.501 101.83 298.843 96.1832 301.46 89.226C306.645 75.4394 311.636 61.4531 316.429 47.4364C311.143 44.5785 307.05 39.9312 304.885 34.3292C302.721 28.7272 302.626 22.5376 304.619 16.8722C304.876 16.1434 305.173 15.4415 305.489 14.7522C305.567 14.5797 305.647 14.4083 305.729 14.2382C306.05 13.5774 306.388 12.9299 306.759 12.3084C306.82 12.2066 306.888 12.1112 306.95 12.0105C307.273 11.4865 307.614 10.9781 307.972 10.4852C308.106 10.3001 308.239 10.1155 308.377 9.93487C308.783 9.40411 309.204 8.88766 309.647 8.39461C309.796 8.22964 309.953 8.0755 310.105 7.91479C310.446 7.55548 310.796 7.20702 311.156 6.8694C311.345 6.69166 311.533 6.51264 311.727 6.3412C311.777 6.29722 311.824 6.24921 311.874 6.20559C311.876 6.2088 311.878 6.21226 311.881 6.21544C316.332 2.33962 322.002 0.144722 327.905 0.0122285C333.808 -0.120266 339.571 1.81802 344.192 5.4902L338.941 17.9735L348.392 9.73293C351.699 13.9431 353.574 19.0991 353.742 24.4486C353.91 29.7982 352.363 35.0614 349.326 39.4706C349.335 39.4736 349.344 39.476 349.352 39.479C349.249 39.6306 349.132 39.7693 349.026 39.9181C348.827 40.1974 348.623 40.4717 348.414 40.7411C348.145 41.0866 347.867 41.4204 347.582 41.7497C347.367 41.9983 347.155 42.2489 346.931 42.488C346.604 42.8378 346.261 43.169 345.916 43.4983C345.715 43.6904 345.522 43.8922 345.315 44.0773C344.772 44.5621 344.21 45.0222 343.629 45.4574C343.425 45.6099 343.21 45.7443 343.002 45.8903C342.595 46.1769 342.185 46.4593 341.761 46.7209C341.499 46.8831 341.229 47.0314 340.961 47.1838C340.573 47.4048 340.182 47.6188 339.782 47.8188C339.499 47.9605 339.214 48.095 338.926 48.2262C338.517 48.4128 338.102 48.5858 337.682 48.7505C337.401 48.861 337.121 48.9728 336.836 49.0732C336.365 49.2389 335.887 49.3828 335.407 49.5205C335.164 49.5902 334.926 49.6698 334.681 49.7322C333.96 49.9158 333.232 50.0722 332.494 50.192C332.356 50.2146 332.215 50.2231 332.076 50.2433C331.464 50.3322 330.85 50.4039 330.231 50.4477C329.965 50.4664 329.697 50.4691 329.43 50.4795C328.929 50.499 328.428 50.5089 327.924 50.4981C327.631 50.4919 327.337 50.4767 327.042 50.4601C326.552 50.4324 326.061 50.3897 325.569 50.332C325.279 50.2984 324.989 50.2651 324.698 50.2211C324.172 50.1413 323.646 50.0369 323.12 49.9226C323.086 49.9151 323.051 49.9106 323.017 49.9029C320.994 55.8163 318.934 61.7171 316.836 67.6053C319.394 65.3066 322.396 63.5546 325.656 62.4567C328.917 61.3587 332.367 60.938 335.796 61.2205C339.225 61.5029 342.561 62.4824 345.597 64.099C348.634 65.7156 351.308 67.9351 353.455 70.6213L344.718 80.2754L356.547 75.5571C359.42 81.5773 359.784 88.491 357.558 94.779C356.787 96.9885 355.706 99.0777 354.348 100.984C351.425 105.115 347.328 108.273 342.587 110.048C337.846 111.823 332.681 112.134 327.761 110.941C322.841 109.747 318.393 107.104 314.995 103.354C311.597 99.6041 309.405 94.9205 308.704 89.9107C308.481 90.5039 308.267 91.1046 308.044 91.6973C305.735 97.835 302.862 105.473 297.092 110.996C293.181 114.739 288.369 117.114 283.752 119.121C280.746 120.429 277.7 121.637 274.613 122.747C271.182 124.826 267.306 126.06 263.304 126.348C258.434 127.7 253.503 128.828 248.526 129.699L245.422 130.234C242.633 130.711 239.773 131.203 236.935 131.769C237.343 131.89 237.753 132.006 238.159 132.149C243.217 133.927 247.577 137.266 250.611 141.684C253.644 146.101 255.194 151.367 255.035 156.722L235.578 162.689L253.184 165.482C251.574 169.437 248.986 172.919 245.663 175.604C242.341 178.289 238.391 180.088 234.184 180.834C229.976 181.58 225.648 181.249 221.604 179.87C217.559 178.492 213.931 176.112 211.056 172.952C211.235 173.551 211.415 174.148 211.595 174.744C211.952 175.929 212.307 177.108 212.647 178.275C217.28 194.18 215.286 206.692 207.032 213.503L202.553 208.086C210.587 201.456 208.094 187.793 205.895 180.238C205.561 179.092 205.212 177.934 204.861 176.77C201.843 166.754 198.423 155.402 202.853 144.97C209.53 129.246 228.772 125.954 244.234 123.309Z" fill="#F2F2F2"/>
<path d="M238.532 215.544H102.21C97.7397 215.544 93.4524 213.769 90.2914 210.611C87.1303 207.452 85.3545 203.169 85.3545 198.702V136.299C85.3545 135.393 85.5393 134.496 85.8975 133.664C86.2558 132.831 86.78 132.08 87.4382 131.457L159.675 63.0404C162.564 60.305 166.392 58.7803 170.371 58.7803C174.351 58.7803 178.179 60.305 181.067 63.0404L249.941 128.272C251.662 129.902 253.032 131.864 253.968 134.04C254.905 136.216 255.388 138.56 255.388 140.929V198.702C255.388 200.914 254.952 203.104 254.105 205.147C253.258 207.19 252.016 209.047 250.451 210.611C248.886 212.175 247.027 213.415 244.982 214.262C242.937 215.108 240.746 215.544 238.532 215.544Z" fill="#3F3D56"/>
<path opacity="0.1" d="M85.3545 137.324H253.971V205.375C253.971 208.072 252.898 210.658 250.99 212.565C249.081 214.472 246.492 215.544 243.793 215.544H95.5325C92.8331 215.544 90.2443 214.472 88.3356 212.565C86.4268 210.658 85.3545 208.072 85.3545 205.375V137.324Z" fill="black"/>
<path d="M223.62 83.7031H116.769C111.647 83.7031 107.495 87.8518 107.495 92.9695V199.73C107.495 204.847 111.647 208.996 116.769 208.996H223.62C228.742 208.996 232.894 204.847 232.894 199.73V92.9695C232.894 87.8518 228.742 83.7031 223.62 83.7031Z" fill="#6C63FF"/>
<path opacity="0.1" d="M232.894 140.138V208.996H107.494V140.138L170.194 170.417L232.894 140.138Z" fill="black"/>
<path d="M170.194 174.309L89.8558 135.512C89.3589 135.272 88.8092 135.162 88.2581 135.192C87.707 135.223 87.1726 135.392 86.7051 135.685C86.2376 135.979 85.8522 136.385 85.585 136.868C85.3179 137.35 85.1777 137.893 85.1777 138.444V205.196C85.1777 206.532 85.441 207.854 85.9525 209.088C86.464 210.322 87.2137 211.443 88.1588 212.387C89.1039 213.332 90.2259 214.081 91.4608 214.592C92.6956 215.103 94.0191 215.366 95.3557 215.366H245.033C246.369 215.366 247.693 215.103 248.928 214.592C250.163 214.081 251.285 213.332 252.23 212.387C253.175 211.443 253.925 210.322 254.436 209.088C254.948 207.854 255.211 206.532 255.211 205.196V139.588C255.211 138.915 255.04 138.253 254.714 137.664C254.388 137.075 253.918 136.579 253.347 136.221C252.777 135.864 252.125 135.657 251.452 135.62C250.78 135.583 250.109 135.717 249.502 136.01L170.194 174.309Z" fill="#3F3D56"/>
<path d="M153.368 95.2061H118.298V100.161H153.368V95.2061Z" fill="#F2F2F2"/>
<path d="M219.61 113.257H115.465V116.088H219.61V113.257Z" fill="#F2F2F2"/>
<path d="M219.61 122.812H115.465V125.644H219.61V122.812Z" fill="#F2F2F2"/>
<path d="M219.61 132.369H115.465V135.201H219.61V132.369Z" fill="#F2F2F2"/>
<path d="M21.5923 215.367H313.483" stroke="#3F3D56" stroke-miterlimit="10"/>
<path d="M0 171.783C0 192.651 13.1027 209.538 29.2951 209.538L0 171.783Z" fill="#46455B"/>
<path d="M29.2949 209.538C29.2949 188.435 43.9167 171.359 61.9865 171.359L29.2949 209.538Z" fill="#6C63FF"/>
<path d="M10.6143 173.675C10.6143 193.497 18.9696 209.537 29.2952 209.537L10.6143 173.675Z" fill="#6C63FF"/>
<path d="M29.2949 209.538C29.2949 182.573 46.1955 160.754 67.0813 160.754L29.2949 209.538Z" fill="#46455B"/>
<path d="M23.1318 209.805C23.1318 209.805 27.2864 209.677 28.5384 208.786C29.7905 207.895 34.9291 206.831 35.2397 208.26C35.5503 209.689 41.4832 215.366 36.7928 215.403C32.1023 215.441 25.8943 214.673 24.6446 213.913C23.395 213.152 23.1318 209.805 23.1318 209.805Z" fill="#A8A8A8"/>
<path opacity="0.2" d="M36.8765 214.906C32.186 214.944 25.978 214.176 24.7283 213.415C23.7767 212.836 23.3974 210.758 23.2705 209.799C23.1827 209.803 23.1318 209.804 23.1318 209.804C23.1318 209.804 23.395 213.152 24.6446 213.913C25.8943 214.673 32.1024 215.441 36.7928 215.403C38.1467 215.392 38.6144 214.911 38.5887 214.198C38.4006 214.629 37.8842 214.898 36.8765 214.906Z" fill="black"/>
<path d="M254.948 57.6107C254.735 59.5059 253.288 61.0325 252.752 62.8628C251.946 65.6177 253.341 68.5739 255.249 70.7194C256.789 72.4323 258.654 73.8229 260.735 74.8104C262.817 75.798 265.074 76.3629 267.376 76.4725C268.052 76.5318 268.733 76.4577 269.381 76.2541C269.959 76.0217 270.48 75.6663 270.906 75.2125C272.344 73.7706 273.115 71.7728 273.423 69.7611C273.73 67.7495 273.611 65.7 273.49 63.6686C273.491 63.2487 273.415 62.8322 273.265 62.4397C273.069 62.0659 272.8 61.7352 272.473 61.4674C271.439 60.519 270.299 59.6917 269.076 59.0017C268.524 58.7543 268.036 58.3817 267.653 57.9134C267.422 57.5123 267.272 57.0695 267.213 56.6105L266.838 54.6996C266.771 54.1489 266.582 53.6199 266.286 53.1506C265.623 52.257 264.355 52.1354 263.243 52.0918L259.167 51.9321C257.9 51.8824 256.229 51.5192 254.992 51.7679C253.836 52.0002 254.22 53.0643 254.43 54.0331C254.734 55.2029 254.908 56.4027 254.948 57.6107Z" fill="#A0616A"/>
<path opacity="0.1" d="M254.948 57.6107C254.735 59.5059 253.288 61.0325 252.752 62.8628C251.946 65.6177 253.341 68.5739 255.249 70.7194C256.789 72.4323 258.654 73.8229 260.735 74.8104C262.817 75.798 265.074 76.3629 267.376 76.4725C268.052 76.5318 268.733 76.4577 269.381 76.2541C269.959 76.0217 270.48 75.6663 270.906 75.2125C272.344 73.7706 273.115 71.7728 273.423 69.7611C273.73 67.7495 273.611 65.7 273.49 63.6686C273.491 63.2487 273.415 62.8322 273.265 62.4397C273.069 62.0659 272.8 61.7352 272.473 61.4674C271.439 60.519 270.299 59.6917 269.076 59.0017C268.524 58.7543 268.036 58.3817 267.653 57.9134C267.422 57.5123 267.272 57.0695 267.213 56.6105L266.838 54.6996C266.771 54.1489 266.582 53.6199 266.286 53.1506C265.623 52.257 264.355 52.1354 263.243 52.0918L259.167 51.9321C257.9 51.8824 256.229 51.5192 254.992 51.7679C253.836 52.0002 254.22 53.0643 254.43 54.0331C254.734 55.2029 254.908 56.4027 254.948 57.6107Z" fill="black"/>
<path d="M280.874 142.912C280.296 149.238 279.719 155.563 279.141 161.886C278.689 166.863 278.229 171.86 277.342 176.772C277.036 178.465 276.677 180.149 276.252 181.819C275.068 186.454 273.35 190.985 272.796 195.737C272.778 195.874 272.764 196.014 272.749 196.154C272.687 197.205 272.488 198.243 272.157 199.242C271.88 199.968 271.454 200.629 271.154 201.346C270.556 202.78 270.478 204.365 270.405 205.918C268.302 204.736 266 203.95 263.613 203.598C262.461 203.427 261.178 203.304 260.394 202.445C259.524 201.495 259.621 200.041 259.767 198.765C260.224 194.802 260.681 190.841 261.137 186.883C261.286 185.18 261.576 183.492 262.003 181.836C262.161 181.285 262.35 180.744 262.543 180.202C262.808 179.456 263.076 178.71 263.278 177.944C263.568 176.705 263.77 175.448 263.884 174.182C264.354 170.196 264.919 166.219 265.415 162.236L265.441 162.026C266.185 155.989 266.751 149.923 266.587 143.842C266.564 142.941 266.526 142.041 266.468 141.138C266.386 139.83 266.267 139.136 267.351 138.317C268.55 137.414 270.128 136.782 271.498 136.19C272.236 135.87 280.36 132.988 280.55 133.621C280.931 134.969 281.131 136.363 281.145 137.764C281.151 139.484 281.06 141.203 280.874 142.912Z" fill="#605D82"/>
<path opacity="0.1" d="M277.342 176.772C277.036 178.465 276.678 180.149 276.252 181.819C275.068 186.455 273.35 190.985 272.796 195.738C272.779 195.875 272.764 196.014 272.75 196.154C269.128 190.985 266.077 185.426 262.543 180.202C262.808 179.456 263.077 178.71 263.278 177.944C263.568 176.706 263.77 175.449 263.884 174.182C264.354 170.196 264.92 166.219 265.415 162.236L265.442 162.026C265.649 162.872 265.945 163.693 266.325 164.477C268.699 169.296 274.339 171.732 277.097 176.344C277.182 176.487 277.264 176.63 277.342 176.772Z" fill="black"/>
<path d="M247.953 134.396C248.073 138.261 248.692 142.091 249.31 145.909L250.585 153.785C251.283 158.096 252.01 162.494 254.052 166.355C255.579 169.244 257.779 171.708 259.77 174.3C264.664 180.67 268.34 187.886 272.981 194.443C274.33 196.349 276.258 198.41 278.56 198.012C280.071 197.751 281.168 196.494 282.355 195.525C283.756 194.382 285.443 193.546 286.545 192.114C287.646 190.682 287.862 188.302 286.37 187.283C285.83 186.984 285.256 186.75 284.661 186.585C282.348 185.706 280.85 183.448 279.897 181.166C278.944 178.883 278.367 176.428 277.097 174.305C274.339 169.693 268.698 167.257 266.324 162.436C264.994 159.736 264.867 156.624 264.766 153.616L264.507 145.949C264.478 145.111 264.456 144.239 264.797 143.472C265.705 141.431 268.448 141.241 270.668 140.983C273.188 140.688 275.629 139.918 277.863 138.715C279.141 138.025 280.391 137.145 281.075 135.864C281.699 134.695 281.785 133.324 281.859 132.001L282.627 118.106C282.693 116.911 282.754 115.675 282.332 114.554C281.273 111.74 277.717 110.821 274.711 110.955C269.118 111.205 263.954 113.609 258.68 115.232C257.374 115.644 256.048 115.99 254.707 116.268C253.523 116.505 252.091 116.407 250.962 116.787C248.954 117.463 249.005 121.85 248.721 123.669C248.133 127.213 247.876 130.804 247.953 134.396Z" fill="#605D82"/>
<path d="M277.8 198.595C278.293 199.092 278.454 199.82 278.583 200.508C279.295 204.324 279.666 208.197 279.69 212.079C279.657 212.441 279.73 212.805 279.899 213.127C280.038 213.32 280.226 213.471 280.444 213.565C281.869 214.244 283.524 213.298 284.712 212.258C286.914 210.331 288.777 207.744 288.902 204.821C288.879 204.069 288.905 203.315 288.981 202.566C289.174 201.466 289.817 200.507 290.384 199.544C291.348 197.905 292.126 196.163 292.702 194.352C292.919 193.671 293.063 192.814 292.529 192.339C292.34 192.19 292.125 192.079 291.895 192.009L285.455 189.62C284.897 189.413 283.508 192.977 283.288 193.366C282.749 194.319 282.213 194.86 281.131 195.08C280.027 195.305 278.713 194.983 277.683 195.533C275.94 196.464 276.813 197.601 277.8 198.595Z" fill="#535070"/>
<path d="M267.864 200.794C267.744 200.556 267.577 200.345 267.374 200.173C267.075 199.984 266.736 199.869 266.385 199.838C265.159 199.63 263.706 199.493 262.86 200.403C262.066 201.257 262.203 202.647 261.54 203.605C261.33 203.908 261.045 204.158 260.863 204.479C260.637 204.969 260.535 205.508 260.566 206.047C260.532 207.532 260.498 209.019 260.601 210.501C260.687 211.742 260.896 213.043 261.673 214.016C262.921 215.577 265.17 215.802 267.167 215.903L268.784 215.985C269.229 216.039 269.681 215.998 270.109 215.864C270.374 215.741 270.612 215.567 270.808 215.351C271.005 215.135 271.156 214.882 271.252 214.607C272.094 212.516 270.761 210.264 269.94 208.166C268.996 205.753 269.166 203.075 267.864 200.794Z" fill="#535070"/>
<path d="M254.479 46.9323C254.46 46.7204 254.491 46.5068 254.57 46.3093C254.807 45.8909 255.426 46.0048 255.892 46.1223C257.769 46.5949 259.746 46.1671 261.677 46.2775C263.609 46.3879 265.785 47.3529 266.174 49.2469C267.576 48.2537 268.785 47.0128 269.74 45.5853C270.277 44.7837 270.744 43.8654 270.671 42.904C270.566 41.5173 269.401 40.4802 268.323 39.6008L265.109 36.9792C264.687 36.5918 264.2 36.2823 263.67 36.065C262.928 35.8116 262.118 35.9323 261.334 35.9328C258.994 35.9343 256.5 34.8705 254.419 35.9392C253.55 36.3856 252.896 37.1506 252.265 37.8966L249.396 41.2893C249.18 41.5056 249.023 41.7728 248.938 42.0663C248.856 42.4804 249.069 42.8891 249.143 43.3046C249.279 44.0626 248.952 44.8715 249.203 45.5994C249.62 46.8078 251.089 46.9788 251.986 47.6716C252.321 47.9298 252.845 48.8048 253.244 48.7941C253.963 48.7748 254.461 47.4907 254.479 46.9323Z" fill="#3F3D56"/>
<path d="M259.347 56.9323C264.42 56.9323 268.533 52.8232 268.533 47.7543C268.533 42.6853 264.42 38.5762 259.347 38.5762C254.274 38.5762 250.161 42.6853 250.161 47.7543C250.161 52.8232 254.274 56.9323 259.347 56.9323Z" fill="#A0616A"/>
<path d="M261.498 67.8413C261.187 66.9494 260.599 66.1798 259.82 65.6442C259.041 65.1086 258.111 64.8349 257.166 64.8627C256.896 64.913 256.617 64.8777 256.367 64.7617C256.226 64.6535 256.114 64.5127 256.039 64.3515C255.48 63.3479 255.031 62.2873 254.699 61.1878C254.553 60.702 254.353 60.1293 253.861 60.003C253.657 59.9764 253.45 60.0056 253.262 60.0874C253.073 60.1693 252.911 60.3007 252.791 60.4677C252.558 60.8039 252.303 61.1245 252.027 61.4274C250.872 62.4595 248.824 61.5188 247.598 62.4657C247.397 62.6204 247.232 62.8185 247.022 62.9592C246.811 63.0859 246.584 63.1831 246.347 63.2481C243.979 64.0205 241.658 64.9289 239.395 65.9688C240.211 70.8767 241.046 75.8702 242.958 80.464C243.868 82.6502 244.899 84.7912 245.628 87.0442C247.242 92.0359 247.314 97.3769 247.332 102.623C247.344 106.213 247.326 109.88 246.164 113.277C245.851 114.028 245.631 114.814 245.507 115.618C245.437 116.427 245.673 117.32 246.329 117.8C246.71 118.048 247.145 118.201 247.598 118.245C249.613 118.54 251.643 118.004 253.627 117.546C258.943 116.315 264.365 115.611 269.777 114.909L278.846 113.733C279.496 113.689 280.132 113.524 280.722 113.248C282.381 112.341 282.539 109.847 281.508 108.261C281.014 107.501 280.317 106.878 279.902 106.072C279.487 105.266 279.452 104.14 280.166 103.582C281.62 102.447 281.186 100.34 281.256 98.4983C281.449 93.3477 281.423 88.195 281.177 83.0404C281.104 81.9734 281.087 80.9033 281.126 79.8344C281.287 78.0233 281.622 76.2319 282.126 74.4848L284.881 63.6444C284.161 62.5079 282.783 61.7868 281.478 61.4595C280.172 61.1321 278.812 61.0357 277.526 60.6376C274.892 59.8221 272.547 57.7523 269.796 57.9452C269.588 57.949 269.383 57.9989 269.197 58.0914C268.576 58.4426 268.675 59.336 268.635 60.0474C268.547 61.6213 267.389 62.9367 266.109 63.859C264.83 64.7812 263.368 65.4537 262.193 66.5055C261.985 66.6623 261.815 66.8636 261.694 67.0948C261.574 67.3259 261.507 67.581 261.498 67.8413Z" fill="#3F3D56"/>
<path d="M225.101 78.1234C224.492 78.5183 223.845 78.8511 223.169 79.1168C222.507 79.3134 221.882 79.6165 221.318 80.0142C221.058 80.2389 220.84 80.5079 220.674 80.8087C220.363 81.3597 220.206 81.9839 220.219 82.6163C220.232 83.2487 220.414 83.8661 220.748 84.4039C221.081 84.9418 221.552 85.3804 222.113 85.674C222.674 85.9676 223.303 86.1055 223.935 86.0732C224.775 85.9791 225.592 85.7358 226.347 85.3548L232.826 82.5496C233.922 82.0749 235.107 81.5184 235.625 80.4425C235.685 80.3421 235.708 80.2235 235.688 80.108C235.636 79.9859 235.541 79.8867 235.422 79.8285C233.961 78.8802 232.683 77.6761 231.649 76.2741C231.384 75.9136 231.058 75.0621 230.683 74.8459C229.311 74.0568 226.199 77.4117 225.101 78.1234Z" fill="#A0616A"/>
<path d="M294.364 75.8213L296.752 78.5476C297.265 79.1329 297.779 79.7189 298.246 80.3409C299.394 81.9215 300.315 83.6549 300.982 85.4905C301.501 86.8518 301.932 88.3018 301.751 89.7473C301.63 90.4883 301.43 91.2142 301.153 91.9121C300.715 93.2546 300.173 94.5606 299.53 95.818C298.989 96.7734 298.379 97.6875 297.704 98.5528C295.854 101.002 293.83 103.315 291.648 105.473C290.832 106.281 290.489 107.587 290.134 108.679C289.478 110.692 287.918 112.261 286.409 113.748C285.924 114.26 285.388 114.72 284.81 115.123C283.943 115.681 282.93 115.969 281.899 115.951C281.448 115.954 281.001 115.862 280.589 115.68C279.556 115.19 279.031 113.997 278.924 112.861C278.828 111.829 279.001 110.79 279.426 109.845C280.797 106.811 284.317 105.496 286.805 103.283C288.264 101.985 289.379 100.354 290.48 98.7416C291.227 97.7346 291.851 96.6419 292.338 95.4866C292.894 94.0053 292.677 92.2516 293.163 90.7459C293.368 90.1094 293.733 89.5347 293.954 88.9034C294.174 88.2721 294.23 87.5227 293.844 86.9764C293.553 86.6292 293.181 86.3577 292.762 86.1853C291.173 85.3793 289.393 84.342 289.089 82.5872C288.967 81.6141 289.222 80.6314 289.8 79.8391C290.377 79.0575 291.05 78.3522 291.805 77.7404C292.5 77.1262 293.669 76.4354 294.364 75.8213Z" fill="#A0616A"/>
<path d="M223.567 81.929C223.146 81.0777 222.618 80.2092 221.767 79.7859C221.355 79.6069 220.91 79.5136 220.46 79.5117C220.01 79.5099 219.565 79.5994 219.151 79.7749C218.325 80.1305 217.553 80.5973 216.854 81.1624L214.795 82.6788C214.329 82.9848 213.916 83.3657 213.573 83.8062C213.248 84.3405 213.032 84.9335 212.936 85.5514C212.578 86.9605 212.468 88.4214 212.613 89.8682C212.939 92.188 214.339 94.2133 215.88 95.9791C216.843 97.0826 218.031 98.1961 219.496 98.2432C220.128 98.2635 220.831 98.0146 221.094 97.4398C221.185 97.212 221.233 96.9694 221.236 96.724C221.395 94.1365 220.468 91.6091 219.388 89.2522C219.043 88.635 218.84 87.9494 218.792 87.2444C218.784 87.1257 218.815 87.0078 218.88 86.9081C218.973 86.8112 219.098 86.7504 219.231 86.7366C220.71 86.4444 223.257 87.5921 224.294 85.9515C224.967 84.8879 224.045 82.8935 223.567 81.929Z" fill="#A0616A"/>
<path d="M253.998 44.0436C253.978 43.8317 254.009 43.6181 254.089 43.4207C254.326 43.0022 254.944 43.1161 255.411 43.2336C257.287 43.7063 259.264 43.2784 261.196 43.3889C263.128 43.4993 265.304 44.4642 265.692 46.3582C267.095 45.365 268.303 44.1241 269.259 42.6967C269.795 41.895 270.262 40.9767 270.189 40.0153C270.084 38.6286 268.92 37.5915 267.842 36.7121L264.627 34.0905C264.206 33.7031 263.718 33.3936 263.188 33.1763C262.446 32.9229 261.637 33.0437 260.852 33.0442C258.513 33.0457 256.018 31.9818 253.938 33.0505C253.068 33.4969 252.414 34.262 251.783 35.0079L248.915 38.4007C248.699 38.6169 248.541 38.8842 248.456 39.1776C248.375 39.5917 248.588 40.0005 248.662 40.416C248.797 41.1739 248.471 41.9828 248.722 42.7107C249.139 43.9191 250.607 44.0902 251.505 44.7829C251.84 45.0411 252.364 45.9161 252.763 45.9054C253.482 45.8862 253.979 44.602 253.998 44.0436Z" fill="#3F3D56"/>
<path d="M234.488 69.1964C234.117 69.4354 233.792 69.7381 233.527 70.0907C233.19 70.5994 233.121 71.2417 232.832 71.7789C232.213 72.9283 230.765 73.3372 229.862 74.2802C229.718 74.4099 229.619 74.5808 229.576 74.7695C229.572 75.0254 229.658 75.2747 229.819 75.4737L234.175 82.3158C235.625 82.4434 237.017 81.5355 238.468 81.656C239.009 81.701 239.564 81.888 240.083 81.728C240.455 81.5633 240.804 81.3503 241.12 81.0945C241.986 80.5476 243.138 80.4839 243.865 79.7624C244.562 79.07 244.651 77.9866 244.642 77.0046C244.654 76.1518 244.567 75.3005 244.383 74.4677C243.742 71.8414 241.732 69.826 240.471 67.4996C239.858 66.367 239.524 65.704 238.225 66.4817C236.92 67.2634 235.717 68.2988 234.488 69.1964Z" fill="#3F3D56"/>
<path d="M287.39 65.7361C288.208 66.2673 288.946 66.9131 289.581 67.654C290.245 68.5089 290.621 69.5552 291.258 70.4297C291.876 71.2774 292.717 71.9339 293.418 72.7145C294.481 73.8983 295.201 75.3426 295.908 76.7674C294.181 79.0175 292.298 81.1437 290.273 83.1302C290.048 83.3955 289.751 83.5906 289.417 83.6921C289.191 83.7161 288.962 83.6837 288.751 83.5978C288.54 83.5118 288.353 83.3749 288.208 83.1994C287.894 82.8706 287.672 82.4652 287.372 82.1237C286.664 81.3941 285.721 80.9382 284.709 80.8368C283.706 80.7399 282.697 80.726 281.692 80.7953C281.471 80.8198 281.248 80.7824 281.047 80.6871C280.898 80.5842 280.777 80.4457 280.696 80.2841C279.516 78.279 279.896 75.7615 280.312 73.4732L281.266 68.2225C281.405 67.2196 281.672 66.2388 282.061 65.3042C282.423 64.532 283.231 63.2226 284.226 63.4537C285.228 63.6867 286.547 65.1301 287.39 65.7361Z" fill="#3F3D56"/>
<path d="M112.631 100.214C120.652 100.214 127.154 93.7054 127.154 85.6764C127.154 77.6474 120.652 71.1387 112.631 71.1387C104.609 71.1387 98.1069 77.6474 98.1069 85.6764C98.1069 93.7054 104.609 100.214 112.631 100.214Z" fill="white"/>
<path d="M112.631 68.6602C109.198 68.6602 105.842 69.6773 102.988 71.583C100.133 73.4886 97.9085 76.1972 96.5947 79.3662C95.281 82.5352 94.9372 86.0222 95.607 89.3864C96.2767 92.7506 97.9299 95.8408 100.357 98.2662C102.785 100.692 105.878 102.343 109.245 103.013C112.612 103.682 116.102 103.338 119.273 102.026C122.445 100.713 125.156 98.4902 127.063 95.6381C128.971 92.7861 129.989 89.4331 129.989 86.003C129.975 81.4075 128.142 77.0041 124.89 73.7546C121.638 70.5051 117.23 68.6736 112.631 68.6602ZM109.068 95.2497L100.172 86.3615L102.667 83.8685L109.076 90.272L122.603 76.7563L125.098 79.2493L109.068 95.2497L109.068 95.2497Z" fill="#57B894"/>
</g>
<defs>
<clipPath id="clip0">
<rect width="359" height="216" fill="white"/>
</clipPath>
</defs>
</svg>
