<svg width="645" height="390" viewBox="0 0 645 390" fill="none" xmlns="http://www.w3.org/2000/svg">
<g clip-path="url(#clip0)">
<path d="M99.8545 122.215V141.769C108.058 141.769 115.926 145.031 121.728 150.837C127.529 156.644 130.788 164.519 130.788 172.73C130.788 180.942 127.529 188.817 121.728 194.623C115.926 200.429 108.058 203.691 99.8545 203.691V223.245H200.794V122.215H99.8545Z" fill="#F2F2F2"/>
<path d="M99.8545 197.173C113.342 197.173 124.275 186.229 124.275 172.73C124.275 159.231 113.342 148.287 99.8545 148.287C86.3672 148.287 75.4336 159.231 75.4336 172.73C75.4336 186.229 86.3672 197.173 99.8545 197.173Z" fill="#F2F2F2"/>
<path d="M469.967 197.2L430.351 172.76V361.755H469.967V197.2Z" fill="#F2F2F2"/>
<path d="M369.569 361.755H409.185V159.702L369.569 135.262V361.755Z" fill="#F2F2F2"/>
<path d="M348.405 122.204L150.324 0V110.265H213.819V237.368H150.324V361.755H348.405V122.204Z" fill="#F2F2F2"/>
<path d="M491.131 210.258V361.755H511.753L567.65 257.465L491.131 210.258Z" fill="#F2F2F2"/>
<path d="M568.092 289.453C535.216 314.05 525.946 357.264 525.946 357.264C525.946 357.264 569.979 360.598 602.855 336.001C635.731 311.404 645 268.191 645 268.191C645 268.191 600.968 264.857 568.092 289.453Z" fill="#3F3D56"/>
<path d="M525.971 356.847C525.971 356.847 525.489 356.577 524.615 356.04C523.919 355.612 522.963 355.014 521.808 354.25C511.477 347.436 484.714 327.396 473.737 296.475C460.004 257.761 476.221 216.651 476.221 216.651C476.221 216.651 511.596 236.556 526.623 272.31C527.278 273.85 527.884 275.421 528.454 277.023C540.405 310.708 529.679 346.206 526.693 354.858C526.243 356.154 525.971 356.847 525.971 356.847Z" fill="#6C63FF"/>
<path d="M526.132 358.069L525.628 357.704C525.268 357.444 489.588 331.206 480.42 291.437C471.251 251.668 491.838 212.436 492.048 212.045L492.341 211.495L492.844 211.861C493.204 212.121 528.885 238.358 538.053 278.127C547.221 317.896 526.634 357.128 526.425 357.52L526.132 358.069ZM492.716 213.123C490.242 218.064 472.999 254.419 481.478 291.193C489.955 327.968 521.369 353.085 525.756 356.442C528.231 351.501 545.473 315.145 536.995 278.371C528.517 241.597 497.103 216.479 492.716 213.123Z" fill="#3F3D56"/>
<path opacity="0.1" d="M526.692 354.859C525.891 355.326 525.19 355.719 524.615 356.041C523.348 356.733 522.645 357.082 522.645 357.082C522.645 357.082 522.313 356.082 521.808 354.25C519.024 344.231 511.056 309.314 524.392 277.242C525.093 275.562 525.837 273.918 526.623 272.311C527.278 273.85 527.884 275.422 528.454 277.023C540.405 310.708 529.679 346.206 526.692 354.859Z" fill="black"/>
<path d="M581.815 300.963C566.049 338.894 526.464 358.482 526.464 358.482C526.464 358.482 512.441 316.572 528.207 278.641C543.973 240.71 583.558 221.122 583.558 221.122C583.558 221.122 597.581 263.032 581.815 300.963Z" fill="#6C63FF"/>
<path d="M582.756 222.586L526.348 357.175L527.348 357.595L583.756 223.006L582.756 222.586Z" fill="#3F3D56"/>
<path d="M639.013 369.627C639.013 374.713 609.779 379.366 561.446 382.937C552.658 383.584 543.238 384.196 533.252 384.772C524.618 385.268 515.571 385.735 506.113 386.172C496.946 386.589 487.428 386.976 477.561 387.333C446.391 388.467 411.938 389.283 375.335 389.69C366.454 389.788 357.451 389.865 348.328 389.921C338.831 389.974 329.224 390 319.507 390C143.047 390 0 380.881 0 369.627C0 358.372 143.047 349.253 319.507 349.253C395.473 349.253 465.242 350.946 520.075 353.764C522.094 353.87 524.092 353.973 526.07 354.074C526.081 354.081 526.095 354.084 526.108 354.083C595.179 357.822 639.013 363.397 639.013 369.627Z" fill="#3F3D56"/>
<path opacity="0.15" d="M639.013 369.627C639.013 374.713 609.779 379.366 561.446 382.937C552.658 383.584 543.238 384.196 533.252 384.772C524.618 385.268 515.571 385.735 506.113 386.172C496.946 386.589 487.428 386.976 477.561 387.333C446.391 388.467 411.938 389.283 375.335 389.69C366.454 389.788 357.451 389.865 348.328 389.921C338.831 389.974 329.224 390 319.507 390C143.047 390 0 380.881 0 369.627C0 358.372 143.047 349.253 319.507 349.253C395.473 349.253 465.242 350.946 520.075 353.764C522.094 353.87 524.092 353.973 526.07 354.074C526.081 354.081 526.095 354.084 526.108 354.083C595.179 357.822 639.013 363.397 639.013 369.627Z" fill="black"/>
<path d="M614.457 366.04C614.457 370.293 587.203 374.182 542.144 377.17C533.955 377.707 525.168 378.218 515.861 378.701C507.813 379.114 499.38 379.503 490.561 379.869C482.014 380.222 473.141 380.546 463.943 380.841C434.882 381.792 402.76 382.471 368.636 382.813C360.36 382.895 351.968 382.958 343.461 383.003C334.604 383.052 325.648 383.076 316.592 383.074C152.082 383.074 18.7227 375.448 18.7227 366.04C18.7227 356.632 152.082 349.006 316.592 349.006C352.969 349.006 387.82 349.381 420.045 350.065H420.126C450.603 350.711 478.731 351.635 503.575 352.781C505.458 352.868 507.321 352.953 509.165 353.036C509.175 353.045 509.189 353.049 509.203 353.047C520.583 353.601 531.23 354.199 541.042 354.84C541.151 354.845 541.259 354.856 541.368 354.861C586.894 357.854 614.457 361.76 614.457 366.04Z" fill="#3F3D56"/>
<path opacity="0.1" d="M541.042 354.84C537.01 381.081 511.585 372.287 480.82 372.287C448.319 372.287 421.781 382.102 420.126 350.065C450.603 350.712 478.731 351.635 503.575 352.781C505.458 352.868 507.321 352.953 509.165 353.037C509.175 353.045 509.189 353.049 509.203 353.047C520.583 353.601 531.23 354.199 541.042 354.84Z" fill="black"/>
<path d="M172.182 346.858C172.182 356.318 166.563 359.621 159.632 359.621C159.471 359.621 159.311 359.619 159.151 359.615C158.83 359.608 158.511 359.593 158.197 359.571C151.941 359.128 147.082 355.655 147.082 346.858C147.082 337.754 158.704 326.266 159.58 325.414L159.581 325.413C159.614 325.379 159.632 325.363 159.632 325.363C159.632 325.363 172.182 337.398 172.182 346.858Z" fill="#6C63FF"/>
<path d="M159.175 358.173L163.765 351.755L159.163 358.879L159.152 359.615C158.831 359.608 158.512 359.593 158.198 359.571L158.692 350.107L158.689 350.033L158.697 350.021L158.744 349.126L154.131 341.985L158.758 348.455L158.77 348.645L159.143 341.494L155.194 334.115L159.191 340.24L159.58 325.414L159.582 325.363V325.413L159.517 337.104L163.449 332.469L159.501 338.11L159.397 344.513L163.069 338.368L159.382 345.455L159.324 349.015L164.652 340.462L159.303 350.257L159.175 358.173Z" fill="#3F3D56"/>
<path d="M420.039 340.242C420.039 304.243 447.252 275.061 480.82 275.061C514.388 275.061 541.601 304.243 541.601 340.242C541.601 376.24 514.388 365.771 480.82 365.771C447.252 365.771 420.039 376.24 420.039 340.242Z" fill="#3F3D56"/>
<path d="M83.2387 297.297H82.1533V370.724H83.2387V297.297Z" fill="#3F3D56"/>
<path d="M82.6965 307.681C88.426 307.681 93.0706 303.032 93.0706 297.298C93.0706 291.563 88.426 286.914 82.6965 286.914C76.967 286.914 72.3223 291.563 72.3223 297.298C72.3223 303.032 76.967 307.681 82.6965 307.681Z" fill="#3F3D56"/>
<path d="M82.6966 342.551C82.6966 342.551 81.2146 310.647 50.833 314.356L82.6966 342.551Z" fill="#3F3D56"/>
<path d="M384.772 309.379C385.043 310.338 385.345 311.29 385.668 312.235C384.219 310.81 382.798 309.345 381.349 307.929C381.93 308.11 382.51 308.291 383.058 308.506C383.655 308.743 384.229 309.036 384.772 309.379ZM377.754 304.619C369.215 297.187 359.321 291.433 350.57 284.229C355.348 286.582 359.997 289.323 364.608 291.953C370.077 295.071 375.611 298.069 381.211 300.945C380.298 302.375 379.126 303.621 377.754 304.619ZM381.407 285.905C381.543 285.766 381.679 285.626 381.816 285.486C381.82 286.542 381.828 287.529 381.84 288.425C381.075 288.171 380.312 287.91 379.551 287.643C380.206 287.104 380.826 286.523 381.407 285.905ZM306.188 306.025C309.706 302.047 312.763 297.682 315.3 293.014C318.69 298.942 324.198 303.217 328.884 308.182C321.335 307.184 313.773 306.361 306.188 306.025Z" fill="url(#paint0_linear)"/>
<path d="M63.6444 360.98C63.6444 370.44 58.0262 373.743 51.0947 373.743C50.9341 373.743 50.7736 373.741 50.6142 373.737C50.2931 373.73 49.9743 373.715 49.6601 373.693C43.4043 373.25 38.5449 369.778 38.5449 360.98C38.5449 351.876 50.1672 340.388 51.0427 339.536L51.0438 339.535C51.0773 339.502 51.0947 339.485 51.0947 339.485C51.0947 339.485 63.6444 351.52 63.6444 360.98Z" fill="#6C63FF"/>
<path d="M50.6369 372.296L55.2271 365.877L50.6254 373.001L50.6138 373.737C50.2927 373.73 49.9739 373.715 49.6597 373.693L50.1541 364.229L50.1507 364.155L50.1587 364.143L50.2061 363.248L45.5928 356.107L50.2199 362.577L50.2315 362.767L50.6046 355.616L46.6554 348.237L50.6531 354.362L51.0423 339.536L51.0435 339.485V339.535L50.9788 351.226L54.9107 346.591L50.9627 352.233L50.8587 358.635L54.5306 352.49L50.8437 359.577L50.7859 363.137L56.1142 354.584L50.7651 364.379L50.6369 372.296Z" fill="#3F3D56"/>
<path d="M70.0069 285.71C73.0041 285.71 75.4338 283.278 75.4338 280.278C75.4338 277.279 73.0041 274.847 70.0069 274.847C67.0098 274.847 64.5801 277.279 64.5801 280.278C64.5801 283.278 67.0098 285.71 70.0069 285.71Z" fill="#6C63FF"/>
<path d="M418.947 204.251C418.947 204.251 438.635 199.888 440.805 217.27C442.976 234.652 430.35 237.933 430.35 237.933L422.354 240.083L391.421 231.936L395.762 219.443L418.947 204.251Z" fill="#2F2E41"/>
<path d="M411.853 205.211C426.547 205.211 438.458 193.289 438.458 178.582C438.458 163.876 426.547 151.954 411.853 151.954C397.16 151.954 385.249 163.876 385.249 178.582C385.249 193.289 397.16 205.211 411.853 205.211Z" fill="#2F2E41"/>
<path d="M318.367 233.876L323.773 234.964L342.151 262.165L334.043 263.253L318.367 233.876Z" fill="#2F2E41"/>
<path d="M187.618 344.237C189.075 349.038 190.871 353.73 192.99 358.277C199.082 357.001 205.075 355.292 210.924 353.162C211.105 353.097 207.57 348.469 207.199 348.091C205.798 346.665 203.986 344.999 202.134 344.192C200.267 343.379 197.968 344 195.97 344.102C193.188 344.244 190.405 344.289 187.618 344.237Z" fill="#FBBEBE"/>
<path d="M202.166 351.503C199.119 350.549 197.268 347.48 196.028 344.521C194.789 341.562 193.79 338.335 191.439 336.163C190.539 336.206 189.813 336.939 189.368 337.728C188.922 338.516 188.657 339.406 188.142 340.151C187.161 341.568 185.438 342.254 184.206 343.456C182.914 344.716 182.207 346.499 180.87 347.711C179.19 349.232 176.815 349.61 174.611 350.114C171.202 350.893 167.909 352.115 164.816 353.748C163.677 354.436 162.459 354.982 161.188 355.376C159.79 355.645 158.358 355.693 156.945 355.518L147.199 354.823C146.332 354.711 145.452 354.749 144.598 354.936C142.595 355.499 141.351 357.737 141.498 359.825C141.645 361.913 142.943 363.785 144.582 365.073C146.278 366.288 148.15 367.237 150.132 367.888C158.621 371.095 167.36 373.594 176.261 375.358L176.266 377.289C182.455 380.335 189.26 381.921 196.157 381.924C196.666 381.963 197.178 381.874 197.645 381.666C198.329 381.295 198.646 380.495 198.899 379.755C201.237 372.912 202.605 365.774 202.964 358.551C203.137 356.72 202.995 354.872 202.544 353.089C202.013 351.333 203.841 352.071 202.15 351.384" fill="#2F2E41"/>
<path d="M389.07 314.733C360.178 316.464 331.621 307.999 302.692 307.095C299.095 306.982 295.459 306.991 291.947 307.78C288.232 308.615 284.769 310.298 281.314 311.906C265.799 319.132 249.747 325.117 233.715 331.093L215.299 337.959C211.619 339.331 207.805 340.724 203.888 340.485C202.132 340.377 199.976 340.111 198.988 341.576C195.992 346.019 197.408 352.546 199.388 357.532C200.03 359.15 201.117 360.896 202.839 361.08C204.051 361.21 205.178 360.508 206.356 360.192C209.709 359.293 213.051 361.55 216.501 361.918C220.763 362.371 224.72 359.941 228.743 358.453C235.415 355.985 242.711 356.063 249.723 354.894C261.483 352.934 272.382 347.468 282.57 341.242C286.449 338.871 290.375 336.331 294.831 335.464C299.956 334.467 305.219 335.788 310.243 337.211C322.223 340.604 334.017 344.623 345.576 349.253C351.662 351.691 357.704 354.305 364.037 355.991C377.735 359.601 392.225 358.755 405.411 353.577C410.035 351.747 415.06 348.513 415.325 343.52C415.476 340.672 413.27 338.164 411.796 335.729C410.85 334.167 409.904 332.605 408.875 331.098C403.893 323.808 397.847 314.207 389.07 314.733Z" fill="#2F2E41"/>
<path opacity="0.1" d="M389.07 314.733C360.178 316.464 331.621 307.999 302.692 307.095C299.095 306.982 295.459 306.991 291.947 307.78C288.232 308.615 284.769 310.298 281.314 311.906C265.799 319.132 249.747 325.117 233.715 331.093L215.299 337.959C211.619 339.331 207.805 340.724 203.888 340.485C202.132 340.377 199.976 340.111 198.988 341.576C195.992 346.019 197.408 352.546 199.388 357.532C200.03 359.15 201.117 360.896 202.839 361.08C204.051 361.21 205.178 360.508 206.356 360.192C209.709 359.293 213.051 361.55 216.501 361.918C220.763 362.371 224.72 359.941 228.743 358.453C235.415 355.985 242.711 356.063 249.723 354.894C261.483 352.934 272.382 347.468 282.57 341.242C286.449 338.871 290.375 336.331 294.831 335.464C299.956 334.467 305.219 335.788 310.243 337.211C322.223 340.604 334.017 344.623 345.576 349.253C351.662 351.691 357.704 354.305 364.037 355.991C377.735 359.601 392.225 358.755 405.411 353.577C410.035 351.747 415.06 348.513 415.325 343.52C415.476 340.672 413.27 338.164 411.796 335.729C410.85 334.167 409.904 332.605 408.875 331.098C403.893 323.808 397.847 314.207 389.07 314.733Z" fill="black"/>
<path d="M243.091 345.644C247.614 347.189 252.176 348.609 256.778 349.905C259.354 345.672 264.173 342.726 265.271 337.886C265.339 337.676 265.339 337.449 265.272 337.238C265.154 337.031 264.972 336.868 264.754 336.774C261.457 334.946 257.797 333.873 254.037 333.631C251.067 333.443 249.712 336.547 248.365 338.728C247.82 339.611 244.301 346.057 243.091 345.644Z" fill="#FBBEBE"/>
<path d="M249.43 342.555C246.759 341.994 244.145 340.557 242.781 338.179C242.143 337.065 241.463 335.563 240.187 335.647C239.003 335.725 238.459 337.139 238.193 338.302C237.195 342.66 236.214 347.052 234.463 351.162C232.712 355.272 230.121 359.13 226.466 361.674C224.791 362.841 222.922 363.713 221.284 364.932C219.812 366.028 218.529 367.403 216.903 368.251C215.815 368.75 214.692 369.169 213.543 369.505C211.853 370.094 210.238 370.881 208.732 371.849C207.407 372.619 206.284 373.693 205.455 374.982C205.048 375.632 204.81 376.374 204.763 377.14C204.715 377.906 204.861 378.672 205.185 379.367C205.534 379.94 206 380.431 206.553 380.81C207.106 381.189 207.733 381.447 208.392 381.565C209.709 381.793 211.052 381.826 212.378 381.665C217.646 381.277 222.908 380.807 228.169 380.338C230.395 380.194 232.607 379.887 234.788 379.417C235.941 379.138 237.07 378.77 238.218 378.474C240.186 377.966 242.203 377.672 244.234 377.597C244.824 377.547 245.418 377.601 245.989 377.757C247.208 378.156 248.073 379.369 249.331 379.616C250.138 379.693 250.952 379.584 251.711 379.297C255.502 378.26 259.485 378.288 263.408 378.076C265.136 377.983 267.159 377.654 267.952 376.105C268.941 374.174 267.302 372.015 266.648 369.944C266.322 368.621 266.14 367.267 266.106 365.904C265.805 362.537 264.817 359.268 263.205 356.298C261.864 353.834 260.033 351.109 260.975 348.464C261.295 347.566 261.931 346.73 261.868 345.779C261.59 341.601 251.852 343.063 249.43 342.555Z" fill="#2F2E41"/>
<path d="M345.742 268.338C340.622 266.08 336.52 262.002 334.23 256.893C333.747 255.795 333.351 254.648 332.886 253.54C331.371 249.857 329.014 246.582 326.006 243.976C325.253 243.338 324.371 242.728 323.452 242.895C322.57 243.056 321.876 243.929 321.573 244.909C321.314 245.917 321.25 246.966 321.382 247.999C321.64 250.433 322.058 252.848 322.634 255.227L324.035 261.612C324.208 262.594 324.501 263.552 324.906 264.463C325.51 265.537 326.307 266.491 327.257 267.277C328.536 268.456 329.835 269.604 331.156 270.72C332.99 272.482 335.382 273.546 337.918 273.729C343.655 274.794 349.491 276.328 354.332 280.076C354.279 280.034 354.312 275.793 354.228 275.307C354.007 274.022 353.834 272.749 352.998 271.88C351.121 269.929 348.028 269.355 345.742 268.338Z" fill="#FBBEBE"/>
<path opacity="0.1" d="M345.742 268.338C340.622 266.08 336.52 262.002 334.23 256.893C333.747 255.795 333.351 254.648 332.886 253.54C331.371 249.857 329.014 246.582 326.006 243.976C325.253 243.338 324.371 242.728 323.452 242.895C322.57 243.056 321.876 243.929 321.573 244.909C321.314 245.917 321.25 246.966 321.382 247.999C321.64 250.433 322.058 252.848 322.634 255.227L324.035 261.612C324.208 262.594 324.501 263.552 324.906 264.463C325.51 265.537 326.307 266.491 327.257 267.277C328.536 268.456 329.835 269.604 331.156 270.72C332.99 272.482 335.382 273.546 337.918 273.729C343.655 274.794 349.491 276.328 354.332 280.076C354.279 280.034 354.312 275.793 354.228 275.307C354.007 274.022 353.834 272.749 352.998 271.88C351.121 269.929 348.028 269.355 345.742 268.338Z" fill="black"/>
<path d="M404.584 219.46C408.465 219.46 411.611 216.293 411.611 212.388C411.611 208.482 408.465 205.315 404.584 205.315C400.703 205.315 397.557 208.482 397.557 212.388C397.557 216.293 400.703 219.46 404.584 219.46Z" fill="#2F2E41"/>
<path d="M400.234 208.115C398.327 207.903 396.208 207.746 394.68 208.914C393.869 209.632 393.221 210.515 392.779 211.505C391.31 214.266 389.861 217.079 389.122 220.121C388.494 222.702 388.39 225.402 387.613 227.941C386.172 232.652 382.481 236.629 382.059 241.54C381.87 243.738 382.237 246.311 380.636 247.816C380.24 248.149 379.818 248.449 379.373 248.713C378.262 249.457 377.32 250.427 376.607 251.559C376.007 252.513 375.545 253.608 374.643 254.278C373.214 255.338 370.841 255.23 370.137 256.87C369.413 258.555 371.25 260.431 370.824 262.216C370.478 263.67 368.858 264.337 367.743 265.325C366.314 266.59 365.661 268.5 365.065 270.32C362.715 270.765 360.295 270.695 357.974 270.116C355.653 269.537 353.485 268.461 351.618 266.963C353.58 271.799 353.622 277.136 353.707 282.359C353.735 284.053 353.682 285.954 352.474 287.134C358.068 287.254 363.525 288.771 368.984 290.006C371.37 290.546 373.961 291.014 376.186 289.993C377.434 289.324 378.551 288.434 379.484 287.367C382.454 284.353 385.569 281.064 386.296 276.882C386.703 274.539 386.309 272.135 386.417 269.759C386.55 266.815 387.449 263.97 388.219 261.126C389.795 255.306 390.851 249.357 391.375 243.35C391.699 239.643 394.898 236.66 396.581 233.347C399.76 227.093 403.009 220.579 403.249 213.559C403.329 211.211 402.555 208.373 400.234 208.115Z" fill="#2F2E41"/>
<path opacity="0.1" d="M400.234 208.115C398.327 207.903 396.208 207.746 394.68 208.914C393.869 209.632 393.221 210.515 392.779 211.505C391.31 214.266 389.861 217.079 389.122 220.121C388.494 222.702 388.39 225.402 387.613 227.941C386.172 232.652 382.481 236.629 382.059 241.54C381.87 243.738 382.237 246.311 380.636 247.816C380.24 248.149 379.818 248.449 379.373 248.713C378.262 249.457 377.32 250.427 376.607 251.559C376.007 252.513 375.545 253.608 374.643 254.278C373.214 255.338 370.841 255.23 370.137 256.87C369.413 258.555 371.25 260.431 370.824 262.216C370.478 263.67 368.858 264.337 367.743 265.325C366.314 266.59 365.661 268.5 365.065 270.32C362.715 270.765 360.295 270.695 357.974 270.116C355.653 269.537 353.485 268.461 351.618 266.963C353.58 271.799 353.622 277.136 353.707 282.359C353.735 284.053 353.682 285.954 352.474 287.134C358.068 287.254 363.525 288.771 368.984 290.006C371.37 290.546 373.961 291.014 376.186 289.993C377.434 289.324 378.551 288.434 379.484 287.367C382.454 284.353 385.569 281.064 386.296 276.882C386.703 274.539 386.309 272.135 386.417 269.759C386.55 266.815 387.449 263.97 388.219 261.126C389.795 255.306 390.851 249.357 391.375 243.35C391.699 239.643 394.898 236.66 396.581 233.347C399.76 227.093 403.009 220.579 403.249 213.559C403.329 211.211 402.555 208.373 400.234 208.115Z" fill="black"/>
<path d="M393.653 320.824C387.635 317.958 383.232 312.615 378.367 308.042C369.078 299.312 357.72 293.132 347.954 284.948C341.48 279.523 335.691 273.205 328.577 268.664C322.312 264.671 315.21 262.18 307.825 261.386C306.979 261.241 306.111 261.284 305.284 261.513C304.351 261.926 303.538 262.569 302.922 263.383C299.77 266.942 296.969 270.797 294.557 274.895C282.179 295.928 264.596 313.612 250.029 333.173C249.563 333.633 249.287 334.25 249.255 334.904C249.223 335.558 249.437 336.2 249.855 336.704L252.818 342.516C254.476 345.768 257.133 349.556 260.707 348.91C262.341 348.614 263.642 347.411 264.845 346.261L278.148 333.533L292.095 320.189C300.267 312.37 308.579 304.37 313.906 294.369C318.069 301.596 325.456 306.326 330.524 312.943C332.452 315.459 334.026 318.227 335.747 320.891C338.506 325.161 341.643 329.17 344.775 333.171L360.773 353.61C362.955 356.397 365.198 359.24 368.181 361.131C371.97 363.532 376.578 364.164 381.038 364.564C387.048 365.103 393.083 365.321 399.116 365.218C403.716 365.14 408.459 364.838 412.587 362.793C416.714 360.748 420.105 356.551 419.89 351.926C419.779 349.521 418.734 347.265 417.584 345.154C411.869 334.659 404.401 325.942 393.653 320.824Z" fill="#2F2E41"/>
<path d="M408.908 222.723C411.894 222.723 414.314 220.287 414.314 217.283C414.314 214.278 411.894 211.843 408.908 211.843C405.923 211.843 403.503 214.278 403.503 217.283C403.503 220.287 405.923 222.723 408.908 222.723Z" fill="#2F2E41"/>
<path d="M407.714 213.196C409.031 215.525 409.032 218.423 408.307 221.002C407.582 223.581 406.198 225.913 404.828 228.212C403.48 230.473 402.117 232.756 400.309 234.665C408.652 235.065 416.741 231.789 424.104 227.82C430.027 224.627 435.938 220.685 439.1 214.718C437.251 215.274 435.213 214.725 433.577 213.696C431.987 212.587 430.563 211.259 429.345 209.751L425.156 205.034C424.172 204.007 423.308 202.872 422.58 201.65C421.673 199.978 421.288 198.072 421.474 196.179C419.81 197.922 417.95 199.467 415.931 200.782C412.939 202.731 409.641 204.145 406.643 206.083C405.58 206.77 403.216 207.875 403.824 209.266C404.418 210.622 406.871 211.705 407.714 213.196Z" fill="#FBBEBE"/>
<path opacity="0.1" d="M407.714 213.196C409.031 215.525 409.032 218.423 408.307 221.002C407.582 223.581 406.198 225.913 404.828 228.212C403.48 230.473 402.117 232.756 400.309 234.665C408.652 235.065 416.741 231.789 424.104 227.82C430.027 224.627 435.938 220.685 439.1 214.718C437.251 215.274 435.213 214.725 433.577 213.696C431.987 212.587 430.563 211.259 429.345 209.751L425.156 205.034C424.172 204.007 423.308 202.872 422.58 201.65C421.673 199.978 421.288 198.072 421.474 196.179C419.81 197.922 417.95 199.467 415.931 200.782C412.939 202.731 409.641 204.145 406.643 206.083C405.58 206.77 403.216 207.875 403.824 209.266C404.418 210.622 406.871 211.705 407.714 213.196Z" fill="black"/>
<path d="M407.827 214.019C406.259 216.658 405.923 219.774 407.827 222.179C408.064 222.478 408.945 224.336 409.324 224.353C409.693 224.323 410.034 224.15 410.277 223.871C412.303 222.017 413.787 219.652 415.568 217.558C417.348 215.464 419.593 213.555 422.299 213.133C425.566 212.624 428.719 214.357 431.577 216.028C432.765 216.722 433.997 217.458 434.745 218.618C435.347 219.707 435.702 220.915 435.785 222.156C436.772 229.601 436.75 237.139 436.727 244.65C436.71 250.079 436.689 255.547 435.663 260.877C435.133 263.632 434.336 266.336 433.96 269.116C433.683 271.57 433.571 274.04 433.624 276.509L433.616 286.845C433.547 288.743 433.681 290.643 434.017 292.513C434.507 294.778 435.578 296.869 436.294 299.072C437.032 301.605 437.537 304.2 437.802 306.825L439.216 317.528C439.661 320.899 439.99 324.586 437.953 327.3C437.033 328.526 435.823 329.508 434.889 330.725C431.393 335.282 432.515 341.784 431.057 347.35C429.906 351.427 427.541 355.056 424.277 357.753C421.779 359.877 418.552 361.549 415.336 360.951C410.994 360.144 408.386 355.612 407.202 351.331C406.018 347.05 405.587 342.39 403.022 338.773C400.927 335.819 397.683 333.962 394.749 331.853C391.815 329.745 388.948 327.027 388.309 323.456C388.03 321.897 388.204 320.29 388.038 318.715C387.805 316.718 387.039 314.82 385.823 313.221C384.606 311.622 382.982 310.379 381.121 309.623C378.898 308.758 376.153 308.449 374.901 306.407C378.133 304.585 380.278 301.216 381.409 297.665C382.539 294.115 382.769 290.347 382.991 286.625L383.734 274.188C384.066 268.629 384.216 263.121 386.662 258.126C387.755 255.893 389.115 253.803 390.253 251.593C391.759 248.492 393.045 245.288 394.101 242.007C395.874 236.91 397.647 231.813 399.227 226.653C399.98 224.194 400.704 221.688 402.046 219.498C403.388 217.308 405.314 214.492 407.827 214.019Z" fill="#6C63FF"/>
<path d="M380.233 294.823L383.52 294.942L384.22 289.968C384.312 288.973 384.547 287.997 384.917 287.068C385.459 286.087 386.091 285.159 386.807 284.296C390.043 279.72 389.807 273.644 390.609 268.085C391.678 260.671 394.773 253.73 397.834 246.9L404.216 232.66C405.49 230.243 406.099 227.531 405.981 224.8C406.038 222.599 406.69 214.589 406.746 212.388C406.767 211.573 404.952 212.026 404.584 211.3C403.783 209.719 402.688 214.006 401.193 214.947C399.698 215.888 398.873 217.592 398.238 219.247C396.863 222.834 396.022 226.607 394.74 230.229C393.459 233.851 391.665 237.41 388.782 239.932C387.471 241.078 385.961 241.987 384.723 243.212C380.752 247.142 380.366 253.349 380.226 258.953C380.143 262.284 379.5 294.823 380.233 294.823Z" fill="#2F2E41"/>
<path d="M427.571 208.081C424.377 209.338 422.626 212.804 421.728 216.135C420.831 219.466 420.465 223.016 418.75 226.005C414.74 232.99 404.516 235.026 401.686 242.574C400.761 245.044 400.801 247.754 400.551 250.382C400.038 255.791 398.261 261.016 397.736 266.424C397.329 270.613 397.681 274.835 398.032 279.029L401.605 321.688C402.121 327.849 402.108 334.469 400.535 340.446C404.153 341.152 407.914 340.207 411.271 338.675C414.627 337.144 417.691 335.041 420.922 333.257C426.477 330.189 432.604 328.016 437.469 323.93C438.349 323.243 439.104 322.409 439.698 321.463C440.673 319.776 440.753 317.736 441.217 315.842C441.637 314.33 442.173 312.853 442.818 311.424C444.599 307.125 446.151 302.734 447.467 298.271C448.371 295.309 449.085 292.292 449.604 289.239C449.994 286.808 450.205 284.351 450.415 281.897C450.674 278.056 451.437 274.264 452.684 270.622C455.792 261.934 457.552 252.822 457.902 243.601C458.008 242.269 457.917 240.929 457.634 239.623C457.21 238.004 456.256 236.589 455.472 235.111C453.987 232.312 453.096 229.23 451.694 226.388C448.527 219.963 442.935 215.092 437.076 211.01C434.199 209.005 430.83 206.798 427.571 208.081Z" fill="#2F2E41"/>
<path d="M352.862 277.673C350.389 276.231 347.917 274.679 346.056 272.497C345.164 271.451 344.428 270.278 343.521 269.245C341.316 266.733 338.191 265.176 334.961 264.362C331.73 263.548 328.371 263.424 325.04 263.396C322.813 263.377 320.53 263.409 318.444 264.197C316.358 264.985 314.478 266.685 314.074 268.89C313.589 271.543 315.321 274.129 317.401 275.831C319.336 277.412 321.613 278.518 324.05 279.062C326.039 279.41 328.045 279.645 330.06 279.766C341.893 281.007 352.449 287.453 362.818 293.322C371.925 298.477 381.209 303.297 390.669 307.781C391.045 304.945 391.201 302.084 391.136 299.224C391.088 297.088 390.983 293.832 388.967 292.578C386.618 291.117 382.752 290.781 380.102 289.912C374.006 287.912 368.051 285.501 362.28 282.696C359.079 281.141 355.94 279.466 352.862 277.673Z" fill="#FBBEBE"/>
<path d="M404.584 210.755C416.227 210.755 425.665 201.256 425.665 189.539C425.665 177.821 416.227 168.322 404.584 168.322C392.941 168.322 383.503 177.821 383.503 189.539C383.503 201.256 392.941 210.755 404.584 210.755Z" fill="#FBBEBE"/>
<path d="M433.597 232.135C431.714 234.333 430.772 237.163 429.507 239.77C426.903 245.136 422.821 249.741 420.776 255.346C418.619 261.259 418.691 268.293 414.463 272.937C413.728 273.745 412.841 274.524 412.628 275.598C412.502 276.236 412.633 276.918 412.413 277.53C411.807 279.217 409.048 279.302 408.533 281.02C408.382 281.522 408.467 282.079 408.28 282.569C407.857 283.68 406.391 283.85 405.412 284.515C403.365 285.905 403.778 289.135 402.318 291.138C401.162 292.722 398.984 293.253 397.05 292.984C395.115 292.716 393.344 291.789 391.582 290.941C390.977 290.6 390.307 290.389 389.615 290.323C388.799 290.351 388.008 290.621 387.345 291.099C383.451 293.577 381.623 298.486 381.65 303.123C381.677 307.76 383.269 312.227 384.899 316.564C385.121 317.296 385.486 317.977 385.973 318.566C387.264 319.933 389.513 319.712 391.227 318.952C392.942 318.192 394.5 316.996 396.344 316.662C399.606 316.07 402.794 318.314 406.103 318.129C408.528 317.994 410.674 316.583 412.688 315.218C415.903 313.039 419.178 310.806 421.542 307.714C422.989 305.821 424.049 303.663 425.312 301.64C426.934 299.158 428.712 296.781 430.636 294.523L442.791 279.63C445.712 276.448 447.723 272.537 448.614 268.308C449.769 264.339 450.933 260.324 451.133 256.193C451.298 252.793 450.804 249.397 450.25 246.039C449.705 242.733 449.083 239.39 447.633 236.374C444.992 230.884 438.562 226.341 433.597 232.135Z" fill="#2F2E41"/>
<path d="M440.675 170.149C455.368 170.149 467.279 158.227 467.279 143.521C467.279 128.814 455.368 116.893 440.675 116.893C425.981 116.893 414.07 128.814 414.07 143.521C414.07 158.227 425.981 170.149 440.675 170.149Z" fill="#2F2E41"/>
<path d="M463.622 165.571C460.179 168.062 456.189 169.691 451.988 170.323C447.786 170.954 443.495 170.57 439.472 169.201C435.45 167.832 431.813 165.518 428.867 162.454C425.921 159.39 423.751 155.665 422.538 151.589C422.997 155.241 424.207 158.759 426.093 161.919C427.979 165.08 430.498 167.815 433.493 169.952C436.488 172.088 439.893 173.58 443.493 174.333C447.093 175.086 450.81 175.084 454.41 174.327C458.009 173.569 461.412 172.073 464.404 169.933C467.397 167.793 469.913 165.055 471.795 161.892C473.677 158.73 474.883 155.211 475.338 151.558C475.792 147.905 475.485 144.197 474.436 140.669C475.032 145.409 474.342 150.222 472.44 154.604C470.537 158.985 467.491 162.773 463.622 165.571Z" fill="#2F2E41"/>
<path d="M418.947 202.547C429.722 202.547 438.457 193.804 438.457 183.02C438.457 172.235 429.722 163.492 418.947 163.492C408.172 163.492 399.438 172.235 399.438 183.02C399.438 193.804 408.172 202.547 418.947 202.547Z" fill="#2F2E41"/>
<path d="M402.542 189.233C412.092 189.233 419.835 183.173 419.835 175.697C419.835 168.221 412.092 162.161 402.542 162.161C392.991 162.161 385.249 168.221 385.249 175.697C385.249 183.173 392.991 189.233 402.542 189.233Z" fill="#2F2E41"/>
<path d="M409.184 200.062C410.347 199.116 410.14 196.933 408.722 195.188C407.303 193.442 405.211 192.794 404.049 193.741C402.886 194.687 403.093 196.869 404.511 198.615C405.929 200.36 408.022 201.008 409.184 200.062Z" fill="#FBBEBE"/>
<path d="M387.628 369.67C387.628 379.13 382.01 382.433 375.078 382.433C374.918 382.433 374.757 382.431 374.598 382.428C374.277 382.421 373.958 382.406 373.644 382.384C367.388 381.941 362.528 378.468 362.528 369.67C362.528 360.567 374.151 349.079 375.026 348.227L375.027 348.225C375.061 348.192 375.078 348.176 375.078 348.176C375.078 348.176 387.628 360.211 387.628 369.67Z" fill="#6C63FF"/>
<path d="M374.621 380.986L379.212 374.567L374.61 381.691L374.598 382.428C374.277 382.421 373.958 382.406 373.644 382.384L374.139 372.92L374.135 372.846L374.143 372.833L374.19 371.938L369.577 364.797L374.204 371.268L374.216 371.457L374.589 364.307L370.64 356.927L374.637 363.053L375.027 348.227L375.028 348.176V348.225L374.963 359.916L378.895 355.281L374.947 360.923L374.843 367.325L378.515 361.181L374.828 368.268L374.77 371.827L380.099 363.274L374.75 373.069L374.621 380.986Z" fill="#3F3D56"/>
<rect x="121" y="65" width="225" height="118" rx="3" fill="#6C63FF"/>
<path d="M345.783 195.878C345.805 197.418 344.152 198.404 342.808 197.653L316.073 182.724C314.728 181.973 314.701 180.049 316.023 179.26L342.322 163.571C343.644 162.782 345.324 163.721 345.346 165.26L345.783 195.878Z" fill="#6C63FF"/>
<path d="M257.546 133.224C256.937 133.224 256.328 132.992 255.859 132.529C255.637 132.311 255.46 132.051 255.339 131.765C255.219 131.479 255.157 131.172 255.157 130.862C255.157 130.552 255.219 130.245 255.339 129.959C255.46 129.673 255.637 129.413 255.859 129.195L264.386 120.767C266.306 118.868 264.807 116.553 263.168 114.932L245.6 97.5667C244.195 96.1775 243.211 95.807 242.649 95.7144C242.227 95.6681 241.618 95.6681 240.775 96.5016L223.77 113.311C226.253 114.886 229.063 115.071 230.844 113.543C233.889 110.903 238.245 106.226 238.292 106.18C239.182 105.207 240.681 105.161 241.665 106.041C242.649 106.921 242.696 108.403 241.806 109.375C241.618 109.56 237.215 114.284 233.982 117.109C229.766 120.767 223.114 119.887 218.476 115.071C217.586 114.145 217.586 112.663 218.523 111.783L237.355 93.1675C240.635 89.9259 244.991 90.2964 248.973 94.2325L266.54 111.598C270.803 115.812 271.272 120.628 267.758 124.101L259.232 132.529C258.764 132.992 258.155 133.224 257.546 133.224Z" fill="white"/>
<path d="M231.546 158.465C231.218 158.465 230.844 158.465 230.516 158.419C228.455 158.141 226.487 157.169 224.941 155.641L205.875 136.747C202.689 133.598 201.19 131.098 199.832 128.921C199.035 127.624 198.286 126.374 197.255 125.078C196.974 124.707 196.646 124.337 196.318 123.966C194.351 121.604 193.133 120.076 193.039 118.502C193.039 118.409 193.039 118.317 192.992 118.224C192.851 116.835 192.524 113.917 195.896 110.583L211.121 95.5333C214.541 92.1528 218.57 94.0977 221.24 95.4407L221.662 95.6259C222.083 95.8111 222.552 96.0427 222.974 96.2742C225.644 97.5708 229.017 99.1453 231.921 101.646C232.905 102.479 233.045 104.008 232.155 104.98C231.312 105.952 229.766 106.091 228.782 105.212C226.346 103.128 223.301 101.692 220.865 100.534C220.397 100.303 219.929 100.071 219.46 99.8862L219.038 99.6547C216.04 98.1728 215.244 98.0339 214.401 98.8674L199.269 113.917C197.489 115.677 197.63 116.696 197.723 117.715C197.723 117.807 197.723 117.854 197.77 117.946C198.005 118.548 199.316 120.076 200.019 120.91C200.347 121.327 200.722 121.743 201.003 122.114C202.268 123.688 203.111 125.078 203.954 126.467C205.266 128.643 206.484 130.681 209.248 133.413L228.314 152.26C229.11 153.047 230.141 153.557 231.125 153.696C231.827 153.788 232.436 153.649 232.764 153.372C233.701 152.445 238.48 148.278 245.132 142.489C248.879 139.248 253.096 135.589 253.517 135.126C253.564 135.08 256 131.977 253.751 129.755L236.137 112.343C235.2 111.417 235.2 109.935 236.137 109.009C237.074 108.083 238.573 108.083 239.51 109.009L257.124 126.42C259.092 128.365 259.841 130.959 259.279 133.691C258.858 135.728 257.78 137.581 256.89 138.46C256.375 138.97 253.424 141.517 248.27 146.009C243.258 150.362 237.027 155.78 236.137 156.659C235.013 157.817 233.373 158.465 231.546 158.465Z" fill="white"/>
<path d="M251.409 140.589C250.8 140.589 250.191 140.358 249.723 139.895L241.15 131.42C240.213 130.494 240.213 129.012 241.15 128.086C242.087 127.16 243.586 127.16 244.523 128.086L253.096 136.561C253.319 136.779 253.495 137.038 253.616 137.325C253.736 137.611 253.799 137.918 253.799 138.228C253.799 138.538 253.736 138.844 253.616 139.131C253.495 139.417 253.319 139.676 253.096 139.895C252.674 140.358 252.065 140.589 251.409 140.589ZM245.413 146.563C244.804 146.563 244.195 146.331 243.727 145.868L235.154 137.394C234.217 136.468 234.217 134.986 235.154 134.06C236.091 133.134 237.59 133.134 238.527 134.06L247.1 142.534C247.322 142.753 247.499 143.012 247.62 143.298C247.74 143.584 247.802 143.891 247.802 144.201C247.802 144.511 247.74 144.818 247.62 145.104C247.499 145.39 247.322 145.65 247.1 145.868C246.631 146.331 246.022 146.563 245.413 146.563ZM238.901 153C238.292 153 237.683 152.768 237.215 152.305L228.642 143.831C227.705 142.905 227.705 141.423 228.642 140.497C229.579 139.571 231.078 139.571 232.015 140.497L240.588 148.971C240.811 149.189 240.987 149.449 241.108 149.735C241.229 150.021 241.291 150.328 241.291 150.638C241.291 150.948 241.229 151.255 241.108 151.541C240.987 151.827 240.811 152.087 240.588 152.305C240.119 152.768 239.51 153 238.901 153Z" fill="white"/>
</g>
<defs>
<linearGradient id="paint0_linear" x1="345.928" y1="312.235" x2="345.928" y2="284.229" gradientUnits="userSpaceOnUse">
<stop stop-color="#808080" stop-opacity="0.25"/>
<stop offset="0.53514" stop-color="#808080" stop-opacity="0.12"/>
<stop offset="1" stop-color="#808080" stop-opacity="0.1"/>
</linearGradient>
<clipPath id="clip0">
<rect width="645" height="390" fill="white"/>
</clipPath>
</defs>
</svg>
