<svg width="39" height="39" viewBox="0 0 39 39" fill="none" xmlns="http://www.w3.org/2000/svg">
<path d="M19.5386 0.538086C9.05057 0.538086 0.538574 9.05009 0.538574 19.5381C0.538574 30.0261 9.05057 38.5381 19.5386 38.5381C30.0266 38.5381 38.5386 30.0261 38.5386 19.5381C38.5386 9.05009 30.0266 0.538086 19.5386 0.538086ZM19.5386 6.23809C22.6926 6.23809 25.2386 8.78409 25.2386 11.9381C25.2386 15.0921 22.6926 17.6381 19.5386 17.6381C16.3846 17.6381 13.8386 15.0921 13.8386 11.9381C13.8386 8.78409 16.3846 6.23809 19.5386 6.23809ZM19.5386 33.2181C17.2811 33.2181 15.0587 32.6595 13.0696 31.592C11.0805 30.5245 9.38645 28.9813 8.13857 27.1001C8.19557 23.3191 15.7386 21.2481 19.5386 21.2481C23.3196 21.2481 30.8816 23.3191 30.9386 27.1001C29.6907 28.9813 27.9967 30.5245 26.0075 31.592C24.0184 32.6595 21.796 33.2181 19.5386 33.2181Z" fill="#414BB2"/>
</svg>
